<?xml version="1.0" encoding="UTF-8"?>
<svg xmlns="http://www.w3.org/2000/svg" xmlns:xlink="http://www.w3.org/1999/xlink" width="150px" height="56px" viewBox="0 0 150 56" version="1.1">
<g id="surface1">
<path style=" stroke:none;fill-rule:nonzero;fill:rgb(100%,100%,100%);fill-opacity:1;" d="M 2.390625 35.171875 L 4.984375 34.65625 L 4.886719 34.152344 L 2.304688 34.691406 C 1.996094 34.789062 1.652344 34.699219 1.429688 34.460938 C 1.203125 34.222656 1.136719 33.875 1.253906 33.570312 C 1.367188 33.261719 1.648438 33.050781 1.972656 33.019531 L 4.566406 32.503906 L 4.46875 32.007812 L 1.875 32.523438 C 1.519531 32.585938 1.199219 32.789062 1 33.09375 C 0.800781 33.398438 0.734375 33.769531 0.816406 34.125 C 0.882812 34.472656 1.085938 34.78125 1.382812 34.980469 C 1.679688 35.175781 2.042969 35.246094 2.390625 35.171875 Z M 2.390625 35.171875 "/>
<path style=" stroke:none;fill-rule:nonzero;fill:rgb(100%,100%,100%);fill-opacity:1;" d="M 6.101562 37.960938 L 3.269531 39 L 5.5 36.304688 L 5.304688 35.773438 L 1.636719 37.117188 L 1.804688 37.59375 L 4.644531 36.558594 L 2.414062 39.25 L 2.601562 39.78125 L 6.277344 38.441406 Z M 6.101562 37.960938 "/>
<path style=" stroke:none;fill-rule:nonzero;fill:rgb(100%,100%,100%);fill-opacity:1;" d="M 3.347656 41.304688 L 6.839844 39.546875 L 7.074219 40.015625 L 3.582031 41.773438 Z M 3.347656 41.304688 "/>
<path style=" stroke:none;fill-rule:nonzero;fill:rgb(100%,100%,100%);fill-opacity:1;" d="M 8.792969 42.917969 L 5.664062 43.730469 L 7.699219 41.210938 L 7.402344 40.757812 L 4.859375 44.035156 L 5.0625 44.339844 L 9.082031 43.371094 Z M 8.792969 42.917969 "/>
<path style=" stroke:none;fill-rule:nonzero;fill:rgb(100%,100%,100%);fill-opacity:1;" d="M 8.242188 45.785156 L 9.351562 47.058594 L 9.699219 46.761719 L 8.589844 45.488281 L 9.550781 44.644531 L 10.660156 45.917969 L 11.003906 45.621094 L 9.5625 43.957031 L 6.617188 46.527344 L 8.058594 48.183594 L 8.40625 47.886719 L 7.296875 46.613281 Z M 8.242188 45.785156 "/>
<path style=" stroke:none;fill-rule:nonzero;fill:rgb(100%,100%,100%);fill-opacity:1;" d="M 12.820312 47.277344 L 11.769531 46.394531 L 9.246094 49.386719 L 9.632812 49.714844 L 10.441406 48.757812 L 11.054688 49.273438 L 10.871094 50.734375 L 11.316406 51.109375 L 11.519531 49.558594 C 12.125 49.761719 12.789062 49.507812 13.105469 48.953125 C 13.421875 48.398438 13.304688 47.695312 12.820312 47.277344 Z M 12.59375 48.847656 C 12.457031 49.03125 12.25 49.148438 12.027344 49.171875 C 11.800781 49.195312 11.574219 49.125 11.402344 48.976562 L 10.738281 48.417969 L 11.859375 47.085938 L 12.523438 47.644531 C 12.699219 47.792969 12.804688 48.003906 12.820312 48.234375 C 12.832031 48.460938 12.75 48.683594 12.59375 48.847656 Z M 12.59375 48.847656 "/>
<path style=" stroke:none;fill-rule:nonzero;fill:rgb(100%,100%,100%);fill-opacity:1;" d="M 15.632812 49.167969 C 15.386719 48.984375 15.070312 48.914062 14.765625 48.972656 C 14.460938 49.035156 14.199219 49.226562 14.042969 49.492188 C 13.664062 50.132812 14.078125 50.625 14.554688 51.15625 C 14.800781 51.433594 15.070312 51.753906 14.835938 52.140625 C 14.730469 52.304688 14.5625 52.417969 14.371094 52.453125 C 14.179688 52.488281 13.980469 52.441406 13.824219 52.324219 C 13.613281 52.21875 13.457031 52.023438 13.398438 51.792969 C 13.339844 51.5625 13.382812 51.320312 13.515625 51.121094 L 13.074219 50.859375 C 12.875 51.164062 12.816406 51.542969 12.910156 51.894531 C 13.003906 52.25 13.246094 52.542969 13.570312 52.707031 C 13.835938 52.910156 14.171875 52.988281 14.5 52.929688 C 14.828125 52.867188 15.113281 52.671875 15.289062 52.390625 C 15.683594 51.722656 15.230469 51.191406 14.785156 50.683594 C 14.523438 50.386719 14.292969 50.089844 14.503906 49.742188 C 14.589844 49.589844 14.738281 49.484375 14.910156 49.449219 C 15.082031 49.414062 15.261719 49.453125 15.402344 49.558594 C 15.574219 49.652344 15.699219 49.8125 15.746094 50.003906 C 15.796875 50.195312 15.761719 50.398438 15.65625 50.5625 L 16.09375 50.824219 C 16.265625 50.546875 16.3125 50.210938 16.226562 49.894531 C 16.140625 49.582031 15.925781 49.316406 15.632812 49.167969 Z M 15.632812 49.167969 "/>
<path style=" stroke:none;fill-rule:nonzero;fill:rgb(100%,100%,100%);fill-opacity:1;" d="M 16.164062 53.949219 L 17.707031 50.351562 L 18.1875 50.558594 L 16.644531 54.15625 Z M 16.164062 53.949219 "/>
<path style=" stroke:none;fill-rule:nonzero;fill:rgb(100%,100%,100%);fill-opacity:1;" d="M 21.351562 51.589844 L 18.921875 50.882812 L 18.792969 51.320312 L 19.761719 51.605469 L 18.792969 54.925781 L 19.28125 55.066406 L 20.25 51.746094 L 21.222656 52.035156 Z M 21.351562 51.589844 "/>
<path style=" stroke:none;fill-rule:nonzero;fill:rgb(100%,100%,100%);fill-opacity:1;" d="M 22.734375 51.800781 L 20.878906 55.503906 L 21.40625 55.574219 L 21.691406 55.007812 L 23.257812 55.222656 L 23.386719 55.84375 L 23.917969 55.914062 L 23.101562 51.851562 Z M 21.902344 54.570312 L 22.8125 52.660156 L 23.167969 54.746094 Z M 21.902344 54.570312 "/>
<path style=" stroke:none;fill-rule:nonzero;fill:rgb(100%,100%,100%);fill-opacity:1;" d="M 26.347656 53.621094 C 25.964844 53.515625 25.640625 53.394531 25.597656 52.984375 C 25.554688 52.574219 25.867188 52.375 26.304688 52.359375 C 26.5 52.347656 26.691406 52.414062 26.835938 52.550781 C 26.980469 52.683594 27.0625 52.871094 27.0625 53.070312 L 27.570312 53.070312 C 27.566406 52.738281 27.421875 52.425781 27.175781 52.207031 C 26.929688 51.988281 26.601562 51.886719 26.277344 51.921875 C 25.96875 51.902344 25.664062 52.015625 25.441406 52.230469 C 25.222656 52.449219 25.101562 52.75 25.117188 53.0625 C 25.117188 53.804688 25.761719 53.996094 26.445312 54.179688 C 26.804688 54.28125 27.195312 54.398438 27.214844 54.886719 C 27.238281 55.378906 26.917969 55.597656 26.46875 55.597656 C 26.230469 55.625 25.992188 55.546875 25.816406 55.382812 C 25.640625 55.222656 25.542969 54.992188 25.546875 54.753906 L 25.039062 54.753906 C 25.039062 55.117188 25.191406 55.464844 25.460938 55.710938 C 25.730469 55.957031 26.089844 56.074219 26.453125 56.035156 C 26.785156 56.058594 27.109375 55.9375 27.347656 55.707031 C 27.589844 55.476562 27.71875 55.15625 27.710938 54.824219 C 27.660156 53.996094 26.996094 53.804688 26.347656 53.621094 Z M 26.347656 53.621094 "/>
<path style=" stroke:none;fill-rule:nonzero;fill:rgb(100%,100%,100%);fill-opacity:1;" d="M 32.375 53.996094 L 30.460938 51.382812 L 29.949219 51.546875 L 32.460938 54.847656 L 32.804688 54.734375 L 32.898438 50.589844 L 32.390625 50.753906 Z M 32.375 53.996094 "/>
<path style=" stroke:none;fill-rule:nonzero;fill:rgb(100%,100%,100%);fill-opacity:1;" d="M 33.582031 50.226562 L 34.054688 50 L 35.738281 53.535156 L 35.265625 53.757812 Z M 33.582031 50.226562 "/>
<path style=" stroke:none;fill-rule:nonzero;fill:rgb(100%,100%,100%);fill-opacity:1;" d="M 37.414062 52.09375 L 35.589844 49.152344 L 35.160156 49.421875 L 37.222656 52.75 L 38.742188 51.800781 L 38.496094 51.414062 Z M 37.414062 52.09375 "/>
<path style=" stroke:none;fill-rule:nonzero;fill:rgb(100%,100%,100%);fill-opacity:1;" d="M 39.101562 46.507812 L 41.074219 48.800781 L 37.773438 47.652344 L 37.34375 48.019531 L 39.886719 50.996094 L 40.273438 50.660156 L 38.304688 48.359375 L 41.609375 49.515625 L 42.035156 49.148438 L 39.492188 46.171875 Z M 39.101562 46.507812 "/>
<path style=" stroke:none;fill-rule:nonzero;fill:rgb(100%,100%,100%);fill-opacity:1;" d="M 43.265625 47.152344 L 42.304688 46.34375 L 43.390625 45.046875 L 43.039062 44.75 L 41.949219 46.046875 L 40.976562 45.226562 L 42.054688 43.929688 L 41.710938 43.632812 L 40.296875 45.316406 L 43.285156 47.835938 L 44.699219 46.152344 L 44.351562 45.863281 Z M 43.265625 47.152344 "/>
<path style=" stroke:none;fill-rule:nonzero;fill:rgb(100%,100%,100%);fill-opacity:1;" d="M 43.566406 40.773438 L 46.148438 42.351562 L 42.65625 42.28125 L 42.359375 42.761719 L 45.695312 44.800781 L 45.964844 44.367188 L 43.382812 42.789062 L 46.875 42.859375 L 47.171875 42.378906 L 43.835938 40.339844 Z M 43.566406 40.773438 "/>
<path style=" stroke:none;fill-rule:nonzero;fill:rgb(100%,100%,100%);fill-opacity:1;" d="M 47.929688 38.082031 C 47.222656 37.785156 46.753906 38.300781 46.308594 38.789062 C 46.046875 39.09375 45.792969 39.363281 45.417969 39.199219 C 45.257812 39.128906 45.136719 38.992188 45.082031 38.824219 C 45.027344 38.65625 45.046875 38.472656 45.136719 38.320312 C 45.207031 38.136719 45.351562 37.992188 45.53125 37.917969 C 45.714844 37.84375 45.917969 37.847656 46.097656 37.933594 L 46.296875 37.464844 C 45.992188 37.332031 45.648438 37.332031 45.347656 37.464844 C 45.046875 37.601562 44.816406 37.859375 44.710938 38.171875 C 44.566406 38.445312 44.539062 38.765625 44.640625 39.058594 C 44.742188 39.347656 44.964844 39.582031 45.25 39.703125 C 45.957031 39.992188 46.367188 39.511719 46.824219 38.996094 C 47.066406 38.710938 47.339844 38.40625 47.757812 38.585938 C 47.933594 38.667969 48.066406 38.820312 48.128906 39.003906 C 48.1875 39.1875 48.167969 39.390625 48.078125 39.5625 C 48 39.789062 47.828125 39.96875 47.609375 40.058594 C 47.386719 40.152344 47.136719 40.140625 46.925781 40.035156 L 46.726562 40.503906 C 47.058594 40.660156 47.4375 40.667969 47.773438 40.523438 C 48.109375 40.378906 48.371094 40.097656 48.488281 39.753906 C 48.652344 39.460938 48.6875 39.109375 48.578125 38.792969 C 48.472656 38.472656 48.238281 38.214844 47.929688 38.082031 Z M 47.929688 38.082031 "/>
<path style=" stroke:none;fill-rule:nonzero;fill:rgb(100%,100%,100%);fill-opacity:1;" d="M 45.621094 35.949219 L 45.773438 35.449219 L 49.515625 36.574219 L 49.363281 37.074219 Z M 45.621094 35.949219 "/>
<path style=" stroke:none;fill-rule:nonzero;fill:rgb(100%,100%,100%);fill-opacity:1;" d="M 49.371094 32.320312 C 48.605469 32.167969 48.265625 32.777344 47.957031 33.375 C 47.765625 33.71875 47.566406 34.039062 47.164062 33.960938 C 46.992188 33.925781 46.84375 33.816406 46.753906 33.664062 C 46.667969 33.511719 46.648438 33.328125 46.707031 33.160156 C 46.734375 32.964844 46.839844 32.789062 47.003906 32.675781 C 47.164062 32.5625 47.367188 32.523438 47.5625 32.566406 L 47.652344 32.0625 C 47.332031 31.988281 46.992188 32.054688 46.722656 32.246094 C 46.453125 32.4375 46.277344 32.734375 46.238281 33.0625 C 46.140625 33.363281 46.175781 33.691406 46.335938 33.960938 C 46.5 34.234375 46.769531 34.421875 47.082031 34.476562 C 47.785156 34.621094 48.132812 34.058594 48.492188 33.4375 C 48.671875 33.105469 48.875 32.730469 49.328125 32.835938 C 49.515625 32.878906 49.679688 33 49.777344 33.167969 C 49.875 33.339844 49.898438 33.539062 49.84375 33.726562 C 49.816406 33.964844 49.6875 34.179688 49.492188 34.3125 C 49.292969 34.449219 49.050781 34.496094 48.820312 34.433594 L 48.726562 34.9375 C 49.082031 35.023438 49.457031 34.953125 49.757812 34.742188 C 50.058594 34.53125 50.253906 34.203125 50.296875 33.839844 C 50.398438 33.515625 50.355469 33.160156 50.179688 32.867188 C 50 32.578125 49.707031 32.375 49.371094 32.320312 Z M 49.371094 32.320312 "/>
<path style=" stroke:none;fill-rule:nonzero;fill:rgb(100%,100%,100%);fill-opacity:1;" d="M 21.214844 38.5625 C 21.28125 38.609375 21.367188 38.609375 21.429688 38.5625 C 21.496094 38.519531 21.523438 38.4375 21.5 38.359375 C 21.476562 38.285156 21.410156 38.230469 21.328125 38.230469 C 21.265625 38.183594 21.179688 38.183594 21.113281 38.230469 C 21.050781 38.273438 21.023438 38.355469 21.046875 38.433594 C 21.070312 38.507812 21.136719 38.5625 21.214844 38.5625 Z M 21.214844 38.5625 "/>
<path style=" stroke:none;fill-rule:nonzero;fill:rgb(100%,100%,100%);fill-opacity:1;" d="M 39.792969 30.917969 L 39.792969 15.390625 L 11.027344 15.390625 C 11.027344 21.648438 10.949219 27.992188 10.984375 34.222656 L 27.988281 34.222656 C 28.191406 33.097656 29.632812 31.773438 28.941406 30.507812 L 28.113281 29.527344 C 28.355469 29.460938 28.59375 29.371094 28.820312 29.261719 L 29.730469 30.160156 C 29.789062 30.472656 29.894531 30.773438 30.050781 31.050781 C 29.648438 31.765625 29.359375 32.542969 29.195312 33.34375 C 28.898438 33.414062 28.765625 33.65625 28.933594 34.214844 L 29.878906 34.214844 C 30.011719 33.601562 30.25 33.011719 30.585938 32.480469 C 30.910156 31.863281 30.910156 31.125 30.585938 30.507812 C 29.878906 29.960938 29.335938 29.378906 28.617188 28.757812 C 28.53125 28.757812 28.453125 28.664062 28.367188 28.6875 C 28.28125 28.707031 28.496094 28.984375 28.59375 29.027344 C 27.273438 29.585938 25.972656 29.414062 24.59375 29.253906 C 24.566406 28.953125 24.601562 28.648438 24.699219 28.359375 C 24.878906 28.566406 25.011719 28.808594 25.089844 29.070312 C 25.300781 28.808594 25.488281 28.53125 25.648438 28.234375 L 26.480469 29.089844 C 26.511719 28.425781 26.632812 27.769531 26.839844 27.136719 C 27.441406 27.277344 28.046875 27.375 28.65625 27.433594 C 28.742188 27.773438 28.59375 28.347656 28.90625 28.347656 C 29.214844 28.347656 29.058594 27.640625 29.039062 27.433594 C 29.363281 27.453125 29.683594 27.453125 30.007812 27.433594 C 30.078125 27.753906 30.007812 28.28125 30.296875 28.269531 C 30.585938 28.253906 30.425781 27.660156 30.410156 27.398438 C 30.707031 27.378906 31 27.332031 31.285156 27.257812 C 30.777344 28.304688 30.945312 29.550781 31.710938 30.429688 L 30.875 33.324219 C 30.585938 33.414062 30.539062 33.683594 30.722656 34.1875 L 39.78125 34.1875 C 39.78125 33.273438 39.792969 31.984375 39.792969 30.917969 Z M 23.980469 17.34375 L 24.128906 16.472656 L 24.355469 17.367188 L 28.769531 17.226562 L 30.007812 17.566406 L 28.792969 17.875 L 24.390625 17.875 L 24.261719 18.78125 L 24.015625 17.945312 L 23.859375 17.945312 C 23.929688 17.753906 23.910156 17.539062 23.808594 17.359375 Z M 21.625 26.621094 C 22.148438 26.390625 22.714844 26.296875 23.28125 26.34375 C 23.308594 26.453125 23.332031 26.570312 23.34375 26.683594 C 22.699219 26.710938 22.066406 26.832031 21.457031 27.042969 C 21.476562 26.890625 21.535156 26.742188 21.625 26.621094 Z M 21.519531 25.132812 C 22.277344 24.511719 23.160156 24.066406 24.105469 23.824219 C 24.175781 23.824219 24.199219 23.871094 24.269531 23.871094 C 23.183594 24.320312 22.253906 25.078125 21.589844 26.046875 C 21.554688 25.734375 21.554688 25.414062 21.519531 25.125 Z M 21.84375 26.195312 C 22.425781 25.269531 23.285156 24.554688 24.296875 24.148438 C 24.253906 24.488281 24.402344 24.644531 24.617188 24.855469 L 23.824219 25.648438 L 23.308594 26.03125 C 22.816406 26.027344 22.324219 26.082031 21.84375 26.195312 Z M 25.527344 20.6875 C 25.964844 20.113281 26.011719 19.324219 25.640625 18.703125 C 26.035156 18.605469 26.449219 18.617188 26.835938 18.746094 C 26.929688 19.300781 26.8125 19.871094 26.503906 20.339844 L 26.730469 20.679688 C 26.507812 20.722656 26.140625 20.773438 25.851562 20.8125 C 25.84375 21.121094 25.867188 21.429688 25.921875 21.734375 C 25.664062 21.808594 25.398438 21.855469 25.132812 21.875 C 25.140625 21.449219 25.277344 21.039062 25.527344 20.695312 Z M 25.421875 20.355469 C 25.132812 20.019531 25.003906 19.578125 25.0625 19.144531 C 25.0625 19 25.203125 18.78125 25.371094 18.804688 C 25.667969 18.960938 25.710938 20.167969 25.421875 20.359375 Z M 25.988281 21.988281 C 26.054688 22.378906 26.152344 22.761719 26.277344 23.136719 C 26.058594 23.207031 25.617188 23.382812 25.308594 23.453125 C 25.199219 23.03125 25.144531 22.597656 25.152344 22.160156 C 25.464844 22.125 25.710938 22.066406 25.988281 21.996094 Z M 26.394531 23.40625 C 26.457031 23.539062 26.527344 23.667969 26.601562 23.792969 C 25.992188 24.03125 25.40625 24.332031 24.855469 24.6875 C 24.671875 24.503906 24.433594 24.148438 24.707031 24.015625 Z M 23.878906 25.988281 L 24.6875 26.597656 C 24.695312 26.636719 24.695312 26.675781 24.6875 26.710938 L 23.589844 26.648438 C 23.566406 26.511719 23.550781 26.375 23.542969 26.238281 C 23.648438 26.148438 23.765625 26.070312 23.886719 26.003906 Z M 24.105469 25.804688 C 24.8125 25.019531 25.699219 24.425781 26.691406 24.070312 C 26.863281 24.34375 27.054688 24.597656 27.273438 24.835938 C 27.179688 25.035156 26.933594 25.210938 26.4375 25.339844 C 25.839844 25.648438 25.109375 26.320312 24.871094 26.441406 Z M 26.15625 21.019531 L 28.472656 20.664062 C 28.792969 21.515625 28.949219 24.207031 28.007812 24.984375 C 26.988281 24.472656 26.207031 22.441406 26.164062 21.035156 Z M 23.289062 17.34375 C 23.496094 17.402344 23.632812 17.597656 23.621094 17.8125 C 23.601562 17.960938 23.53125 18.09375 23.421875 18.195312 C 23.421875 18.578125 23.535156 19.609375 23.578125 20.21875 L 25.132812 20.847656 C 25.003906 21.085938 24.929688 21.347656 24.90625 21.613281 L 22.882812 20.722656 C 22.882812 19.867188 22.882812 19.007812 22.949219 18.167969 C 22.769531 18.046875 22.699219 17.816406 22.78125 17.617188 C 22.863281 17.417969 23.074219 17.304688 23.289062 17.34375 Z M 22.214844 17.621094 C 22.28125 17.554688 22.390625 17.554688 22.460938 17.621094 C 22.515625 17.703125 22.515625 17.808594 22.460938 17.890625 C 22.429688 17.929688 22.378906 17.953125 22.328125 17.953125 C 22.277344 17.953125 22.230469 17.929688 22.199219 17.890625 C 22.140625 17.8125 22.175781 17.699219 22.214844 17.628906 Z M 22.917969 22.476562 C 23.296875 22.785156 23.617188 23.160156 23.859375 23.582031 C 23.71875 23.609375 23.582031 23.648438 23.449219 23.695312 C 23.109375 23.066406 22.566406 22.566406 21.910156 22.28125 L 22.015625 22.535156 C 22.503906 22.824219 22.894531 23.253906 23.140625 23.765625 C 22.5 24.019531 21.910156 24.378906 21.394531 24.828125 C 21.441406 24.53125 21.324219 24.21875 21.457031 23.859375 C 21.683594 23.277344 21.773438 22.660156 21.105469 22.246094 C 20.945312 22.175781 20.777344 22.136719 20.609375 22.125 C 20.609375 21.941406 20.609375 21.734375 20.558594 21.558594 C 21.429688 21.59375 22.261719 21.921875 22.925781 22.484375 Z M 21.152344 24.324219 L 20.835938 24.324219 L 20.636719 22.5 C 20.9375 22.496094 21.214844 22.671875 21.34375 22.945312 C 21.511719 23.234375 21.117188 23.980469 21.160156 24.332031 Z M 20.59375 25.332031 C 20.261719 25.335938 19.980469 25.078125 19.957031 24.742188 C 20.34375 24.628906 20.746094 24.585938 21.144531 24.609375 C 21.214844 25.035156 21.011719 25.339844 20.609375 25.339844 Z M 20.59375 24.320312 C 20.4375 24.320312 20.128906 24.402344 19.886719 24.453125 L 19.847656 24.410156 L 19.4375 22.703125 C 19.703125 22.53125 20.015625 22.4375 20.332031 22.433594 Z M 19.441406 21.28125 C 19.65625 21.316406 19.839844 21.445312 19.945312 21.636719 L 20.277344 21.636719 C 20.308594 21.8125 20.328125 21.992188 20.339844 22.171875 C 20.007812 22.199219 19.683594 22.300781 19.394531 22.472656 L 19.238281 22.152344 C 19.019531 21.796875 19.132812 21.875 18.960938 21.679688 C 19.175781 21.707031 19.378906 21.792969 19.550781 21.925781 C 19.511719 21.664062 19.472656 21.480469 19.449219 21.28125 Z M 16.960938 29.273438 C 17.019531 28.886719 17.109375 28.5 17.230469 28.128906 C 17.886719 27.636719 18.601562 27.226562 19.351562 26.902344 C 19.957031 26.875 20.5625 26.90625 21.160156 26.996094 C 21.117188 27.179688 21.085938 27.371094 21.066406 27.5625 C 20.523438 27.519531 19.996094 27.476562 19.421875 27.476562 C 18.804688 27.679688 18.226562 27.996094 17.71875 28.402344 C 17.683594 28.691406 17.714844 28.980469 17.8125 29.253906 C 17.605469 29.253906 17.210938 29.253906 16.960938 29.253906 Z M 18.332031 29.75 C 18.257812 29.960938 18.257812 30.195312 18.332031 30.40625 C 18.117188 30.441406 17.894531 30.464844 17.675781 30.476562 C 17.683594 30.144531 17.773438 29.816406 17.9375 29.527344 C 18.332031 29.125 18.835938 28.671875 19.195312 28.332031 C 19.34375 28.164062 19.507812 28.011719 19.691406 27.878906 L 21.953125 27.722656 L 21.953125 27.652344 C 21.765625 27.582031 21.566406 27.558594 21.371094 27.582031 L 21.371094 27.328125 C 22 27.0625 22.671875 26.921875 23.351562 26.902344 C 23.367188 27.511719 23.34375 28.121094 23.28125 28.730469 C 22.453125 28.886719 20.925781 28.394531 19.972656 28.417969 Z M 24.296875 28.855469 C 24.257812 29.078125 24.257812 29.308594 24.296875 29.527344 C 24.296875 29.75 23.875 29.796875 23.589844 29.847656 C 23.164062 29.976562 22.753906 30.152344 22.363281 30.363281 C 22.410156 30.019531 22.621094 29.722656 22.925781 29.558594 C 23.097656 29.480469 23.257812 29.382812 23.398438 29.261719 C 23.59375 28.492188 23.679688 27.695312 23.648438 26.902344 L 24.707031 26.972656 C 24.792969 27.6875 24.390625 28.261719 24.296875 28.855469 Z M 26.765625 26.378906 C 26.421875 27.007812 26.234375 27.714844 26.21875 28.433594 L 25.546875 27.757812 C 25.433594 27.964844 25.28125 28.304688 25.125 28.539062 C 25.054688 28.402344 24.898438 28.183594 24.785156 28.015625 C 24.941406 27.605469 24.988281 27.160156 24.917969 26.726562 C 25.402344 26.296875 25.929688 25.921875 26.496094 25.605469 C 27.019531 25.421875 27.371094 25.246094 27.476562 25.019531 C 27.59375 25.117188 27.714844 25.210938 27.839844 25.296875 C 27.417969 25.8125 26.832031 26.171875 26.175781 26.308594 C 26.367188 26.382812 26.570312 26.410156 26.769531 26.378906 Z M 26.917969 26.832031 C 26.976562 26.632812 27.058594 26.445312 27.160156 26.265625 C 27.449219 26.132812 27.714844 25.945312 27.945312 25.71875 C 28.273438 26.105469 28.480469 26.578125 28.539062 27.078125 C 27.992188 27.054688 27.453125 26.972656 26.925781 26.832031 Z M 28.898438 27.085938 C 28.773438 26.480469 28.535156 25.90625 28.191406 25.394531 C 28.5625 25.328125 28.941406 25.457031 29.195312 25.734375 C 29.542969 26.117188 29.769531 26.589844 29.851562 27.101562 C 29.703125 27.09375 29.160156 27.113281 28.90625 27.09375 Z M 33.773438 27.992188 C 33.929688 28.171875 34.027344 28.394531 34.050781 28.628906 C 33.84375 28.480469 33.597656 28.398438 33.34375 28.402344 C 33.4375 28.625 33.464844 28.875 33.414062 29.113281 C 33.296875 28.925781 33.152344 28.761719 32.988281 28.617188 C 32.585938 28.183594 32.726562 27.496094 32.988281 26.859375 C 32.988281 26.589844 32.855469 26.335938 32.558594 26.335938 C 31.78125 26.457031 31.101562 27.113281 30.332031 27.042969 C 30.0625 26.484375 29.910156 25.628906 29.167969 25.273438 C 29.996094 25.359375 30.746094 25.804688 31.214844 26.492188 C 31.886719 25.910156 32.691406 25.21875 33.652344 25.488281 C 33.972656 25.585938 34.210938 25.863281 34.261719 26.195312 C 34.324219 26.78125 33.964844 27.539062 34.578125 28.054688 C 34.332031 28.269531 34.035156 27.914062 33.789062 28 Z M 33.773438 27.992188 "/>
<path style=" stroke:none;fill-rule:nonzero;fill:rgb(100%,100%,100%);fill-opacity:1;" d="M 38.839844 34.78125 L 10.992188 34.78125 C 11.089844 38.15625 12.320312 41.398438 14.480469 43.984375 C 20.183594 50.773438 31.363281 50.667969 36.828125 43.449219 C 38.734375 40.964844 39.773438 37.921875 39.78125 34.789062 L 39.234375 34.789062 C 39.1875 36.667969 38.765625 38.519531 38 40.234375 C 37.890625 40.339844 37.757812 40.417969 37.609375 40.460938 C 37.03125 40.699219 36.71875 40.679688 36.113281 40.871094 C 35.984375 40.933594 35.824219 40.984375 35.792969 41.074219 C 36.207031 41.066406 36.617188 41.007812 37.015625 40.90625 C 36.832031 41.019531 36.699219 41.132812 36.570312 41.195312 C 35.125 42.042969 33.621094 42.789062 32.070312 43.425781 C 32.332031 42.023438 32.195312 40.578125 31.683594 39.25 C 32.136719 39.183594 32.589844 39.09375 33.03125 38.972656 C 33.453125 39.53125 33.691406 40.207031 33.703125 40.90625 C 33.882812 40.675781 33.96875 40.382812 33.945312 40.09375 C 33.832031 39.636719 33.648438 39.199219 33.398438 38.804688 C 33.765625 38.640625 34.289062 38.351562 34.679688 38.203125 C 35.066406 38.054688 35.648438 37.933594 35.871094 37.820312 C 35.722656 37.707031 35.3125 37.820312 35.082031 37.820312 C 36.121094 37.164062 37.25 36.65625 38.429688 36.3125 C 38.382812 36.113281 37.792969 36.3125 37.597656 36.3125 C 38.128906 35.910156 38.558594 35.386719 38.839844 34.78125 Z M 20.511719 38.089844 L 20.511719 45.515625 C 20.433594 45.421875 20.34375 45.339844 20.242188 45.273438 L 20.242188 37.832031 C 20.242188 37.613281 20.285156 37.472656 20.425781 37.457031 C 21.082031 37.394531 21.992188 37.300781 22.742188 37.1875 C 23.492188 37.074219 24.453125 36.992188 25.25 36.878906 C 25.316406 36.808594 25.292969 36.734375 25.210938 36.660156 L 20.261719 37.238281 C 20.128906 37.300781 20.007812 37.414062 20.007812 37.464844 C 20.007812 37.515625 20.007812 37.941406 20.007812 38.046875 C 20.007812 40.515625 20.007812 42.839844 20.007812 45.167969 L 19.71875 45.105469 C 19.675781 42.78125 19.71875 40.070312 19.71875 37.566406 C 19.695312 37.402344 19.695312 37.238281 19.71875 37.074219 C 19.761719 36.984375 20.007812 36.984375 20.007812 36.984375 C 21.734375 36.808594 23.507812 36.558594 25.238281 36.347656 C 25.324219 36.347656 25.308594 36.210938 25.238281 36.148438 C 23.535156 36.332031 21.511719 36.488281 19.867188 36.6875 C 19.683594 36.648438 19.496094 36.695312 19.351562 36.8125 C 19.289062 36.949219 19.265625 37.097656 19.28125 37.246094 C 19.28125 39.816406 19.371094 42.476562 19.28125 45.074219 L 19.039062 45.074219 C 19.039062 42.421875 18.996094 39.074219 18.996094 36.800781 C 18.980469 36.675781 19.019531 36.554688 19.101562 36.460938 C 19.1875 36.371094 19.304688 36.320312 19.429688 36.324219 C 21.546875 36.140625 22.882812 36.078125 24.609375 35.859375 C 25.109375 35.859375 25.554688 35.90625 25.796875 36.28125 C 25.878906 36.417969 25.898438 36.582031 25.847656 36.734375 C 25.796875 36.886719 25.683594 37.003906 25.535156 37.0625 C 25.320312 37.148438 25.09375 37.199219 24.863281 37.21875 L 20.808594 37.683594 C 20.628906 37.742188 20.511719 37.902344 20.511719 38.089844 Z M 24.75 37.59375 L 24.75 38.675781 L 24.507812 38.675781 C 24.078125 38.539062 23.792969 38.136719 23.804688 37.683594 C 24.078125 37.628906 24.453125 37.621094 24.765625 37.59375 Z M 20.75 38.300781 C 20.75 38.117188 20.75 37.960938 20.992188 37.941406 L 21.875 37.875 C 21.875 38.621094 21.578125 38.980469 20.75 38.980469 C 20.765625 38.761719 20.765625 38.5625 20.765625 38.292969 Z M 21.125 46.257812 C 20.980469 46.261719 20.851562 46.167969 20.808594 46.03125 L 20.808594 45.039062 C 21.082031 45.035156 21.351562 45.121094 21.570312 45.289062 C 21.832031 45.515625 21.980469 45.851562 21.964844 46.203125 C 21.6875 46.234375 21.410156 46.25 21.132812 46.25 Z M 22.242188 46.171875 C 22.253906 45.742188 22.070312 45.328125 21.738281 45.046875 C 21.46875 44.863281 21.140625 44.777344 20.8125 44.800781 L 20.765625 39.222656 C 21.152344 39.285156 21.542969 39.152344 21.816406 38.871094 C 22.089844 38.589844 22.210938 38.191406 22.136719 37.804688 L 23.546875 37.648438 C 23.535156 37.984375 23.65625 38.308594 23.886719 38.554688 C 24.117188 38.796875 24.4375 38.933594 24.769531 38.9375 L 24.925781 44.402344 C 24.566406 44.449219 24.238281 44.644531 24.027344 44.9375 C 23.8125 45.234375 23.730469 45.601562 23.796875 45.960938 Z M 24.078125 45.933594 C 24.023438 45.664062 24.082031 45.386719 24.238281 45.160156 C 24.394531 44.933594 24.636719 44.785156 24.90625 44.742188 C 24.90625 44.742188 24.953125 45.804688 24.953125 45.828125 C 24.664062 45.878906 24.371094 45.914062 24.078125 45.933594 Z M 25.0625 37.523438 C 25.382812 37.503906 25.6875 37.367188 25.914062 37.140625 C 26.007812 37.355469 25.917969 37.609375 25.710938 37.71875 C 25.511719 37.84375 25.289062 37.925781 25.054688 37.960938 C 25.054688 37.882812 25.003906 37.523438 25.0625 37.523438 Z M 25.0625 38.230469 C 25.378906 38.210938 25.683594 38.089844 25.929688 37.890625 L 25.929688 39.492188 C 25.839844 39.824219 25.476562 39.902344 25.0625 40.015625 Z M 25.0625 40.28125 C 25.378906 40.238281 25.679688 40.113281 25.929688 39.914062 C 26.03125 40.03125 26.03125 40.207031 25.929688 40.324219 C 25.683594 40.507812 25.386719 40.617188 25.082031 40.636719 C 25.074219 40.527344 25.078125 40.414062 25.097656 40.304688 Z M 25.0625 40.914062 C 25.332031 40.894531 25.597656 40.816406 25.839844 40.6875 L 25.839844 42.101562 L 25.082031 42.527344 Z M 25.152344 43.382812 C 25.246094 43.382812 25.285156 43.382812 25.335938 43.527344 C 25.386719 43.667969 25.554688 43.640625 25.71875 43.710938 C 25.796875 43.808594 25.910156 43.867188 26.035156 43.871094 C 26.035156 44.054688 26.035156 44.582031 26.035156 44.773438 C 26.035156 44.960938 25.328125 45.183594 25.167969 45.175781 Z M 25.980469 45.507812 C 25.738281 45.648438 25.472656 45.730469 25.195312 45.753906 L 25.195312 45.488281 C 25.539062 45.449219 25.863281 45.316406 26.136719 45.105469 C 26.21875 45.261719 26.171875 45.453125 26.027344 45.558594 Z M 31.746094 43.382812 C 31.703125 43.566406 31.597656 43.5625 31.503906 43.503906 C 31.191406 43.003906 31.019531 42.429688 31.003906 41.839844 C 31.230469 41.613281 31.5 41.4375 31.796875 41.316406 C 31.898438 42.019531 31.898438 42.738281 31.796875 43.441406 Z M 31.746094 41.046875 C 30.375 41.605469 29.441406 43.171875 27.824219 43.414062 C 28.136719 43.257812 28.433594 43.074219 28.714844 42.867188 C 28.714844 42.796875 28.714844 42.773438 28.609375 42.773438 C 28.144531 43.070312 27.644531 43.308594 27.125 43.484375 L 26.199219 43.667969 C 26.148438 43.667969 26.050781 43.667969 26 43.574219 C 26.226562 43.449219 26.941406 43.242188 27.308594 43.058594 C 27.664062 42.890625 28.003906 42.691406 28.320312 42.457031 C 28.320312 42.394531 28.320312 42.300781 28.191406 42.328125 C 27.882812 42.511719 27.570312 42.675781 27.246094 42.824219 C 26.789062 43.039062 26.316406 43.210938 25.832031 43.347656 C 25.691406 43.347656 25.535156 43.347656 25.5 43.265625 C 25.464844 43.179688 25.5 43.199219 25.65625 43.121094 C 25.808594 43.042969 26.46875 42.8125 26.882812 42.597656 C 27.253906 42.421875 27.605469 42.210938 27.9375 41.96875 C 27.9375 41.882812 27.9375 41.832031 27.808594 41.875 C 27.078125 42.316406 26.300781 42.675781 25.492188 42.953125 C 25.367188 42.992188 25.234375 42.992188 25.109375 42.953125 L 25.109375 42.832031 L 26.417969 42.203125 C 26.773438 42.027344 27.113281 41.816406 27.429688 41.570312 L 28.347656 40.765625 L 28.347656 40.628906 C 27.671875 40.832031 26.957031 40.832031 26.285156 40.628906 L 26.285156 40.539062 C 26.636719 40.445312 26.988281 40.394531 27.359375 40.296875 C 27.9375 40.140625 28.472656 39.871094 29.109375 39.730469 C 29.746094 39.589844 30.65625 39.644531 31.449219 39.53125 C 31.683594 40.023438 31.804688 40.558594 31.808594 41.105469 Z M 31.746094 41.046875 "/>
<path style=" stroke:none;fill-rule:nonzero;fill:rgb(100%,100%,100%);fill-opacity:1;" d="M 21.378906 45.515625 C 21.265625 45.46875 21.136719 45.527344 21.09375 45.640625 C 21.046875 45.753906 21.101562 45.878906 21.214844 45.925781 C 21.328125 45.96875 21.457031 45.914062 21.503906 45.800781 C 21.546875 45.6875 21.492188 45.558594 21.378906 45.515625 Z M 21.378906 45.515625 "/>
<path style=" stroke:none;fill-rule:nonzero;fill:rgb(100%,100%,100%);fill-opacity:1;" d="M 24.015625 41.550781 C 24.015625 41.148438 23.746094 41.0625 23.398438 41.046875 C 23.417969 40.859375 23.359375 40.667969 23.238281 40.523438 C 22.804688 40.320312 22.269531 40.523438 22.402344 41.113281 C 22.164062 41.152344 21.695312 41.308594 21.753906 41.714844 C 21.808594 42.117188 22.023438 42.230469 22.460938 42.207031 C 22.460938 42.546875 22.699219 42.917969 23.039062 42.882812 C 23.378906 42.847656 23.449219 42.449219 23.449219 42.046875 C 23.738281 42.039062 24.058594 41.890625 24.015625 41.550781 Z M 23.222656 41.867188 C 23.222656 42.167969 23.328125 42.578125 23.039062 42.578125 C 22.628906 42.621094 22.8125 42.109375 22.699219 41.945312 C 22.585938 41.785156 22.113281 42.058594 21.992188 41.742188 C 22.035156 41.332031 22.398438 41.375 22.652344 41.316406 C 22.652344 41.019531 22.453125 40.773438 22.890625 40.664062 C 23.246094 40.664062 23.109375 41 23.140625 41.210938 C 23.363281 41.210938 23.761719 41.167969 23.769531 41.507812 C 23.773438 41.847656 23.464844 41.769531 23.214844 41.867188 Z M 23.222656 41.867188 "/>
<path style=" stroke:none;fill-rule:nonzero;fill:rgb(100%,100%,100%);fill-opacity:1;" d="M 28.09375 23.957031 C 28.050781 23.722656 27.988281 23.453125 27.957031 23.25 C 28.183594 23.25 28.324219 23.207031 28.472656 23.179688 L 28.410156 22.796875 C 28.226562 22.847656 28.183594 22.839844 27.921875 22.910156 C 27.875 22.675781 27.839844 22.476562 27.789062 22.203125 L 28.304688 22.152344 C 28.304688 22.039062 28.304688 21.910156 28.304688 21.792969 C 28.175781 21.792969 27.902344 21.855469 27.761719 21.90625 C 27.707031 21.65625 27.675781 21.402344 27.667969 21.148438 C 27.582031 21.148438 27.351562 21.1875 27.28125 21.21875 C 27.347656 21.449219 27.398438 21.6875 27.433594 21.925781 C 27.28125 21.925781 27.125 21.976562 26.890625 21.996094 L 26.941406 22.335938 C 27.125 22.335938 27.40625 22.230469 27.5 22.230469 C 27.542969 22.519531 27.582031 22.71875 27.605469 22.9375 C 27.429688 22.980469 27.25 23.007812 27.066406 23.023438 L 27.152344 23.40625 C 27.324219 23.371094 27.492188 23.328125 27.652344 23.269531 C 27.667969 23.523438 27.667969 23.777344 27.652344 24.027344 C 27.800781 24.019531 27.949219 23.996094 28.09375 23.957031 Z M 28.09375 23.957031 "/>
<path style=" stroke:none;fill-rule:nonzero;fill:rgb(100%,100%,100%);fill-opacity:1;" d="M 24.644531 45.308594 C 24.582031 45.261719 24.5 45.257812 24.433594 45.292969 C 24.363281 45.328125 24.324219 45.398438 24.324219 45.472656 C 24.328125 45.550781 24.375 45.621094 24.445312 45.648438 C 24.707031 45.753906 24.847656 45.378906 24.644531 45.308594 Z M 24.644531 45.308594 "/>
<path style=" stroke:none;fill-rule:nonzero;fill:rgb(100%,100%,100%);fill-opacity:1;" d="M 20.207031 23.269531 C 20.253906 23.171875 20.234375 23.058594 20.15625 22.980469 C 20.066406 22.980469 20.03125 22.910156 19.9375 22.980469 C 19.890625 23.078125 19.890625 23.195312 19.9375 23.292969 C 20.058594 23.363281 20.183594 23.363281 20.207031 23.269531 Z M 20.207031 23.269531 "/>
<path style=" stroke:none;fill-rule:nonzero;fill:rgb(100%,100%,100%);fill-opacity:1;" d="M 24.296875 38.230469 C 24.390625 38.253906 24.484375 38.203125 24.507812 38.109375 C 24.535156 38.019531 24.480469 37.921875 24.390625 37.898438 C 24.164062 37.820312 24.101562 38.230469 24.296875 38.230469 Z M 24.296875 38.230469 "/>
<path style=" stroke:none;fill-rule:nonzero;fill:rgb(100%,100%,100%);fill-opacity:1;" d="M 4.425781 23.09375 L 0.816406 21.0625 L 0.722656 21.59375 L 3.566406 23.128906 L 0.363281 23.589844 L 0.269531 24.121094 L 4.355469 23.453125 Z M 4.425781 23.09375 "/>
<path style=" stroke:none;fill-rule:nonzero;fill:rgb(100%,100%,100%);fill-opacity:1;" d="M 1.15625 19.878906 L 1.300781 19.375 L 5.058594 20.445312 L 4.914062 20.949219 Z M 1.15625 19.878906 "/>
<path style=" stroke:none;fill-rule:nonzero;fill:rgb(100%,100%,100%);fill-opacity:1;" d="M 6.09375 17.515625 L 5.671875 17.351562 L 5.210938 18.546875 L 1.988281 17.300781 L 1.804688 17.777344 L 5.453125 19.1875 Z M 6.09375 17.515625 "/>
<path style=" stroke:none;fill-rule:nonzero;fill:rgb(100%,100%,100%);fill-opacity:1;" d="M 6.636719 16.359375 L 3.980469 14.917969 L 7.472656 14.8125 L 7.742188 14.316406 L 4.304688 12.445312 L 4.066406 12.898438 L 6.722656 14.335938 L 3.226562 14.449219 L 2.957031 14.945312 L 6.398438 16.808594 Z M 6.636719 16.359375 "/>
<path style=" stroke:none;fill-rule:nonzero;fill:rgb(100%,100%,100%);fill-opacity:1;" d="M 5.230469 11.066406 L 5.53125 10.640625 L 8.726562 12.894531 L 8.425781 13.324219 Z M 5.230469 11.066406 "/>
<path style=" stroke:none;fill-rule:nonzero;fill:rgb(100%,100%,100%);fill-opacity:1;" d="M 9.527344 11.832031 L 9.21875 11.285156 L 10.269531 10.09375 L 10.855469 10.335938 L 11.210938 9.933594 L 7.378906 8.355469 L 7.132812 8.628906 L 9.167969 12.234375 Z M 7.882812 9.039062 L 9.8125 9.910156 L 8.96875 10.867188 Z M 7.882812 9.039062 "/>
<path style=" stroke:none;fill-rule:nonzero;fill:rgb(100%,100%,100%);fill-opacity:1;" d="M 12.644531 8.800781 C 12.929688 8.574219 13.109375 8.242188 13.144531 7.878906 C 13.175781 7.515625 13.054688 7.152344 12.816406 6.882812 L 11.117188 4.855469 L 10.730469 5.183594 L 12.425781 7.207031 C 12.648438 7.4375 12.726562 7.773438 12.621094 8.078125 C 12.519531 8.382812 12.257812 8.601562 11.941406 8.652344 C 11.621094 8.699219 11.304688 8.566406 11.117188 8.304688 L 9.457031 6.273438 L 9.070312 6.597656 L 10.765625 8.621094 C 10.988281 8.902344 11.3125 9.078125 11.667969 9.109375 C 12.023438 9.144531 12.375 9.03125 12.644531 8.800781 Z M 12.644531 8.800781 "/>
<path style=" stroke:none;fill-rule:nonzero;fill:rgb(100%,100%,100%);fill-opacity:1;" d="M 14.574219 5.1875 C 14.941406 5.105469 15.335938 5.019531 15.570312 5.414062 C 15.65625 5.585938 15.671875 5.78125 15.609375 5.960938 C 15.550781 6.140625 15.421875 6.289062 15.253906 6.371094 C 15.054688 6.507812 14.8125 6.554688 14.578125 6.496094 C 14.347656 6.4375 14.152344 6.28125 14.042969 6.066406 L 13.605469 6.371094 C 13.777344 6.695312 14.078125 6.929688 14.433594 7.015625 C 14.789062 7.101562 15.164062 7.035156 15.464844 6.824219 C 15.769531 6.6875 16 6.425781 16.097656 6.105469 C 16.199219 5.789062 16.164062 5.441406 15.996094 5.152344 C 15.597656 4.488281 14.921875 4.628906 14.261719 4.777344 C 13.875 4.871094 13.507812 4.925781 13.300781 4.582031 C 13.214844 4.425781 13.199219 4.246094 13.253906 4.078125 C 13.3125 3.910156 13.4375 3.777344 13.597656 3.710938 C 13.765625 3.601562 13.96875 3.570312 14.15625 3.621094 C 14.347656 3.671875 14.507812 3.796875 14.601562 3.972656 L 15.039062 3.710938 C 14.882812 3.421875 14.605469 3.214844 14.285156 3.140625 C 13.964844 3.0625 13.628906 3.128906 13.359375 3.320312 C 13.078125 3.449219 12.867188 3.695312 12.777344 3.988281 C 12.6875 4.285156 12.726562 4.605469 12.886719 4.871094 C 13.257812 5.480469 13.890625 5.351562 14.574219 5.1875 Z M 14.574219 5.1875 "/>
<path style=" stroke:none;fill-rule:nonzero;fill:rgb(100%,100%,100%);fill-opacity:1;" d="M 20.269531 4.734375 C 20.625 4.652344 20.925781 4.421875 21.105469 4.105469 C 21.285156 3.789062 21.328125 3.414062 21.222656 3.066406 L 20.515625 0.515625 L 20.058594 0.652344 L 20.765625 3.199219 C 20.882812 3.503906 20.820312 3.851562 20.597656 4.09375 C 20.378906 4.332031 20.039062 4.425781 19.722656 4.335938 C 19.410156 4.242188 19.179688 3.976562 19.125 3.652344 L 18.417969 1.105469 L 17.929688 1.238281 L 18.636719 3.789062 C 18.726562 4.132812 18.949219 4.425781 19.253906 4.605469 C 19.5625 4.785156 19.925781 4.832031 20.269531 4.734375 Z M 20.269531 4.734375 "/>
<path style=" stroke:none;fill-rule:nonzero;fill:rgb(100%,100%,100%);fill-opacity:1;" d="M 22.890625 4.09375 L 22.644531 1.074219 L 24.644531 3.949219 L 25.210938 3.902344 L 24.882812 0 L 24.382812 0.0429688 L 24.628906 3.058594 L 22.628906 0.183594 L 22.066406 0.234375 L 22.390625 4.132812 Z M 22.890625 4.09375 "/>
<path style=" stroke:none;fill-rule:nonzero;fill:rgb(100%,100%,100%);fill-opacity:1;" d="M 26.285156 3.964844 L 26.519531 0.0585938 L 27.042969 0.0898438 L 26.808594 3.996094 Z M 26.285156 3.964844 "/>
<path style=" stroke:none;fill-rule:nonzero;fill:rgb(100%,100%,100%);fill-opacity:1;" d="M 29.214844 4.339844 L 31.292969 0.75 L 30.761719 0.652344 L 29.195312 3.476562 L 28.777344 0.269531 L 28.246094 0.164062 L 28.855469 4.269531 Z M 29.214844 4.339844 "/>
<path style=" stroke:none;fill-rule:nonzero;fill:rgb(100%,100%,100%);fill-opacity:1;" d="M 33.117188 5.542969 L 33.277344 5.113281 L 31.695312 4.523438 L 32.132812 3.347656 L 33.71875 3.929688 L 33.871094 3.503906 L 32.289062 2.917969 L 32.734375 1.714844 L 34.316406 2.300781 L 34.472656 1.867188 L 32.417969 1.105469 L 31.058594 4.777344 Z M 33.117188 5.542969 "/>
<path style=" stroke:none;fill-rule:nonzero;fill:rgb(100%,100%,100%);fill-opacity:1;" d="M 34.375 6.160156 L 34.988281 5.074219 L 35.695312 5.472656 L 35.753906 6.9375 L 36.253906 7.226562 L 36.199219 5.664062 C 36.75 5.765625 37.300781 5.5 37.570312 5.003906 C 37.75 4.699219 37.800781 4.332031 37.703125 3.984375 C 37.609375 3.640625 37.375 3.351562 37.058594 3.1875 L 35.867188 2.476562 L 33.9375 5.910156 Z M 36.078125 3.15625 L 36.828125 3.589844 C 37.023438 3.703125 37.167969 3.890625 37.222656 4.109375 C 37.277344 4.332031 37.238281 4.566406 37.117188 4.757812 C 37.015625 4.960938 36.832031 5.113281 36.613281 5.179688 C 36.398438 5.246094 36.160156 5.21875 35.964844 5.105469 L 35.222656 4.671875 Z M 36.078125 3.15625 "/>
<path style=" stroke:none;fill-rule:nonzero;fill:rgb(100%,100%,100%);fill-opacity:1;" d="M 37.527344 6.605469 C 37.289062 6.878906 37.179688 7.242188 37.222656 7.601562 C 37.265625 7.964844 37.460938 8.289062 37.757812 8.496094 C 37.996094 8.730469 38.320312 8.855469 38.652344 8.839844 C 38.984375 8.824219 39.292969 8.667969 39.503906 8.410156 C 39.992188 7.800781 39.617188 7.214844 39.242188 6.65625 C 39.023438 6.320312 38.839844 5.996094 39.09375 5.679688 C 39.210938 5.546875 39.378906 5.472656 39.554688 5.472656 C 39.730469 5.472656 39.898438 5.546875 40.011719 5.679688 C 40.171875 5.796875 40.273438 5.976562 40.292969 6.171875 C 40.3125 6.367188 40.25 6.5625 40.121094 6.710938 L 40.550781 7.007812 C 40.765625 6.757812 40.863281 6.429688 40.820312 6.101562 C 40.777344 5.773438 40.597656 5.480469 40.324219 5.296875 C 40.105469 5.078125 39.800781 4.964844 39.492188 4.984375 C 39.183594 5 38.898438 5.152344 38.707031 5.394531 C 38.238281 5.976562 38.585938 6.519531 38.976562 7.109375 C 39.1875 7.417969 39.398438 7.765625 39.117188 8.121094 C 38.988281 8.265625 38.804688 8.351562 38.613281 8.359375 C 38.417969 8.367188 38.230469 8.292969 38.089844 8.15625 C 37.894531 8.019531 37.765625 7.804688 37.738281 7.570312 C 37.714844 7.332031 37.789062 7.09375 37.949219 6.917969 Z M 37.527344 6.605469 "/>
<path style=" stroke:none;fill-rule:nonzero;fill:rgb(100%,100%,100%);fill-opacity:1;" d="M 39.546875 9.984375 L 42.332031 7.238281 L 42.699219 7.613281 L 39.914062 10.359375 Z M 39.546875 9.984375 "/>
<path style=" stroke:none;fill-rule:nonzero;fill:rgb(100%,100%,100%);fill-opacity:1;" d="M 41.152344 11.753906 L 41.46875 12.15625 L 44.160156 9.996094 L 44.796875 10.789062 L 45.15625 10.5 L 43.566406 8.515625 L 43.214844 8.808594 L 43.84375 9.59375 Z M 41.152344 11.753906 "/>
<path style=" stroke:none;fill-rule:nonzero;fill:rgb(100%,100%,100%);fill-opacity:1;" d="M 43.652344 15.433594 L 44.042969 15.191406 L 43.164062 13.75 L 44.238281 13.097656 L 45.117188 14.542969 L 45.503906 14.300781 L 44.628906 12.855469 L 45.722656 12.191406 L 46.601562 13.636719 L 46.988281 13.394531 L 45.851562 11.519531 L 42.507812 13.550781 Z M 43.652344 15.433594 "/>
<path style=" stroke:none;fill-rule:nonzero;fill:rgb(100%,100%,100%);fill-opacity:1;" d="M 44.410156 17 L 44.621094 17.464844 L 47.765625 16.050781 L 48.183594 16.976562 L 48.597656 16.792969 L 47.566406 14.472656 L 47.144531 14.660156 L 47.5625 15.589844 Z M 44.410156 17 "/>
<path style=" stroke:none;fill-rule:nonzero;fill:rgb(100%,100%,100%);fill-opacity:1;" d="M 45.234375 18.972656 L 45.863281 18.972656 L 46.34375 20.488281 L 45.835938 20.871094 L 46 21.378906 L 49.3125 18.902344 L 49.199219 18.546875 L 45.066406 18.457031 Z M 48.472656 18.972656 L 46.742188 20.191406 L 46.351562 18.972656 Z M 48.472656 18.972656 "/>
<path style=" stroke:none;fill-rule:nonzero;fill:rgb(100%,100%,100%);fill-opacity:1;" d="M 48.996094 21.457031 C 48.289062 21.59375 48.167969 22.230469 48.078125 22.929688 C 48.035156 23.300781 47.96875 23.710938 47.519531 23.789062 C 47.324219 23.8125 47.132812 23.757812 46.980469 23.636719 C 46.828125 23.515625 46.734375 23.335938 46.71875 23.144531 C 46.660156 22.910156 46.707031 22.667969 46.839844 22.46875 C 46.976562 22.273438 47.191406 22.144531 47.425781 22.117188 L 47.335938 21.613281 C 46.972656 21.664062 46.648438 21.863281 46.445312 22.167969 C 46.242188 22.46875 46.175781 22.847656 46.265625 23.199219 C 46.292969 23.527344 46.449219 23.832031 46.707031 24.035156 C 46.960938 24.242188 47.292969 24.332031 47.617188 24.28125 C 48.378906 24.140625 48.480469 23.453125 48.570312 22.78125 C 48.621094 22.386719 48.691406 22.019531 49.09375 21.945312 C 49.265625 21.921875 49.441406 21.96875 49.578125 22.078125 C 49.710938 22.191406 49.792969 22.351562 49.800781 22.527344 C 49.839844 22.710938 49.800781 22.90625 49.695312 23.0625 C 49.589844 23.21875 49.425781 23.328125 49.242188 23.363281 L 49.335938 23.867188 C 49.652344 23.816406 49.9375 23.632812 50.117188 23.367188 C 50.300781 23.097656 50.359375 22.765625 50.289062 22.449219 C 50.265625 22.136719 50.113281 21.851562 49.863281 21.664062 C 49.617188 21.472656 49.300781 21.398438 48.996094 21.457031 Z M 48.996094 21.457031 "/>
<path style=" stroke:none;fill-rule:nonzero;fill:rgb(100%,100%,100%);fill-opacity:1;" d="M 21.238281 12.460938 L 21.238281 9.203125 L 20.835938 9.203125 C 20.835938 9.59375 20.722656 9.742188 20.128906 9.742188 L 20.128906 10.082031 L 20.785156 10.082031 L 20.785156 12.460938 Z M 21.238281 12.460938 "/>
<path style=" stroke:none;fill-rule:nonzero;fill:rgb(100%,100%,100%);fill-opacity:1;" d="M 25.789062 12.460938 L 26.242188 12.460938 L 27.691406 9.195312 L 25.667969 9.195312 L 25.667969 9.578125 L 27.082031 9.578125 Z M 25.789062 12.460938 "/>
<path style=" stroke:none;fill-rule:nonzero;fill:rgb(100%,100%,100%);fill-opacity:1;" d="M 29.449219 12.460938 L 30.417969 10.902344 C 30.542969 10.707031 30.613281 10.476562 30.613281 10.246094 C 30.613281 9.792969 30.34375 9.382812 29.925781 9.210938 C 29.507812 9.039062 29.027344 9.132812 28.707031 9.457031 C 28.386719 9.777344 28.292969 10.257812 28.46875 10.675781 C 28.644531 11.09375 29.054688 11.367188 29.503906 11.363281 C 29.574219 11.367188 29.644531 11.347656 29.703125 11.3125 L 28.960938 12.460938 Z M 29.5 10.980469 C 29.109375 10.980469 28.792969 10.664062 28.792969 10.273438 C 28.792969 9.882812 29.109375 9.566406 29.5 9.566406 C 29.890625 9.566406 30.207031 9.882812 30.207031 10.273438 C 30.207031 10.664062 29.890625 10.980469 29.5 10.980469 Z M 29.5 10.980469 "/>
<path style=" stroke:none;fill-rule:nonzero;fill:rgb(100%,100%,100%);fill-opacity:1;" d="M 18.699219 10.882812 C 18.699219 11.175781 18.464844 11.414062 18.171875 11.414062 C 17.878906 11.414062 17.640625 11.175781 17.640625 10.882812 C 17.640625 10.589844 17.878906 10.351562 18.171875 10.351562 C 18.464844 10.351562 18.699219 10.589844 18.699219 10.882812 Z M 18.699219 10.882812 "/>
<path style=" stroke:none;fill-rule:nonzero;fill:rgb(100%,100%,100%);fill-opacity:1;" d="M 33.117188 10.902344 C 33.117188 11.195312 32.878906 11.433594 32.585938 11.433594 C 32.292969 11.433594 32.058594 11.195312 32.058594 10.902344 C 32.058594 10.609375 32.292969 10.371094 32.585938 10.371094 C 32.878906 10.371094 33.117188 10.609375 33.117188 10.902344 Z M 33.117188 10.902344 "/>
<path style=" stroke:none;fill-rule:nonzero;fill:rgb(100%,100%,100%);fill-opacity:1;" d="M 2.929688 28.085938 C 2.929688 28.378906 2.691406 28.617188 2.398438 28.617188 C 2.105469 28.617188 1.867188 28.378906 1.867188 28.085938 C 1.867188 27.792969 2.105469 27.554688 2.398438 27.554688 C 2.691406 27.554688 2.929688 27.792969 2.929688 28.085938 Z M 2.929688 28.085938 "/>
<path style=" stroke:none;fill-rule:nonzero;fill:rgb(100%,100%,100%);fill-opacity:1;" d="M 49.179688 28.085938 C 49.179688 28.378906 48.941406 28.617188 48.648438 28.617188 C 48.355469 28.617188 48.117188 28.378906 48.117188 28.085938 C 48.117188 27.792969 48.355469 27.554688 48.648438 27.554688 C 48.941406 27.554688 49.179688 27.792969 49.179688 28.085938 Z M 49.179688 28.085938 "/>
<path style=" stroke:none;fill-rule:nonzero;fill:rgb(100%,100%,100%);fill-opacity:1;" d="M 23.875 10.222656 C 23.582031 10.207031 23.300781 10.328125 23.117188 10.554688 L 23.117188 9.566406 L 24.6875 9.566406 L 24.6875 9.203125 L 22.730469 9.203125 L 22.730469 11.007812 L 23.132812 11.007812 C 23.277344 10.707031 23.609375 10.550781 23.933594 10.628906 C 24.257812 10.707031 24.484375 11 24.472656 11.335938 C 24.488281 11.53125 24.417969 11.722656 24.285156 11.867188 C 24.152344 12.011719 23.964844 12.09375 23.769531 12.09375 C 23.476562 12.125 23.203125 11.9375 23.132812 11.652344 L 22.734375 11.652344 C 22.804688 12.15625 23.253906 12.515625 23.761719 12.472656 C 24.066406 12.484375 24.363281 12.367188 24.578125 12.148438 C 24.792969 11.929688 24.90625 11.632812 24.890625 11.328125 C 24.929688 11.039062 24.835938 10.75 24.640625 10.535156 C 24.445312 10.324219 24.164062 10.207031 23.875 10.222656 Z M 23.875 10.222656 "/>
<path style=" stroke:none;fill-rule:nonzero;fill:rgb(100%,100%,100%);fill-opacity:1;" d="M 59.996094 0.320312 L 60.703125 0.320312 L 60.703125 56 L 59.996094 56 Z M 59.996094 0.320312 "/>
<path style=" stroke:none;fill-rule:nonzero;fill:rgb(100%,100%,100%);fill-opacity:1;" d="M 69.523438 15.335938 L 71.777344 15.335938 L 73.65625 21.742188 L 75.535156 15.335938 L 77.792969 15.335938 L 74.746094 24.417969 L 72.570312 24.417969 Z M 69.523438 15.335938 "/>
<path style=" stroke:none;fill-rule:nonzero;fill:rgb(100%,100%,100%);fill-opacity:1;" d="M 78.199219 16.394531 C 78.191406 15.898438 78.484375 15.445312 78.941406 15.25 C 79.398438 15.054688 79.929688 15.152344 80.28125 15.503906 C 80.636719 15.855469 80.742188 16.382812 80.554688 16.84375 C 80.363281 17.304688 79.914062 17.601562 79.417969 17.601562 C 79.09375 17.605469 78.785156 17.480469 78.554688 17.253906 C 78.328125 17.027344 78.199219 16.71875 78.199219 16.394531 Z M 78.421875 18.160156 L 80.398438 18.160156 L 80.398438 24.410156 L 78.421875 24.410156 Z M 78.421875 18.160156 "/>
<path style=" stroke:none;fill-rule:nonzero;fill:rgb(100%,100%,100%);fill-opacity:1;" d="M 82.03125 15.335938 L 84.011719 15.335938 L 84.011719 24.417969 L 82.03125 24.417969 Z M 82.03125 15.335938 "/>
<path style=" stroke:none;fill-rule:nonzero;fill:rgb(100%,100%,100%);fill-opacity:1;" d="M 85.640625 18.160156 L 87.621094 18.160156 L 87.621094 19.066406 C 88.027344 18.34375 88.816406 17.921875 89.640625 17.988281 C 91.152344 17.988281 91.925781 18.847656 91.925781 20.546875 L 91.925781 24.410156 L 89.929688 24.410156 L 89.929688 21.195312 C 89.929688 20.148438 89.636719 19.667969 88.828125 19.667969 C 88.023438 19.667969 87.621094 20.183594 87.621094 21.148438 L 87.621094 24.417969 L 85.640625 24.417969 Z M 85.640625 18.160156 "/>
<path style=" stroke:none;fill-rule:nonzero;fill:rgb(100%,100%,100%);fill-opacity:1;" d="M 93.28125 16.394531 C 93.273438 15.898438 93.566406 15.445312 94.023438 15.25 C 94.480469 15.054688 95.007812 15.152344 95.363281 15.503906 C 95.714844 15.855469 95.824219 16.382812 95.632812 16.84375 C 95.441406 17.304688 94.992188 17.601562 94.496094 17.601562 C 94.175781 17.605469 93.863281 17.480469 93.636719 17.253906 C 93.40625 17.027344 93.277344 16.71875 93.28125 16.394531 Z M 93.5 18.160156 L 95.480469 18.160156 L 95.480469 24.410156 L 93.5 24.410156 Z M 93.5 18.160156 "/>
<path style=" stroke:none;fill-rule:nonzero;fill:rgb(100%,100%,100%);fill-opacity:1;" d="M 96.664062 21.289062 C 96.664062 19.417969 97.816406 17.996094 99.632812 17.996094 C 100.433594 17.949219 101.191406 18.363281 101.589844 19.058594 L 101.589844 18.160156 L 103.5625 18.160156 L 103.5625 24.410156 L 101.589844 24.410156 L 101.589844 23.53125 C 101.164062 24.210938 100.410156 24.609375 99.613281 24.582031 C 97.738281 24.585938 96.664062 23.171875 96.664062 21.289062 Z M 101.660156 21.289062 C 101.730469 20.714844 101.464844 20.152344 100.972656 19.839844 C 100.484375 19.53125 99.863281 19.53125 99.375 19.839844 C 98.886719 20.152344 98.617188 20.714844 98.6875 21.289062 C 98.644531 21.710938 98.78125 22.132812 99.066406 22.445312 C 99.347656 22.761719 99.753906 22.941406 100.179688 22.9375 C 100.601562 22.941406 101.007812 22.765625 101.292969 22.449219 C 101.574219 22.132812 101.710938 21.710938 101.660156 21.289062 Z M 101.660156 21.289062 "/>
<path style=" stroke:none;fill-rule:nonzero;fill:rgb(100%,100%,100%);fill-opacity:1;" d="M 105.132812 22.023438 L 105.132812 18.160156 L 107.136719 18.160156 L 107.136719 21.585938 C 107.136719 22.441406 107.421875 22.910156 108.175781 22.910156 C 108.933594 22.910156 109.386719 22.363281 109.386719 21.492188 L 109.386719 18.160156 L 111.355469 18.160156 L 111.355469 24.410156 L 109.378906 24.410156 L 109.378906 23.519531 C 108.996094 24.222656 108.234375 24.640625 107.433594 24.582031 C 105.9375 24.585938 105.132812 23.644531 105.132812 22.023438 Z M 105.132812 22.023438 "/>
<path style=" stroke:none;fill-rule:nonzero;fill:rgb(100%,100%,100%);fill-opacity:1;" d="M 112.539062 22.535156 L 114.507812 22.535156 C 114.507812 22.960938 114.925781 23.242188 115.535156 23.242188 C 115.964844 23.242188 116.242188 23.023438 116.242188 22.65625 C 116.253906 22.386719 116.054688 22.152344 115.789062 22.125 L 114.261719 21.734375 C 113.359375 21.617188 112.683594 20.839844 112.691406 19.929688 C 112.691406 18.761719 113.71875 17.945312 115.355469 17.945312 C 117.179688 17.945312 118.140625 18.710938 118.140625 19.894531 L 116.183594 19.894531 C 116.183594 19.453125 115.859375 19.1875 115.328125 19.1875 C 114.796875 19.1875 114.621094 19.390625 114.621094 19.703125 C 114.621094 20.015625 114.8125 20.167969 115.152344 20.261719 L 116.628906 20.664062 C 117.507812 20.78125 118.179688 21.519531 118.210938 22.40625 C 118.210938 23.6875 117.1875 24.53125 115.476562 24.53125 C 113.667969 24.609375 112.539062 23.71875 112.539062 22.535156 Z M 112.539062 22.535156 "/>
<path style=" stroke:none;fill-rule:nonzero;fill:rgb(100%,100%,100%);fill-opacity:1;" d="M 70.300781 37.59375 L 70.300781 33.726562 L 72.308594 33.726562 L 72.308594 37.152344 C 72.308594 38.011719 72.589844 38.476562 73.347656 38.476562 C 74.101562 38.476562 74.546875 37.933594 74.546875 37.0625 L 74.546875 33.726562 L 76.519531 33.726562 L 76.519531 39.980469 L 74.546875 39.980469 L 74.546875 39.085938 C 74.164062 39.792969 73.402344 40.207031 72.605469 40.148438 C 71.105469 40.148438 70.300781 39.214844 70.300781 37.59375 Z M 70.300781 37.59375 "/>
<path style=" stroke:none;fill-rule:nonzero;fill:rgb(100%,100%,100%);fill-opacity:1;" d="M 78.160156 33.726562 L 80.125 33.726562 L 80.125 34.632812 C 80.527344 33.910156 81.320312 33.488281 82.144531 33.558594 C 83.65625 33.558594 84.425781 34.414062 84.425781 36.113281 L 84.425781 39.980469 L 82.433594 39.980469 L 82.433594 36.765625 C 82.433594 35.71875 82.136719 35.234375 81.332031 35.234375 C 80.527344 35.234375 80.128906 35.753906 80.128906 36.714844 L 80.128906 39.984375 L 78.152344 39.984375 Z M 78.160156 33.726562 "/>
<path style=" stroke:none;fill-rule:nonzero;fill:rgb(100%,100%,100%);fill-opacity:1;" d="M 85.777344 31.964844 C 85.769531 31.464844 86.0625 31.011719 86.519531 30.816406 C 86.976562 30.621094 87.503906 30.722656 87.859375 31.074219 C 88.210938 31.421875 88.320312 31.953125 88.128906 32.410156 C 87.9375 32.871094 87.488281 33.171875 86.992188 33.167969 C 86.671875 33.175781 86.359375 33.050781 86.132812 32.824219 C 85.902344 32.597656 85.773438 32.285156 85.777344 31.964844 Z M 85.996094 33.726562 L 87.972656 33.726562 L 87.972656 39.980469 L 85.996094 39.980469 Z M 85.996094 33.726562 "/>
<path style=" stroke:none;fill-rule:nonzero;fill:rgb(100%,100%,100%);fill-opacity:1;" d="M 88.78125 33.726562 L 90.96875 33.726562 L 92.382812 37.65625 L 93.796875 33.726562 L 96 33.726562 L 93.296875 39.980469 L 91.507812 39.980469 Z M 88.78125 33.726562 "/>
<path style=" stroke:none;fill-rule:nonzero;fill:rgb(100%,100%,100%);fill-opacity:1;" d="M 102.546875 37.402344 L 97.9375 37.402344 C 97.941406 37.773438 98.101562 38.125 98.382812 38.371094 C 98.660156 38.617188 99.03125 38.730469 99.402344 38.683594 C 100.007812 38.683594 100.398438 38.488281 100.566406 38.101562 L 102.511719 38.101562 C 102.320312 39.335938 101.0625 40.175781 99.402344 40.175781 C 97.28125 40.175781 95.964844 38.945312 95.964844 36.855469 C 95.90625 35.953125 96.246094 35.066406 96.890625 34.429688 C 97.539062 33.796875 98.429688 33.472656 99.328125 33.550781 C 101.273438 33.550781 102.59375 34.769531 102.59375 36.53125 C 102.597656 36.820312 102.578125 37.113281 102.546875 37.402344 Z M 100.617188 36.167969 C 100.648438 35.8125 100.519531 35.460938 100.261719 35.207031 C 100.007812 34.957031 99.652344 34.835938 99.292969 34.875 C 98.929688 34.832031 98.566406 34.953125 98.292969 35.199219 C 98.023438 35.449219 97.871094 35.800781 97.882812 36.167969 Z M 100.617188 36.167969 "/>
<path style=" stroke:none;fill-rule:nonzero;fill:rgb(100%,100%,100%);fill-opacity:1;" d="M 103.734375 33.726562 L 105.710938 33.726562 L 105.710938 35.039062 C 105.871094 34.210938 106.59375 33.617188 107.433594 33.621094 C 107.609375 33.613281 107.78125 33.632812 107.953125 33.671875 L 107.953125 35.511719 C 107.753906 35.484375 107.554688 35.46875 107.359375 35.46875 C 106.390625 35.46875 105.710938 36.054688 105.710938 37.59375 L 105.710938 40.007812 L 103.734375 40.007812 Z M 103.734375 33.726562 "/>
<path style=" stroke:none;fill-rule:nonzero;fill:rgb(100%,100%,100%);fill-opacity:1;" d="M 108.472656 38.101562 L 110.445312 38.101562 C 110.445312 38.527344 110.863281 38.8125 111.46875 38.8125 C 111.894531 38.8125 112.175781 38.589844 112.175781 38.222656 C 112.191406 37.953125 111.992188 37.722656 111.726562 37.691406 L 110.199219 37.300781 C 109.296875 37.183594 108.621094 36.410156 108.628906 35.496094 C 108.628906 34.328125 109.652344 33.515625 111.292969 33.515625 C 113.117188 33.515625 114.078125 34.28125 114.078125 35.460938 L 112.132812 35.460938 C 112.132812 35.023438 111.808594 34.753906 111.28125 34.753906 C 110.75 34.753906 110.574219 34.960938 110.574219 35.269531 C 110.574219 35.582031 110.765625 35.738281 111.101562 35.832031 L 112.578125 36.234375 C 113.457031 36.351562 114.125 37.082031 114.164062 37.96875 C 114.164062 39.25 113.136719 40.09375 111.429688 40.09375 C 109.597656 40.175781 108.472656 39.277344 108.472656 38.101562 Z M 108.472656 38.101562 "/>
<path style=" stroke:none;fill-rule:nonzero;fill:rgb(100%,100%,100%);fill-opacity:1;" d="M 115.167969 31.964844 C 115.15625 31.464844 115.449219 31.011719 115.90625 30.816406 C 116.363281 30.621094 116.894531 30.722656 117.246094 31.074219 C 117.601562 31.421875 117.707031 31.953125 117.519531 32.410156 C 117.328125 32.871094 116.878906 33.171875 116.382812 33.167969 C 116.058594 33.175781 115.75 33.050781 115.519531 32.824219 C 115.292969 32.597656 115.164062 32.285156 115.167969 31.964844 Z M 115.386719 33.726562 L 117.363281 33.726562 L 117.363281 39.980469 L 115.386719 39.980469 Z M 115.386719 33.726562 "/>
<path style=" stroke:none;fill-rule:nonzero;fill:rgb(100%,100%,100%);fill-opacity:1;" d="M 122.960938 38.398438 L 122.960938 39.980469 C 122.523438 40.050781 122.082031 40.085938 121.640625 40.085938 C 120.707031 40.085938 119.425781 39.878906 119.425781 37.792969 L 119.425781 35.300781 L 118.445312 35.300781 L 118.445312 33.726562 L 119.425781 33.726562 L 119.425781 31.859375 L 121.40625 31.859375 L 121.40625 33.714844 L 122.820312 33.714844 L 122.820312 35.285156 L 121.40625 35.285156 L 121.40625 37.359375 C 121.40625 38.28125 121.78125 38.421875 122.273438 38.421875 C 122.503906 38.429688 122.734375 38.421875 122.960938 38.398438 Z M 122.960938 38.398438 "/>
<path style=" stroke:none;fill-rule:nonzero;fill:rgb(100%,100%,100%);fill-opacity:1;" d="M 130.191406 37.402344 L 125.582031 37.402344 C 125.585938 37.773438 125.746094 38.125 126.027344 38.371094 C 126.304688 38.617188 126.675781 38.730469 127.046875 38.683594 C 127.652344 38.683594 128.042969 38.488281 128.210938 38.101562 L 130.152344 38.101562 C 129.964844 39.335938 128.707031 40.175781 127.046875 40.175781 C 124.925781 40.175781 123.609375 38.945312 123.609375 36.855469 C 123.550781 35.949219 123.890625 35.0625 124.539062 34.429688 C 125.1875 33.792969 126.078125 33.472656 126.980469 33.550781 C 128.925781 33.550781 130.246094 34.769531 130.246094 36.53125 C 130.246094 36.820312 130.226562 37.113281 130.191406 37.402344 Z M 128.289062 36.167969 C 128.320312 35.8125 128.191406 35.460938 127.933594 35.207031 C 127.679688 34.957031 127.324219 34.835938 126.96875 34.875 C 126.601562 34.832031 126.238281 34.953125 125.96875 35.199219 C 125.695312 35.449219 125.546875 35.800781 125.554688 36.167969 Z M 128.289062 36.167969 "/>
<path style=" stroke:none;fill-rule:nonzero;fill:rgb(100%,100%,100%);fill-opacity:1;" d="M 135.320312 38.398438 L 135.320312 39.980469 C 134.882812 40.050781 134.441406 40.085938 134 40.085938 C 133.066406 40.085938 131.785156 39.878906 131.785156 37.792969 L 131.785156 35.300781 L 130.804688 35.300781 L 130.804688 33.726562 L 131.785156 33.726562 L 131.785156 31.859375 L 133.765625 31.859375 L 133.765625 33.714844 L 135.179688 33.714844 L 135.179688 35.285156 L 133.765625 35.285156 L 133.765625 37.359375 C 133.765625 38.28125 134.140625 38.421875 134.632812 38.421875 C 134.863281 38.429688 135.09375 38.421875 135.320312 38.398438 Z M 135.320312 38.398438 "/>
<path style=" stroke:none;fill-rule:nonzero;fill:rgb(100%,100%,100%);fill-opacity:1;" d="M 135.949219 36.855469 C 135.949219 34.988281 137.101562 33.566406 138.917969 33.566406 C 139.71875 33.519531 140.472656 33.929688 140.875 34.625 L 140.875 33.726562 L 142.847656 33.726562 L 142.847656 39.980469 L 140.894531 39.980469 L 140.894531 39.101562 C 140.46875 39.777344 139.714844 40.179688 138.917969 40.148438 C 137.035156 40.148438 135.949219 38.734375 135.949219 36.855469 Z M 140.945312 36.855469 C 141.011719 36.28125 140.746094 35.71875 140.257812 35.410156 C 139.769531 35.101562 139.144531 35.101562 138.65625 35.410156 C 138.167969 35.71875 137.902344 36.28125 137.96875 36.855469 C 137.925781 37.28125 138.066406 37.707031 138.355469 38.023438 C 138.644531 38.339844 139.054688 38.515625 139.480469 38.507812 C 139.90625 38.507812 140.308594 38.328125 140.589844 38.015625 C 140.875 37.699219 141.007812 37.277344 140.957031 36.855469 Z M 140.945312 36.855469 "/>
<path style=" stroke:none;fill-rule:nonzero;fill:rgb(100%,100%,100%);fill-opacity:1;" d="M 144.039062 38.101562 L 146.011719 38.101562 C 146.011719 38.527344 146.429688 38.8125 147.035156 38.8125 C 147.46875 38.8125 147.742188 38.589844 147.742188 38.222656 C 147.753906 37.953125 147.558594 37.722656 147.289062 37.691406 L 145.765625 37.300781 C 144.859375 37.183594 144.1875 36.410156 144.195312 35.496094 C 144.195312 34.328125 145.21875 33.515625 146.859375 33.515625 C 148.683594 33.515625 149.644531 34.28125 149.644531 35.460938 L 147.6875 35.460938 C 147.6875 35.023438 147.359375 34.753906 146.832031 34.753906 C 146.300781 34.753906 146.125 34.960938 146.125 35.269531 C 146.125 35.582031 146.316406 35.738281 146.65625 35.832031 L 148.132812 36.234375 C 149.007812 36.351562 149.675781 37.082031 149.714844 37.96875 C 149.714844 39.25 148.691406 40.09375 146.980469 40.09375 C 145.136719 40.175781 144.039062 39.277344 144.039062 38.101562 Z M 144.039062 38.101562 "/>
</g>
</svg>
