<?xml version="1.0" encoding="UTF-8"?>
<svg xmlns="http://www.w3.org/2000/svg" xmlns:xlink="http://www.w3.org/1999/xlink" width="150px" height="69px" viewBox="0 0 149 69" version="1.1">
<g id="surface1">
<path style=" stroke:none;fill-rule:nonzero;fill:rgb(98.823529%,98.823529%,98.823529%);fill-opacity:1;" d="M 74.042969 0.609375 L 74.761719 0.609375 L 74.761719 68.371094 L 74.042969 68.371094 Z M 74.042969 0.609375 "/>
<path style=" stroke:none;fill-rule:nonzero;fill:rgb(98.823529%,98.823529%,98.823529%);fill-opacity:1;" d="M 6.316406 43.128906 L 9.402344 42.5 L 9.25 41.867188 L 6.167969 42.5 C 5.597656 42.648438 5.058594 42.289062 4.910156 41.71875 C 4.761719 41.148438 5.121094 40.605469 5.6875 40.457031 L 5.777344 40.457031 L 8.863281 39.824219 L 8.710938 39.195312 L 5.628906 39.824219 C 4.761719 39.976562 4.191406 40.785156 4.3125 41.65625 L 4.3125 41.808594 C 4.460938 42.679688 5.269531 43.25 6.136719 43.128906 Z M 6.316406 43.128906 "/>
<path style=" stroke:none;fill-rule:nonzero;fill:rgb(98.823529%,98.823529%,98.823529%);fill-opacity:1;" d="M 10.71875 46.496094 L 7.277344 47.757812 L 10.03125 44.453125 L 9.761719 43.820312 L 5.300781 45.445312 L 5.539062 45.984375 L 8.980469 44.8125 L 6.316406 48.058594 L 6.527344 48.6875 L 10.929688 47.066406 Z M 10.71875 46.496094 "/>
<path style=" stroke:none;fill-rule:nonzero;fill:rgb(98.823529%,98.823529%,98.823529%);fill-opacity:1;" d="M 7.414062 50.53125 L 11.613281 48.414062 L 11.894531 48.976562 L 7.695312 51.09375 Z M 7.414062 50.53125 "/>
<path style=" stroke:none;fill-rule:nonzero;fill:rgb(98.823529%,98.823529%,98.823529%);fill-opacity:1;" d="M 13.953125 52.503906 L 10.179688 53.496094 L 12.636719 50.371094 L 12.277344 49.890625 L 9.25 53.828125 L 9.460938 54.1875 L 14.3125 53.015625 Z M 13.953125 52.503906 "/>
<path style=" stroke:none;fill-rule:nonzero;fill:rgb(98.823529%,98.823529%,98.823529%);fill-opacity:1;" d="M 13.355469 55.960938 L 14.671875 57.433594 L 15.089844 57.074219 L 13.773438 55.601562 L 14.878906 54.546875 L 16.226562 56.109375 L 16.648438 55.75 L 14.878906 53.707031 L 11.378906 56.832031 L 13.113281 58.847656 L 13.472656 58.515625 L 12.125 56.953125 Z M 13.355469 55.960938 "/>
<path style=" stroke:none;fill-rule:nonzero;fill:rgb(98.823529%,98.823529%,98.823529%);fill-opacity:1;" d="M 18.832031 57.734375 L 17.574219 56.683594 L 14.550781 60.289062 L 15.058594 60.707031 L 16.019531 59.597656 L 16.796875 60.226562 L 16.496094 62 L 17.066406 62.421875 L 17.367188 60.527344 C 18.203125 60.828125 19.101562 60.378906 19.402344 59.566406 C 19.550781 58.847656 19.3125 58.15625 18.832031 57.734375 Z M 18.535156 59.628906 C 18.175781 60.046875 17.605469 60.136719 17.125 59.835938 L 17.066406 59.835938 L 16.289062 59.117188 L 17.605469 57.492188 L 18.382812 58.214844 C 18.804688 58.484375 18.953125 59.027344 18.683594 59.417969 C 18.652344 59.507812 18.59375 59.566406 18.535156 59.628906 C 18.625 59.566406 18.625 59.628906 18.535156 59.628906 Z M 18.535156 59.628906 "/>
<path style=" stroke:none;fill-rule:nonzero;fill:rgb(98.823529%,98.823529%,98.823529%);fill-opacity:1;" d="M 22.1875 60.078125 C 21.585938 59.65625 20.808594 59.777344 20.359375 60.378906 C 20.359375 60.4375 20.300781 60.4375 20.300781 60.527344 C 19.789062 61.308594 20.359375 61.851562 20.929688 62.511719 C 21.226562 62.871094 21.558594 63.234375 21.289062 63.714844 C 21.046875 64.105469 20.539062 64.253906 20.179688 64.015625 C 20.148438 64.015625 20.121094 63.984375 20.121094 63.953125 C 19.640625 63.714844 19.433594 63.144531 19.671875 62.660156 L 19.671875 62.601562 C 19.671875 62.570312 19.699219 62.542969 19.730469 62.542969 L 19.191406 62.089844 C 18.714844 62.78125 18.863281 63.683594 19.550781 64.164062 L 19.609375 64.195312 C 19.671875 64.195312 19.671875 64.253906 19.761719 64.253906 C 20.390625 64.734375 21.257812 64.613281 21.738281 63.953125 C 21.738281 63.894531 21.796875 63.894531 21.796875 63.804688 C 22.304688 63.023438 21.738281 62.332031 21.167969 61.761719 C 20.808594 61.398438 20.539062 61.039062 20.808594 60.648438 C 21.019531 60.316406 21.46875 60.226562 21.765625 60.4375 C 21.796875 60.4375 21.828125 60.46875 21.828125 60.5 C 22.214844 60.679688 22.394531 61.128906 22.214844 61.488281 L 22.214844 61.550781 C 22.214844 61.609375 22.15625 61.609375 22.15625 61.699219 L 22.726562 62 C 23.144531 61.339844 22.933594 60.46875 22.277344 60.046875 L 22.1875 60.078125 C 22.335938 60.078125 22.277344 60.078125 22.1875 60.078125 Z M 22.1875 60.078125 "/>
<path style=" stroke:none;fill-rule:nonzero;fill:rgb(98.823529%,98.823529%,98.823529%);fill-opacity:1;" d="M 22.886719 65.804688 L 24.738281 61.464844 L 25.316406 61.714844 L 23.464844 66.050781 Z M 22.886719 65.804688 "/>
<path style=" stroke:none;fill-rule:nonzero;fill:rgb(98.823529%,98.823529%,98.823529%);fill-opacity:1;" d="M 29.164062 62.960938 L 26.226562 62.121094 L 26.078125 62.601562 L 27.1875 62.960938 L 26.078125 66.988281 L 26.617188 67.109375 L 27.84375 63.171875 L 28.953125 63.535156 Z M 29.164062 62.960938 "/>
<path style=" stroke:none;fill-rule:nonzero;fill:rgb(98.823529%,98.823529%,98.823529%);fill-opacity:1;" d="M 30.777344 63.234375 L 28.535156 67.679688 L 29.164062 67.742188 L 29.523438 67.019531 L 31.40625 67.320312 L 31.558594 68.101562 L 32.1875 68.160156 L 31.226562 63.234375 Z M 29.792969 66.539062 L 30.898438 64.195312 L 31.316406 66.75 Z M 29.792969 66.539062 "/>
<path style=" stroke:none;fill-rule:nonzero;fill:rgb(98.823529%,98.823529%,98.823529%);fill-opacity:1;" d="M 35.152344 65.425781 C 34.640625 65.277344 34.253906 65.125 34.253906 64.644531 C 34.253906 64.132812 34.613281 63.925781 35.121094 63.863281 C 35.570312 63.832031 35.988281 64.132812 36.019531 64.585938 L 36.019531 64.734375 L 36.648438 64.734375 C 36.648438 63.953125 36.019531 63.324219 35.242188 63.324219 L 35.089844 63.324219 C 34.371094 63.261719 33.773438 63.804688 33.683594 64.523438 L 33.683594 64.675781 C 33.683594 65.578125 34.460938 65.789062 35.300781 65.996094 C 35.71875 66.148438 36.199219 66.296875 36.199219 66.867188 C 36.199219 67.351562 35.839844 67.710938 35.359375 67.742188 L 35.269531 67.742188 C 34.730469 67.800781 34.253906 67.410156 34.164062 66.867188 L 34.164062 66.71875 L 33.535156 66.71875 C 33.535156 67.589844 34.253906 68.25 35.089844 68.28125 L 35.242188 68.28125 C 36.019531 68.371094 36.707031 67.800781 36.765625 67.019531 L 36.765625 66.839844 C 36.765625 65.847656 35.898438 65.636719 35.152344 65.425781 Z M 35.152344 65.425781 "/>
<path style=" stroke:none;fill-rule:nonzero;fill:rgb(98.823529%,98.823529%,98.823529%);fill-opacity:1;" d="M 42.457031 65.847656 L 40.121094 62.660156 L 39.492188 62.871094 L 42.546875 66.898438 L 42.964844 66.75 L 43.023438 61.761719 L 42.457031 61.972656 Z M 42.457031 65.847656 "/>
<path style=" stroke:none;fill-rule:nonzero;fill:rgb(98.823529%,98.823529%,98.823529%);fill-opacity:1;" d="M 43.835938 61.28125 L 44.402344 61.007812 L 46.425781 65.265625 L 45.859375 65.539062 Z M 43.835938 61.28125 "/>
<path style=" stroke:none;fill-rule:nonzero;fill:rgb(98.823529%,98.823529%,98.823529%);fill-opacity:1;" d="M 48.503906 63.59375 L 46.347656 59.988281 L 45.75 60.347656 L 48.292969 64.34375 L 50.121094 63.234375 L 49.792969 62.722656 Z M 48.503906 63.59375 "/>
<path style=" stroke:none;fill-rule:nonzero;fill:rgb(98.823529%,98.823529%,98.823529%);fill-opacity:1;" d="M 50.539062 56.832031 L 52.9375 59.566406 L 48.921875 58.246094 L 48.445312 58.664062 L 51.46875 62.269531 L 51.976562 61.820312 L 49.550781 59.054688 L 53.5625 60.4375 L 54.042969 59.988281 L 51.050781 56.382812 Z M 50.539062 56.832031 "/>
<path style=" stroke:none;fill-rule:nonzero;fill:rgb(98.823529%,98.823529%,98.823529%);fill-opacity:1;" d="M 55.539062 57.582031 L 54.402344 56.621094 L 55.691406 55.058594 L 55.269531 54.699219 L 53.984375 56.261719 L 52.785156 55.238281 L 54.132812 53.707031 L 53.714844 53.347656 L 51.976562 55.390625 L 55.628906 58.457031 L 57.308594 56.382812 L 56.886719 56.019531 Z M 55.539062 57.582031 "/>
<path style=" stroke:none;fill-rule:nonzero;fill:rgb(98.823529%,98.823529%,98.823529%);fill-opacity:1;" d="M 55.871094 49.890625 L 59.074219 51.785156 L 54.820312 51.722656 L 54.492188 52.296875 L 58.503906 54.789062 L 58.773438 54.1875 L 55.691406 52.296875 L 59.882812 52.445312 L 60.242188 51.785156 L 56.230469 49.351562 Z M 55.871094 49.890625 "/>
<path style=" stroke:none;fill-rule:nonzero;fill:rgb(98.823529%,98.823529%,98.823529%);fill-opacity:1;" d="M 61.167969 46.644531 C 60.300781 46.285156 59.761719 46.945312 59.191406 47.546875 C 58.832031 47.90625 58.566406 48.269531 58.144531 48.058594 C 57.785156 47.90625 57.605469 47.488281 57.757812 47.15625 L 57.757812 47.097656 C 57.757812 47.066406 57.785156 47.035156 57.816406 47.035156 C 57.964844 46.617188 58.445312 46.34375 58.863281 46.464844 C 58.921875 46.464844 58.921875 46.464844 59.011719 46.527344 L 59.222656 45.953125 C 58.566406 45.625 57.757812 45.894531 57.425781 46.585938 L 57.398438 46.675781 C 57.398438 46.734375 57.398438 46.734375 57.335938 46.824219 C 56.976562 47.425781 57.1875 48.179688 57.785156 48.539062 L 57.90625 48.597656 C 57.964844 48.597656 57.964844 48.660156 58.054688 48.660156 C 58.921875 49.019531 59.371094 48.449219 59.941406 47.757812 C 60.242188 47.398438 60.570312 47.035156 61.050781 47.246094 C 61.46875 47.425781 61.679688 47.9375 61.5 48.359375 C 61.5 48.386719 61.46875 48.417969 61.4375 48.417969 C 61.257812 48.929688 60.691406 49.230469 60.179688 49.050781 C 60.121094 49.050781 60.089844 49.019531 60.03125 48.988281 L 59.820312 49.558594 C 60.601562 49.921875 61.5 49.558594 61.859375 48.777344 C 61.859375 48.71875 61.917969 48.71875 61.917969 48.628906 C 62.308594 47.96875 62.066406 47.125 61.410156 46.734375 C 61.320312 46.644531 61.257812 46.644531 61.167969 46.644531 Z M 61.167969 46.644531 "/>
<path style=" stroke:none;fill-rule:nonzero;fill:rgb(98.823529%,98.823529%,98.823529%);fill-opacity:1;" d="M 58.433594 44.027344 L 58.613281 43.421875 L 63.117188 44.777344 L 62.933594 45.382812 Z M 58.433594 44.027344 "/>
<path style=" stroke:none;fill-rule:nonzero;fill:rgb(98.823529%,98.823529%,98.823529%);fill-opacity:1;" d="M 62.9375 39.675781 C 62.039062 39.464844 61.617188 40.246094 61.167969 40.9375 C 60.960938 41.355469 60.660156 41.71875 60.210938 41.65625 C 59.820312 41.597656 59.550781 41.207031 59.640625 40.816406 L 59.640625 40.726562 C 59.703125 40.273438 60.121094 39.945312 60.539062 40.003906 L 60.691406 40.003906 L 60.839844 39.375 C 60.089844 39.253906 59.371094 39.703125 59.164062 40.425781 L 59.164062 40.574219 C 58.953125 41.265625 59.371094 41.988281 60.0625 42.199219 L 60.242188 42.199219 C 61.140625 42.347656 61.5 41.6875 61.917969 40.9375 C 62.128906 40.515625 62.425781 40.066406 62.875 40.214844 C 63.355469 40.304688 63.65625 40.757812 63.59375 41.175781 C 63.59375 41.238281 63.59375 41.238281 63.535156 41.328125 C 63.476562 41.867188 62.996094 42.226562 62.457031 42.199219 L 62.277344 42.199219 L 62.128906 42.828125 C 62.9375 43.039062 63.746094 42.527344 63.953125 41.746094 L 63.953125 41.566406 C 64.222656 40.847656 63.863281 40.09375 63.144531 39.824219 L 63.117188 39.824219 C 63.085938 39.675781 62.996094 39.675781 62.9375 39.675781 Z M 62.9375 39.675781 "/>
<path style=" stroke:none;fill-rule:nonzero;fill:rgb(98.823529%,98.823529%,98.823529%);fill-opacity:1;" d="M 28.953125 47.214844 C 29.101562 47.277344 29.164062 47.214844 29.253906 47.15625 C 29.3125 47.097656 29.253906 46.945312 29.191406 46.855469 L 29.132812 46.855469 C 28.984375 46.796875 28.921875 46.855469 28.832031 46.917969 C 28.773438 46.976562 28.832031 47.125 28.894531 47.214844 Z M 28.953125 47.214844 "/>
<path style=" stroke:none;fill-rule:nonzero;fill:rgb(98.823529%,98.823529%,98.823529%);fill-opacity:1;" d="M 51.378906 37.960938 L 51.378906 19.179688 L 16.707031 19.121094 C 16.707031 26.691406 16.648438 34.386719 16.648438 41.867188 L 37.1875 41.867188 C 37.484375 40.546875 39.164062 38.921875 38.292969 37.332031 L 37.335938 36.128906 C 37.636719 36.039062 37.933594 35.917969 38.203125 35.769531 L 39.3125 36.820312 C 39.402344 37.210938 39.523438 37.601562 39.671875 37.929688 C 39.191406 38.804688 38.804688 39.703125 38.625 40.664062 C 38.265625 40.726562 38.113281 41.027344 38.265625 41.71875 L 39.371094 41.71875 C 39.433594 40.847656 39.941406 40.394531 40.242188 39.585938 C 40.601562 38.683594 40.660156 37.691406 40.242188 37.179688 C 39.460938 36.550781 38.773438 35.859375 37.90625 35.136719 C 37.84375 35.136719 37.695312 34.988281 37.605469 35.078125 C 37.546875 35.136719 37.753906 35.4375 37.90625 35.496094 C 36.289062 36.21875 34.761719 36.007812 33.054688 35.796875 C 33.023438 35.4375 33.085938 35.078125 33.203125 34.746094 C 33.414062 35.015625 33.59375 35.285156 33.714844 35.617188 C 33.984375 35.316406 34.222656 34.988281 34.433594 34.65625 L 35.390625 35.707031 C 35.449219 34.894531 35.601562 34.144531 35.808594 33.363281 C 36.527344 33.515625 37.277344 33.664062 37.996094 33.722656 C 38.054688 34.144531 37.933594 34.835938 38.292969 34.835938 C 38.652344 34.835938 38.503906 33.964844 38.445312 33.722656 C 38.832031 33.785156 39.253906 33.785156 39.640625 33.722656 C 39.703125 34.144531 39.640625 34.777344 40 34.6875 C 40.359375 34.625 40.152344 33.964844 40.152344 33.632812 C 40.511719 33.632812 40.871094 33.574219 41.199219 33.425781 C 40.570312 34.65625 40.75 36.160156 41.707031 37.238281 L 40.75 40.757812 C 40.390625 40.90625 40.332031 41.175781 40.539062 41.808594 L 51.4375 41.808594 C 51.378906 40.847656 51.378906 39.3125 51.378906 37.960938 Z M 32.304688 21.585938 L 32.515625 20.53125 L 32.816406 21.585938 L 38.144531 21.375 L 39.613281 21.792969 L 38.144531 22.15625 L 32.816406 22.15625 L 32.664062 23.265625 L 32.367188 22.304688 L 32.15625 22.304688 C 32.246094 22.066406 32.214844 21.792969 32.097656 21.585938 Z M 29.523438 32.824219 C 30.152344 32.523438 30.808594 32.402344 31.496094 32.460938 C 31.558594 32.613281 31.585938 32.734375 31.558594 32.882812 C 30.777344 32.914062 30.03125 33.0625 29.3125 33.304688 C 29.28125 33.125 29.371094 32.941406 29.523438 32.824219 Z M 29.371094 30.988281 C 30.269531 30.238281 31.347656 29.699219 32.457031 29.367188 C 32.515625 29.367188 32.605469 29.425781 32.664062 29.425781 C 31.378906 29.96875 30.242188 30.871094 29.433594 32.042969 C 29.371094 31.679688 29.371094 31.320312 29.371094 30.988281 Z M 29.730469 32.253906 C 30.449219 31.109375 31.496094 30.207031 32.753906 29.699219 C 32.753906 30.058594 32.90625 30.417969 33.175781 30.597656 L 32.214844 31.5625 L 31.585938 32.070312 C 30.929688 32.070312 30.300781 32.132812 29.730469 32.253906 Z M 34.132812 25.609375 C 34.671875 24.917969 34.730469 23.957031 34.28125 23.207031 C 34.792969 23.085938 35.269531 23.117188 35.75 23.265625 C 35.898438 23.957031 35.75 24.621094 35.332031 25.160156 L 35.628906 25.582031 C 35.269531 25.671875 34.910156 25.730469 34.582031 25.730469 C 34.582031 26.121094 34.582031 26.511719 34.640625 26.84375 C 34.34375 26.902344 34.011719 26.992188 33.683594 27.054688 C 33.683594 26.542969 33.863281 26.03125 34.132812 25.609375 Z M 34.011719 25.191406 C 33.652344 24.769531 33.503906 24.257812 33.59375 23.71875 C 33.59375 23.507812 33.742188 23.328125 33.953125 23.296875 C 34.371094 23.566406 34.433594 24.980469 34.011719 25.191406 Z M 34.730469 27.171875 C 34.820312 27.65625 34.941406 28.105469 35.089844 28.585938 C 34.792969 28.644531 34.3125 28.886719 33.894531 29.007812 C 33.742188 28.496094 33.683594 27.984375 33.683594 27.445312 C 34.011719 27.414062 34.371094 27.292969 34.730469 27.171875 Z M 35.210938 28.945312 C 35.269531 29.125 35.359375 29.308594 35.511719 29.457031 C 34.761719 29.757812 34.074219 30.117188 33.382812 30.507812 C 33.175781 30.296875 32.875 29.878906 33.175781 29.636719 Z M 32.1875 32.042969 L 33.144531 32.761719 L 33.144531 32.914062 L 31.828125 32.851562 C 31.828125 32.703125 31.765625 32.492188 31.765625 32.34375 C 31.917969 32.253906 32.066406 32.101562 32.1875 32.042969 Z M 32.457031 31.800781 C 33.292969 30.839844 34.34375 30.117188 35.539062 29.667969 C 35.75 30 35.988281 30.328125 36.257812 30.570312 C 35.988281 30.871094 35.660156 31.109375 35.300781 31.199219 C 34.582031 31.5625 33.683594 32.402344 33.414062 32.523438 Z M 34.941406 26.03125 L 37.753906 25.609375 C 38.175781 26.664062 38.324219 29.847656 37.1875 30.839844 C 35.898438 30.207031 35 27.714844 34.941406 26.03125 Z M 31.496094 21.585938 C 31.765625 21.644531 31.945312 21.886719 31.917969 22.15625 C 31.886719 22.335938 31.796875 22.515625 31.707031 22.667969 C 31.707031 23.175781 31.855469 24.347656 31.917969 25.160156 L 33.804688 25.941406 C 33.652344 26.242188 33.535156 26.542969 33.503906 26.84375 L 31.019531 25.792969 C 31.019531 24.738281 31.019531 23.746094 31.078125 22.695312 C 30.867188 22.484375 30.808594 22.183594 30.929688 21.914062 C 31.078125 21.675781 31.289062 21.554688 31.496094 21.585938 Z M 30.242188 21.945312 C 30.300781 21.886719 30.449219 21.792969 30.539062 21.886719 C 30.601562 22.003906 30.601562 22.125 30.539062 22.246094 C 30.449219 22.304688 30.332031 22.304688 30.242188 22.246094 C 30.152344 22.214844 30.121094 22.125 30.152344 22.066406 C 30.152344 22.003906 30.179688 21.976562 30.242188 21.945312 Z M 31.046875 27.773438 C 31.496094 28.164062 31.886719 28.617188 32.15625 29.097656 C 31.976562 29.097656 31.796875 29.15625 31.648438 29.246094 C 31.226562 28.496094 30.601562 27.894531 29.820312 27.5625 L 29.972656 27.863281 C 30.570312 28.226562 31.019531 28.734375 31.289062 29.335938 C 30.511719 29.636719 29.792969 30.058594 29.164062 30.597656 C 29.164062 30.179688 29.191406 29.789062 29.222656 29.398438 C 29.523438 28.675781 29.640625 27.925781 28.804688 27.414062 C 28.59375 27.324219 28.382812 27.292969 28.175781 27.265625 C 28.175781 27.023438 28.175781 26.78125 28.113281 26.542969 C 29.222656 26.722656 30.242188 27.144531 31.046875 27.773438 Z M 28.953125 29.96875 L 28.535156 29.96875 L 28.324219 27.773438 C 28.714844 27.773438 29.042969 28.015625 29.191406 28.34375 C 29.3125 28.707031 28.863281 29.546875 28.953125 29.96875 Z M 28.265625 31.261719 C 27.875 31.289062 27.515625 31.019531 27.484375 30.628906 C 27.484375 30.597656 27.484375 30.570312 27.484375 30.539062 C 27.933594 30.390625 28.414062 30.328125 28.894531 30.390625 C 28.953125 30.898438 28.742188 31.261719 28.265625 31.261719 Z M 28.265625 29.96875 C 27.964844 30 27.695312 30.027344 27.394531 30.117188 L 27.335938 30.058594 L 26.828125 28.015625 C 27.15625 27.804688 27.515625 27.683594 27.875 27.65625 Z M 26.828125 26.300781 C 27.097656 26.363281 27.304688 26.511719 27.457031 26.722656 L 27.875 26.722656 C 27.933594 26.933594 27.964844 27.144531 27.933594 27.355469 C 27.515625 27.355469 27.125 27.472656 26.828125 27.714844 L 26.617188 27.292969 C 26.316406 26.875 26.46875 26.933594 26.257812 26.722656 C 26.496094 26.78125 26.765625 26.875 26.976562 27.023438 C 26.886719 26.78125 26.828125 26.542969 26.828125 26.300781 Z M 23.804688 35.976562 C 23.894531 35.496094 24.011719 35.046875 24.164062 34.566406 C 24.972656 33.996094 25.808594 33.515625 26.707031 33.09375 C 27.457031 33.0625 28.175781 33.125 28.894531 33.242188 C 28.832031 33.453125 28.832031 33.753906 28.742188 33.964844 C 28.085938 33.90625 27.425781 33.875 26.765625 33.90625 C 26.019531 34.144531 25.328125 34.535156 24.730469 35.015625 C 24.671875 35.378906 24.730469 35.769531 24.882812 36.066406 C 24.523438 36.007812 24.164062 35.976562 23.804688 35.976562 Z M 25.507812 36.550781 C 25.449219 36.820312 25.449219 37.089844 25.507812 37.332031 C 25.238281 37.390625 25 37.421875 24.730469 37.390625 C 24.703125 37 24.820312 36.578125 25.03125 36.277344 C 25.539062 35.769531 26.078125 35.226562 26.585938 34.804688 C 26.765625 34.566406 26.976562 34.386719 27.214844 34.234375 L 29.941406 34.023438 L 29.941406 33.964844 C 29.703125 33.875 29.460938 33.84375 29.222656 33.90625 L 29.28125 33.605469 C 30.03125 33.304688 30.808594 33.125 31.617188 33.09375 C 31.617188 33.816406 31.617188 34.566406 31.558594 35.285156 C 30.601562 35.496094 28.742188 34.867188 27.546875 34.925781 Z M 32.664062 35.496094 C 32.605469 35.769531 32.605469 36.066406 32.664062 36.367188 C 32.664062 36.667969 32.15625 36.730469 31.796875 36.789062 C 31.257812 36.941406 30.808594 37.148438 30.332031 37.421875 C 30.421875 37 30.660156 36.640625 31.046875 36.457031 C 31.257812 36.367188 31.46875 36.25 31.617188 36.097656 C 31.828125 35.195312 31.917969 34.234375 31.917969 33.273438 C 32.214844 33.273438 32.875 33.332031 33.175781 33.332031 C 33.234375 34.085938 32.816406 34.804688 32.664062 35.496094 Z M 35.660156 32.523438 C 35.242188 33.304688 35.03125 34.113281 35.03125 35.015625 L 34.164062 34.144531 C 34.011719 34.445312 33.804688 34.777344 33.652344 35.046875 C 33.59375 34.894531 33.355469 34.625 33.234375 34.414062 C 33.445312 33.933594 33.503906 33.394531 33.382812 32.851562 C 33.984375 32.34375 34.613281 31.921875 35.269531 31.53125 C 35.898438 31.320312 36.316406 31.109375 36.46875 30.808594 C 36.617188 30.960938 36.765625 31.019531 36.886719 31.171875 C 36.378906 31.832031 35.660156 32.222656 34.851562 32.371094 C 35.121094 32.492188 35.390625 32.550781 35.660156 32.523438 Z M 35.839844 33.035156 C 35.898438 32.792969 35.988281 32.550781 36.140625 32.3125 C 36.496094 32.160156 36.796875 31.953125 37.035156 31.679688 C 37.425781 32.160156 37.695312 32.703125 37.753906 33.304688 C 37.097656 33.304688 36.46875 33.214844 35.839844 33.035156 Z M 38.234375 33.363281 C 38.085938 32.613281 37.785156 31.953125 37.367188 31.320312 C 37.816406 31.230469 38.265625 31.410156 38.5625 31.742188 C 38.984375 32.191406 39.253906 32.734375 39.34375 33.363281 Z M 44.164062 34.445312 C 44.34375 34.65625 44.460938 34.957031 44.523438 35.226562 C 44.28125 35.015625 43.984375 34.925781 43.652344 34.925781 C 43.773438 35.195312 43.804688 35.496094 43.714844 35.796875 C 43.5625 35.558594 43.414062 35.347656 43.203125 35.167969 C 42.695312 34.65625 42.90625 33.84375 43.203125 33.035156 C 43.203125 32.671875 43.054688 32.402344 42.695312 32.402344 C 41.796875 32.550781 40.929688 33.304688 40 33.273438 C 39.640625 32.550781 39.492188 31.5 38.59375 31.140625 C 39.582031 31.230469 40.511719 31.769531 41.078125 32.613281 C 41.945312 31.890625 42.84375 31.050781 44.011719 31.410156 C 44.402344 31.589844 44.671875 31.921875 44.730469 32.3125 C 44.792969 33.035156 44.371094 33.933594 45.152344 34.566406 C 44.792969 34.804688 44.433594 34.355469 44.164062 34.445312 Z M 44.164062 34.445312 "/>
<path style=" stroke:none;fill-rule:nonzero;fill:rgb(98.823529%,98.823529%,98.823529%);fill-opacity:1;" d="M 50.210938 42.617188 L 16.648438 42.617188 C 16.765625 46.675781 18.265625 50.613281 20.867188 53.707031 C 27.753906 61.910156 41.257812 61.761719 47.816406 53.078125 C 50.152344 50.101562 51.410156 46.433594 51.410156 42.648438 L 50.78125 42.648438 C 50.71875 44.933594 50.210938 47.15625 49.3125 49.199219 C 49.191406 49.351562 49.011719 49.46875 48.804688 49.5 C 48.203125 49.710938 47.605469 49.890625 46.976562 50.011719 C 46.828125 50.070312 46.617188 50.160156 46.558594 50.3125 C 47.066406 50.3125 47.546875 50.25 48.023438 50.101562 C 47.84375 50.222656 47.636719 50.339844 47.457031 50.460938 C 45.71875 51.453125 43.894531 52.355469 42.035156 53.167969 C 42.335938 51.453125 42.15625 49.710938 41.527344 48.089844 C 42.097656 47.996094 42.605469 47.878906 43.144531 47.726562 C 43.625 48.417969 43.921875 49.199219 44.011719 50.070312 C 44.253906 49.800781 44.34375 49.441406 44.3125 49.109375 C 44.164062 48.570312 43.953125 48.058594 43.683594 47.546875 C 44.191406 47.277344 44.671875 47.035156 45.242188 46.824219 C 45.75 46.707031 46.230469 46.527344 46.707031 46.316406 C 46.378906 46.195312 46.019531 46.195312 45.75 46.316406 C 47.007812 45.503906 48.414062 44.902344 49.820312 44.480469 C 49.761719 44.273438 49.042969 44.480469 48.863281 44.480469 C 49.433594 43.972656 49.910156 43.339844 50.210938 42.617188 Z M 28.113281 46.644531 L 28.113281 55.601562 C 28.023438 55.480469 27.90625 55.359375 27.753906 55.300781 L 27.753906 46.34375 C 27.753906 46.042969 27.816406 45.925781 27.964844 45.925781 C 28.742188 45.863281 29.851562 45.714844 30.777344 45.5625 C 31.707031 45.414062 32.816406 45.355469 33.804688 45.203125 C 33.863281 45.144531 33.863281 45.023438 33.804688 44.960938 L 33.742188 44.960938 L 27.753906 45.683594 C 27.605469 45.746094 27.457031 45.894531 27.457031 45.984375 L 27.457031 55.269531 L 27.097656 55.210938 C 27.035156 52.386719 27.097656 49.140625 27.097656 46.105469 L 27.097656 45.535156 C 27.15625 45.382812 27.457031 45.382812 27.457031 45.382812 C 29.582031 45.171875 31.675781 44.871094 33.804688 44.601562 C 33.863281 44.601562 33.863281 44.453125 33.804688 44.390625 C 31.765625 44.601562 29.28125 44.8125 27.335938 45.023438 C 27.15625 45.023438 26.976562 45.113281 26.828125 45.234375 C 26.765625 45.382812 26.738281 45.5625 26.765625 45.746094 C 26.765625 48.839844 26.917969 52.113281 26.765625 55.210938 L 26.46875 55.210938 C 26.46875 51.964844 26.40625 47.9375 26.40625 45.171875 C 26.347656 44.871094 26.558594 44.664062 26.828125 44.601562 L 26.886719 44.601562 C 29.492188 44.390625 31.046875 44.300781 33.175781 44.03125 C 33.804688 44.03125 34.28125 44.089844 34.582031 44.542969 C 34.761719 44.8125 34.671875 45.203125 34.402344 45.382812 L 34.371094 45.382812 C 34.3125 45.382812 34.3125 45.445312 34.222656 45.445312 L 33.355469 45.652344 L 28.445312 46.226562 C 28.324219 46.226562 28.175781 46.433594 28.113281 46.644531 Z M 33.234375 45.984375 L 33.234375 47.308594 L 32.933594 47.308594 C 32.367188 47.1875 32.035156 46.644531 32.066406 46.105469 C 32.394531 46.074219 32.875 46.074219 33.234375 45.984375 Z M 28.414062 46.855469 C 28.414062 46.644531 28.414062 46.433594 28.714844 46.433594 C 29.011719 46.433594 29.433594 46.375 29.761719 46.375 C 29.761719 47.277344 29.402344 47.699219 28.445312 47.699219 C 28.445312 47.425781 28.445312 47.15625 28.414062 46.855469 Z M 28.863281 56.53125 C 28.683594 56.5 28.535156 56.410156 28.445312 56.230469 L 28.445312 55.03125 C 28.773438 55 29.101562 55.121094 29.34375 55.328125 C 29.640625 55.628906 29.820312 56.050781 29.851562 56.441406 C 29.523438 56.472656 29.222656 56.53125 28.863281 56.53125 Z M 30.242188 56.382812 C 30.242188 55.839844 30 55.390625 29.613281 55.058594 C 29.28125 54.820312 28.863281 54.730469 28.503906 54.757812 L 28.445312 48.027344 C 29.253906 48.148438 29.972656 47.605469 30.121094 46.824219 L 30.121094 46.433594 L 31.796875 46.226562 C 31.765625 47.066406 32.425781 47.757812 33.265625 47.789062 C 33.265625 47.789062 33.265625 47.789062 33.292969 47.789062 L 33.382812 47.789062 L 33.59375 54.398438 C 32.726562 54.546875 32.15625 55.300781 32.1875 56.171875 L 32.1875 56.230469 Z M 32.394531 56.109375 C 32.277344 55.449219 32.664062 54.847656 33.292969 54.699219 L 33.355469 54.699219 C 33.355469 54.699219 33.414062 55.960938 33.414062 56.019531 C 33.113281 56.019531 32.753906 56.109375 32.394531 56.109375 Z M 33.59375 45.925781 C 34.011719 45.894531 34.402344 45.714844 34.640625 45.414062 C 34.761719 45.683594 34.671875 45.984375 34.433594 46.136719 C 34.433594 46.136719 34.433594 46.136719 34.402344 46.136719 L 34.371094 46.136719 C 34.132812 46.316406 33.863281 46.40625 33.59375 46.433594 C 33.59375 46.34375 33.535156 45.984375 33.59375 45.925781 Z M 33.59375 46.855469 C 33.984375 46.855469 34.371094 46.707031 34.640625 46.433594 L 34.640625 48.328125 C 34.492188 48.75 34.074219 48.839844 33.59375 48.960938 Z M 33.683594 49.351562 C 34.042969 49.289062 34.371094 49.140625 34.640625 48.929688 C 34.761719 49.050781 34.761719 49.289062 34.640625 49.410156 C 34.34375 49.652344 33.953125 49.769531 33.59375 49.769531 C 33.59375 49.589844 33.625 49.46875 33.683594 49.351562 Z M 33.683594 50.101562 C 34.011719 50.070312 34.34375 49.980469 34.582031 49.800781 L 34.582031 51.484375 L 33.683594 51.996094 Z M 33.804688 53.078125 C 33.953125 53.078125 33.953125 53.078125 34.011719 53.285156 C 34.074219 53.496094 34.3125 53.4375 34.523438 53.496094 C 34.613281 53.648438 34.792969 53.738281 34.941406 53.707031 L 34.941406 54.757812 C 34.941406 54.96875 34.074219 55.269531 33.894531 55.269531 Z M 34.792969 55.691406 C 34.492188 55.839844 34.191406 55.960938 33.894531 55.992188 L 33.894531 55.601562 C 34.3125 55.539062 34.703125 55.390625 35 55.179688 C 35 55.359375 34.910156 55.539062 34.792969 55.691406 Z M 41.738281 53.078125 C 41.679688 53.285156 41.527344 53.285156 41.4375 53.226562 C 41.078125 52.59375 40.871094 51.90625 40.808594 51.183594 C 41.109375 50.914062 41.4375 50.671875 41.769531 50.550781 C 41.859375 51.394531 41.859375 52.234375 41.738281 53.078125 Z M 41.738281 50.25 C 40.0625 50.972656 39.011719 52.867188 37.035156 53.136719 L 38.085938 52.503906 C 38.085938 52.414062 38.023438 52.355469 37.933594 52.355469 C 37.335938 52.714844 36.765625 53.015625 36.109375 53.226562 L 35 53.4375 C 34.941406 53.4375 34.792969 53.4375 34.792969 53.285156 C 35.089844 53.136719 35.898438 52.867188 36.40625 52.65625 C 36.828125 52.445312 37.246094 52.203125 37.605469 51.933594 C 37.605469 51.875 37.605469 51.722656 37.457031 51.785156 C 37.097656 51.996094 36.675781 52.203125 36.347656 52.414062 C 35.78125 52.625 35.300781 52.835938 34.730469 53.046875 C 34.582031 53.105469 34.433594 53.078125 34.3125 52.984375 C 34.253906 52.925781 34.3125 52.925781 34.523438 52.777344 C 35.03125 52.59375 35.511719 52.386719 35.988281 52.144531 C 36.4375 51.90625 36.855469 51.632812 37.246094 51.363281 C 37.246094 51.304688 37.246094 51.214844 37.097656 51.214844 C 36.199219 51.785156 35.269531 52.175781 34.28125 52.476562 C 34.132812 52.535156 33.953125 52.566406 33.773438 52.535156 L 33.773438 52.234375 L 35.242188 51.453125 C 35.660156 51.242188 36.078125 50.972656 36.4375 50.671875 L 37.546875 49.710938 L 37.546875 49.558594 C 36.738281 49.769531 35.898438 49.769531 35.0625 49.558594 L 35.0625 49.589844 C 35.480469 49.46875 35.898438 49.378906 36.316406 49.289062 C 37.035156 49.078125 37.636719 48.777344 38.445312 48.570312 C 39.371094 48.417969 40.359375 48.359375 41.320312 48.359375 C 41.617188 48.960938 41.738281 49.589844 41.738281 50.25 Z M 41.738281 50.25 "/>
<path style=" stroke:none;fill-rule:nonzero;fill:rgb(98.823529%,98.823529%,98.823529%);fill-opacity:1;" d="M 29.164062 55.601562 C 29.011719 55.539062 28.863281 55.601562 28.804688 55.75 C 28.742188 55.902344 28.804688 56.050781 28.953125 56.109375 C 29.101562 56.171875 29.253906 56.109375 29.3125 55.960938 C 29.371094 55.839844 29.3125 55.660156 29.164062 55.601562 Z M 29.164062 55.601562 "/>
<path style=" stroke:none;fill-rule:nonzero;fill:rgb(98.823529%,98.823529%,98.823529%);fill-opacity:1;" d="M 32.304688 50.824219 C 32.304688 50.3125 31.945312 50.25 31.527344 50.191406 C 31.527344 49.949219 31.4375 49.742188 31.316406 49.558594 C 30.808594 49.261719 30.121094 49.621094 30.359375 50.28125 C 30.0625 50.339844 29.492188 50.492188 29.582031 51.003906 C 29.640625 51.511719 29.941406 51.632812 30.480469 51.632812 C 30.449219 52.054688 30.75 52.445312 31.199219 52.503906 C 31.617188 52.445312 31.707031 51.996094 31.707031 51.542969 C 31.976562 51.394531 32.394531 51.242188 32.304688 50.824219 Z M 31.40625 51.242188 C 31.40625 51.605469 31.558594 52.113281 31.199219 52.113281 C 30.691406 52.175781 30.898438 51.542969 30.777344 51.332031 C 30.570312 51.273438 30.0625 51.484375 29.910156 51.03125 C 29.972656 50.523438 30.421875 50.613281 30.691406 50.523438 C 30.691406 50.160156 30.480469 49.890625 30.988281 49.742188 C 31.40625 49.800781 31.289062 50.160156 31.289062 50.371094 C 31.585938 50.371094 32.066406 50.3125 32.066406 50.730469 C 32.066406 51.152344 31.707031 51.09375 31.40625 51.242188 Z M 31.40625 51.242188 "/>
<path style=" stroke:none;fill-rule:nonzero;fill:rgb(98.823529%,98.823529%,98.823529%);fill-opacity:1;" d="M 37.246094 29.546875 C 37.15625 29.277344 37.125 28.976562 37.097656 28.675781 C 37.394531 28.675781 37.515625 28.617188 37.726562 28.617188 L 37.664062 28.105469 C 37.457031 28.164062 37.367188 28.164062 37.097656 28.253906 C 37.035156 27.953125 37.035156 27.746094 36.945312 27.382812 L 37.574219 27.324219 L 37.574219 26.902344 C 37.425781 26.964844 37.066406 26.964844 36.945312 27.054688 C 36.886719 26.753906 36.886719 26.421875 36.796875 26.152344 C 36.738281 26.152344 36.378906 26.210938 36.289062 26.210938 C 36.347656 26.511719 36.4375 26.78125 36.496094 27.113281 C 36.289062 27.113281 36.140625 27.171875 35.871094 27.171875 L 35.929688 27.59375 C 36.167969 27.503906 36.40625 27.472656 36.648438 27.445312 C 36.707031 27.804688 36.707031 28.015625 36.796875 28.316406 C 36.585938 28.375 36.378906 28.40625 36.167969 28.375 L 36.230469 28.886719 C 36.4375 28.828125 36.648438 28.828125 36.855469 28.734375 L 36.855469 29.636719 C 36.917969 29.609375 37.125 29.609375 37.246094 29.546875 Z M 37.246094 29.546875 "/>
<path style=" stroke:none;fill-rule:nonzero;fill:rgb(98.823529%,98.823529%,98.823529%);fill-opacity:1;" d="M 33.113281 55.328125 C 32.996094 55.238281 32.84375 55.269531 32.753906 55.390625 C 32.664062 55.511719 32.695312 55.660156 32.816406 55.75 C 32.84375 55.75 32.875 55.78125 32.875 55.8125 C 33.175781 55.902344 33.382812 55.449219 33.113281 55.328125 Z M 33.113281 55.328125 "/>
<path style=" stroke:none;fill-rule:nonzero;fill:rgb(98.823529%,98.823529%,98.823529%);fill-opacity:1;" d="M 27.753906 28.707031 C 27.816406 28.585938 27.785156 28.4375 27.695312 28.34375 C 27.546875 28.34375 27.546875 28.285156 27.394531 28.34375 C 27.335938 28.464844 27.335938 28.585938 27.394531 28.707031 C 27.605469 28.855469 27.695312 28.855469 27.753906 28.707031 Z M 27.753906 28.707031 "/>
<path style=" stroke:none;fill-rule:nonzero;fill:rgb(98.823529%,98.823529%,98.823529%);fill-opacity:1;" d="M 32.664062 46.855469 C 32.816406 46.855469 32.875 46.855469 32.964844 46.707031 C 33.023438 46.554688 32.964844 46.496094 32.816406 46.40625 C 32.546875 46.285156 32.457031 46.796875 32.664062 46.855469 Z M 32.664062 46.855469 "/>
<path style=" stroke:none;fill-rule:nonzero;fill:rgb(98.823529%,98.823529%,98.823529%);fill-opacity:1;" d="M 8.683594 28.496094 L 4.339844 26.09375 L 4.28125 26.753906 L 7.726562 28.585938 L 3.832031 29.15625 L 3.683594 29.757812 L 8.621094 29.007812 Z M 8.683594 28.496094 "/>
<path style=" stroke:none;fill-rule:nonzero;fill:rgb(98.823529%,98.823529%,98.823529%);fill-opacity:1;" d="M 4.660156 24.566406 L 4.828125 23.960938 L 9.355469 25.238281 L 9.183594 25.84375 Z M 4.660156 24.566406 "/>
<path style=" stroke:none;fill-rule:nonzero;fill:rgb(98.823529%,98.823529%,98.823529%);fill-opacity:1;" d="M 10.71875 21.792969 L 10.238281 21.585938 L 9.671875 22.996094 L 5.808594 21.523438 L 5.539062 22.09375 L 9.96875 23.777344 Z M 10.71875 21.792969 "/>
<path style=" stroke:none;fill-rule:nonzero;fill:rgb(98.823529%,98.823529%,98.823529%);fill-opacity:1;" d="M 11.378906 20.382812 L 8.203125 18.609375 L 12.425781 18.550781 L 12.695312 17.917969 L 8.53125 15.664062 L 8.292969 16.234375 L 11.527344 17.917969 L 7.277344 18.070312 L 6.917969 18.667969 L 11.078125 20.953125 Z M 11.378906 20.382812 "/>
<path style=" stroke:none;fill-rule:nonzero;fill:rgb(98.823529%,98.823529%,98.823529%);fill-opacity:1;" d="M 9.742188 13.996094 L 10.105469 13.480469 L 13.945312 16.195312 L 13.585938 16.710938 Z M 9.742188 13.996094 "/>
<path style=" stroke:none;fill-rule:nonzero;fill:rgb(98.823529%,98.823529%,98.823529%);fill-opacity:1;" d="M 14.878906 14.945312 L 14.519531 14.222656 L 15.777344 12.808594 L 16.496094 13.109375 L 16.917969 12.601562 L 12.277344 10.707031 L 11.976562 11.066406 L 14.460938 15.453125 Z M 12.84375 11.546875 L 15.179688 12.601562 L 14.222656 13.710938 Z M 12.84375 11.546875 "/>
<path style=" stroke:none;fill-rule:nonzero;fill:rgb(98.823529%,98.823529%,98.823529%);fill-opacity:1;" d="M 18.625 11.277344 C 19.34375 10.738281 19.460938 9.746094 18.953125 9.054688 L 18.894531 9.023438 L 16.828125 6.5 L 16.316406 6.921875 L 18.355469 9.414062 C 18.742188 9.863281 18.652344 10.527344 18.203125 10.886719 C 17.753906 11.277344 17.097656 11.1875 16.738281 10.738281 L 14.699219 8.242188 L 14.25 8.601562 L 16.289062 11.097656 C 16.828125 11.816406 17.816406 11.9375 18.503906 11.425781 C 18.472656 11.398438 18.472656 11.335938 18.503906 11.335938 C 18.535156 11.335938 18.59375 11.246094 18.625 11.277344 Z M 18.625 11.277344 "/>
<path style=" stroke:none;fill-rule:nonzero;fill:rgb(98.823529%,98.823529%,98.823529%);fill-opacity:1;" d="M 20.929688 6.921875 C 21.347656 6.769531 21.828125 6.710938 22.125 7.222656 C 22.335938 7.613281 22.214844 8.121094 21.828125 8.332031 C 21.796875 8.332031 21.765625 8.363281 21.765625 8.394531 C 21.316406 8.691406 20.71875 8.601562 20.359375 8.183594 C 20.359375 8.121094 20.300781 8.121094 20.300781 8.03125 L 19.730469 8.394531 C 20.121094 9.175781 21.046875 9.414062 21.796875 9.054688 L 21.828125 9.054688 C 21.886719 9.054688 21.886719 8.992188 21.976562 8.992188 C 22.695312 8.691406 23.023438 7.882812 22.753906 7.160156 C 22.753906 7.101562 22.695312 7.011719 22.695312 6.949219 C 22.1875 6.167969 21.378906 6.320312 20.570312 6.53125 C 20.058594 6.679688 19.671875 6.738281 19.371094 6.320312 C 19.164062 5.988281 19.28125 5.539062 19.609375 5.359375 L 19.640625 5.359375 C 19.671875 5.359375 19.699219 5.328125 19.699219 5.296875 C 20.089844 5.027344 20.597656 5.148438 20.808594 5.507812 C 20.808594 5.566406 20.867188 5.566406 20.867188 5.65625 L 21.4375 5.296875 C 21.046875 4.605469 20.238281 4.367188 19.550781 4.726562 C 19.492188 4.726562 19.492188 4.785156 19.402344 4.785156 C 18.742188 5.117188 18.503906 5.867188 18.773438 6.558594 C 18.773438 6.621094 18.832031 6.621094 18.832031 6.710938 C 19.371094 7.25 20.148438 7.128906 20.929688 6.921875 Z M 20.929688 6.921875 "/>
<path style=" stroke:none;fill-rule:nonzero;fill:rgb(98.823529%,98.823529%,98.823529%);fill-opacity:1;" d="M 27.84375 6.320312 C 28.742188 6.109375 29.253906 5.238281 29.042969 4.335938 L 29.042969 4.277344 L 28.144531 1.179688 L 27.574219 1.332031 L 28.445312 4.425781 C 28.652344 4.96875 28.355469 5.539062 27.816406 5.75 C 27.277344 5.957031 26.707031 5.65625 26.496094 5.117188 C 26.46875 5.058594 26.46875 5.027344 26.46875 4.96875 L 25.628906 1.902344 L 25.0625 2.050781 L 25.929688 5.148438 C 26.136719 5.988281 26.976562 6.53125 27.84375 6.320312 Z M 27.84375 6.320312 "/>
<path style=" stroke:none;fill-rule:nonzero;fill:rgb(98.823529%,98.823529%,98.823529%);fill-opacity:1;" d="M 30.988281 5.566406 L 30.691406 1.902344 L 33.113281 5.417969 L 33.804688 5.359375 L 33.382812 0.609375 L 32.753906 0.671875 L 33.113281 4.277344 L 30.628906 0.820312 L 30.03125 0.910156 L 30.332031 5.628906 Z M 30.988281 5.566406 "/>
<path style=" stroke:none;fill-rule:nonzero;fill:rgb(98.823529%,98.823529%,98.823529%);fill-opacity:1;" d="M 35.035156 5.429688 L 35.316406 0.722656 L 35.945312 0.761719 L 35.664062 5.46875 Z M 35.035156 5.429688 "/>
<path style=" stroke:none;fill-rule:nonzero;fill:rgb(98.823529%,98.823529%,98.823529%);fill-opacity:1;" d="M 38.59375 5.839844 L 41.140625 1.542969 L 40.480469 1.390625 L 38.59375 4.847656 L 38.085938 0.96875 L 37.484375 0.820312 L 38.175781 5.75 Z M 38.59375 5.839844 "/>
<path style=" stroke:none;fill-rule:nonzero;fill:rgb(98.823529%,98.823529%,98.823529%);fill-opacity:1;" d="M 43.292969 7.339844 L 43.503906 6.832031 L 41.617188 6.109375 L 42.097656 4.636719 L 44.011719 5.359375 L 44.222656 4.847656 L 42.304688 4.125 L 42.90625 2.652344 L 44.792969 3.375 L 44.972656 2.863281 L 42.457031 1.960938 L 40.839844 6.410156 Z M 43.292969 7.339844 "/>
<path style=" stroke:none;fill-rule:nonzero;fill:rgb(98.823529%,98.823529%,98.823529%);fill-opacity:1;" d="M 44.851562 8.09375 L 45.628906 6.769531 L 46.5 7.28125 L 46.558594 9.054688 L 47.1875 9.414062 L 47.128906 7.519531 C 47.816406 7.640625 48.445312 7.3125 48.804688 6.738281 C 49.253906 5.957031 48.984375 4.996094 48.234375 4.546875 C 48.203125 4.546875 48.175781 4.515625 48.175781 4.484375 L 46.617188 3.703125 L 44.28125 7.792969 Z M 46.886719 4.425781 L 47.785156 4.9375 C 48.265625 5.207031 48.414062 5.777344 48.175781 6.230469 L 48.175781 6.320312 C 47.964844 6.800781 47.367188 7.011719 46.917969 6.800781 L 46.828125 6.769531 C 46.796875 6.769531 46.769531 6.738281 46.769531 6.710938 L 45.871094 6.289062 Z M 46.886719 4.425781 "/>
<path style=" stroke:none;fill-rule:nonzero;fill:rgb(98.823529%,98.823529%,98.823529%);fill-opacity:1;" d="M 48.625 8.601562 C 48.054688 9.265625 48.113281 10.226562 48.773438 10.796875 C 48.832031 10.855469 48.832031 10.855469 48.921875 10.855469 C 49.460938 11.398438 50.300781 11.425781 50.839844 10.917969 L 50.898438 10.855469 L 51.050781 10.707031 C 51.617188 9.984375 51.199219 9.292969 50.691406 8.574219 C 50.390625 8.152344 50.179688 7.792969 50.480469 7.371094 C 50.75 7.070312 51.230469 7.039062 51.527344 7.3125 L 51.589844 7.371094 C 51.976562 7.640625 52.066406 8.152344 51.796875 8.484375 C 51.796875 8.542969 51.738281 8.542969 51.738281 8.632812 L 52.246094 9.054688 C 52.757812 8.453125 52.695312 7.582031 52.097656 7.070312 L 52.039062 7.011719 C 51.527344 6.5 50.71875 6.5 50.210938 7.011719 L 50.152344 7.070312 C 49.582031 7.792969 50 8.394531 50.511719 9.113281 C 50.808594 9.472656 51.019531 9.894531 50.660156 10.316406 C 50.359375 10.675781 49.820312 10.738281 49.460938 10.464844 L 49.402344 10.40625 C 48.953125 10.074219 48.832031 9.472656 49.101562 8.992188 C 49.101562 8.933594 49.164062 8.933594 49.164062 8.84375 Z M 48.625 8.601562 "/>
<path style=" stroke:none;fill-rule:nonzero;fill:rgb(98.823529%,98.823529%,98.823529%);fill-opacity:1;" d="M 51.082031 12.683594 L 54.433594 9.375 L 54.875 9.824219 L 51.523438 13.132812 Z M 51.082031 12.683594 "/>
<path style=" stroke:none;fill-rule:nonzero;fill:rgb(98.823529%,98.823529%,98.823529%);fill-opacity:1;" d="M 52.996094 14.792969 L 53.355469 15.304688 L 56.679688 12.691406 L 57.457031 13.679688 L 57.847656 13.320312 L 55.871094 10.945312 L 55.480469 11.277344 L 56.230469 12.207031 Z M 52.996094 14.792969 "/>
<path style=" stroke:none;fill-rule:nonzero;fill:rgb(98.823529%,98.823529%,98.823529%);fill-opacity:1;" d="M 56.019531 19.242188 L 56.527344 18.96875 L 55.480469 17.195312 L 56.738281 16.445312 L 57.785156 18.21875 L 58.265625 17.917969 L 57.246094 16.144531 L 58.503906 15.363281 L 59.523438 17.046875 L 60.03125 16.777344 L 58.714844 14.523438 L 54.613281 16.988281 Z M 56.019531 19.242188 "/>
<path style=" stroke:none;fill-rule:nonzero;fill:rgb(98.823529%,98.823529%,98.823529%);fill-opacity:1;" d="M 56.949219 21.164062 L 57.15625 21.734375 L 60.960938 20.050781 L 61.5 21.164062 L 62.007812 20.863281 L 60.75 18.128906 L 60.242188 18.339844 L 60.75 19.480469 Z M 56.949219 21.164062 "/>
<path style=" stroke:none;fill-rule:nonzero;fill:rgb(98.823529%,98.823529%,98.823529%);fill-opacity:1;" d="M 57.9375 23.566406 L 58.714844 23.566406 L 59.28125 25.402344 L 58.652344 25.910156 L 58.863281 26.542969 L 62.875 23.597656 L 62.726562 23.175781 L 57.726562 23.027344 Z M 61.859375 23.566406 L 59.730469 25.039062 L 59.222656 23.566406 Z M 61.859375 23.566406 "/>
<path style=" stroke:none;fill-rule:nonzero;fill:rgb(98.823529%,98.823529%,98.823529%);fill-opacity:1;" d="M 62.425781 26.511719 C 61.558594 26.722656 61.46875 27.414062 61.378906 28.34375 C 61.320312 28.765625 61.230469 29.246094 60.660156 29.398438 C 60.179688 29.488281 59.761719 29.15625 59.703125 28.675781 L 59.703125 28.617188 C 59.550781 28.074219 59.882812 27.5625 60.421875 27.414062 L 60.570312 27.414062 L 60.511719 26.691406 C 59.671875 26.84375 59.101562 27.59375 59.191406 28.464844 L 59.191406 28.617188 C 59.253906 29.398438 59.910156 29.96875 60.660156 29.9375 L 60.808594 29.9375 C 61.707031 29.789062 61.859375 28.976562 61.917969 28.105469 C 61.976562 27.59375 62.066406 27.203125 62.546875 27.144531 C 62.9375 27.054688 63.324219 27.324219 63.386719 27.714844 C 63.386719 27.746094 63.386719 27.773438 63.386719 27.804688 L 63.386719 27.863281 C 63.535156 28.285156 63.296875 28.734375 62.875 28.828125 C 62.875 28.828125 62.875 28.828125 62.847656 28.828125 L 62.636719 28.828125 L 62.785156 29.457031 C 63.566406 29.308594 64.074219 28.585938 63.984375 27.835938 L 63.984375 27.683594 C 63.925781 26.964844 63.296875 26.453125 62.578125 26.484375 Z M 62.425781 26.511719 "/>
<path style=" stroke:none;fill-rule:nonzero;fill:rgb(98.823529%,98.823529%,98.823529%);fill-opacity:1;" d="M 29.011719 15.664062 L 29.011719 11.757812 L 28.503906 11.757812 C 28.503906 12.269531 28.355469 12.390625 27.636719 12.390625 L 27.636719 12.808594 L 28.445312 12.808594 L 28.445312 15.632812 Z M 29.011719 15.664062 "/>
<path style=" stroke:none;fill-rule:nonzero;fill:rgb(98.823529%,98.823529%,98.823529%);fill-opacity:1;" d="M 34.492188 15.664062 L 35 15.664062 L 36.765625 11.699219 L 34.371094 11.699219 L 34.371094 12.207031 L 36.050781 12.207031 Z M 34.492188 15.664062 "/>
<path style=" stroke:none;fill-rule:nonzero;fill:rgb(98.823529%,98.823529%,98.823529%);fill-opacity:1;" d="M 38.863281 15.664062 L 40.0625 13.773438 C 40.210938 13.53125 40.269531 13.261719 40.269531 12.992188 C 40.269531 12.238281 39.671875 11.667969 38.953125 11.667969 C 38.203125 11.667969 37.636719 12.269531 37.636719 12.992188 C 37.636719 13.710938 38.234375 14.3125 38.953125 14.3125 C 39.042969 14.3125 39.101562 14.28125 39.164062 14.253906 L 38.265625 15.664062 Z M 38.953125 13.890625 C 38.472656 13.921875 38.054688 13.53125 38.054688 13.019531 C 38.023438 12.539062 38.414062 12.117188 38.921875 12.117188 C 39.402344 12.089844 39.820312 12.480469 39.820312 12.992188 L 39.820312 13.050781 C 39.851562 13.53125 39.523438 13.953125 39.042969 13.953125 C 39.011719 13.921875 38.984375 13.890625 38.953125 13.890625 Z M 38.953125 13.890625 "/>
<path style=" stroke:none;fill-rule:nonzero;fill:rgb(98.823529%,98.823529%,98.823529%);fill-opacity:1;" d="M 25.929688 13.742188 C 25.929688 14.089844 25.648438 14.371094 25.300781 14.371094 C 24.953125 14.371094 24.671875 14.089844 24.671875 13.742188 C 24.671875 13.394531 24.953125 13.109375 25.300781 13.109375 C 25.648438 13.109375 25.929688 13.394531 25.929688 13.742188 Z M 25.929688 13.742188 "/>
<path style=" stroke:none;fill-rule:nonzero;fill:rgb(98.823529%,98.823529%,98.823529%);fill-opacity:1;" d="M 43.292969 13.832031 C 43.292969 14.179688 43.011719 14.460938 42.664062 14.460938 C 42.320312 14.460938 42.035156 14.179688 42.035156 13.832031 C 42.035156 13.484375 42.320312 13.199219 42.664062 13.199219 C 43.011719 13.199219 43.292969 13.484375 43.292969 13.832031 Z M 43.292969 13.832031 "/>
<path style=" stroke:none;fill-rule:nonzero;fill:rgb(98.823529%,98.823529%,98.823529%);fill-opacity:1;" d="M 6.945312 34.597656 C 6.945312 34.945312 6.664062 35.226562 6.316406 35.226562 C 5.96875 35.226562 5.6875 34.945312 5.6875 34.597656 C 5.6875 34.246094 5.96875 33.964844 6.316406 33.964844 C 6.664062 33.964844 6.945312 34.246094 6.945312 34.597656 Z M 6.945312 34.597656 "/>
<path style=" stroke:none;fill-rule:nonzero;fill:rgb(98.823529%,98.823529%,98.823529%);fill-opacity:1;" d="M 62.574219 34.15625 C 62.34375 33.894531 61.945312 33.867188 61.683594 34.097656 C 61.425781 34.328125 61.398438 34.726562 61.628906 34.988281 C 61.859375 35.25 62.253906 35.277344 62.515625 35.046875 C 62.777344 34.816406 62.800781 34.417969 62.574219 34.15625 Z M 62.574219 34.15625 "/>
<path style=" stroke:none;fill-rule:nonzero;fill:rgb(98.823529%,98.823529%,98.823529%);fill-opacity:1;" d="M 32.1875 12.960938 C 31.828125 12.960938 31.46875 13.109375 31.289062 13.382812 L 31.289062 12.179688 L 33.175781 12.179688 L 33.175781 11.667969 L 30.839844 11.667969 L 30.839844 13.863281 L 31.347656 13.863281 C 31.527344 13.441406 32.035156 13.230469 32.457031 13.410156 C 32.753906 13.589844 32.964844 13.921875 32.964844 14.28125 C 32.996094 14.734375 32.695312 15.152344 32.246094 15.183594 L 32.097656 15.183594 C 31.738281 15.242188 31.40625 15.035156 31.316406 14.671875 L 30.839844 14.671875 C 30.957031 15.273438 31.496094 15.664062 32.097656 15.632812 C 32.816406 15.632812 33.382812 15.0625 33.414062 14.371094 L 33.414062 14.222656 C 33.445312 13.5625 32.933594 13.019531 32.304688 12.960938 C 32.277344 12.992188 32.214844 12.960938 32.1875 12.960938 Z M 32.1875 12.960938 "/>
<path style=" stroke:none;fill-rule:nonzero;fill:rgb(98.823529%,98.823529%,98.823529%);fill-opacity:1;" d="M 84.042969 21.253906 L 89.644531 21.253906 L 89.644531 23.027344 L 86.171875 23.027344 L 86.171875 25.492188 L 89.644531 25.492188 L 89.644531 27.234375 L 86.171875 27.234375 L 86.171875 30.417969 L 84.042969 30.417969 Z M 84.042969 21.253906 "/>
<path style=" stroke:none;fill-rule:nonzero;fill:rgb(98.823529%,98.823529%,98.823529%);fill-opacity:1;" d="M 90.601562 27.265625 C 90.601562 25.371094 91.769531 23.929688 93.59375 23.929688 C 94.402344 23.898438 95.152344 24.320312 95.570312 25.011719 L 95.570312 24.109375 L 97.546875 24.109375 L 97.546875 30.449219 L 95.570312 30.449219 L 95.570312 29.546875 C 95.152344 30.238281 94.375 30.628906 93.566406 30.597656 C 91.679688 30.597656 90.601562 29.15625 90.601562 27.265625 Z M 95.660156 27.265625 C 95.75 26.421875 95.121094 25.703125 94.3125 25.609375 C 93.503906 25.519531 92.757812 26.152344 92.667969 26.964844 C 92.667969 27.054688 92.667969 27.171875 92.667969 27.265625 C 92.578125 28.105469 93.175781 28.828125 94.015625 28.917969 C 94.074219 28.917969 94.105469 28.917969 94.164062 28.917969 C 94.972656 28.917969 95.660156 28.285156 95.660156 27.445312 C 95.660156 27.414062 95.660156 27.324219 95.660156 27.265625 Z M 95.660156 27.265625 "/>
<path style=" stroke:none;fill-rule:nonzero;fill:rgb(98.823529%,98.823529%,98.823529%);fill-opacity:1;" d="M 98.714844 27.265625 C 98.59375 25.519531 99.882812 24.019531 101.621094 23.898438 C 101.769531 23.898438 101.917969 23.898438 102.097656 23.898438 C 103.984375 23.898438 105.210938 24.917969 105.363281 26.484375 L 103.355469 26.484375 C 103.238281 25.910156 102.699219 25.492188 102.097656 25.582031 C 101.230469 25.582031 100.722656 26.183594 100.722656 27.234375 C 100.722656 28.285156 101.230469 28.886719 102.097656 28.886719 C 102.816406 28.886719 103.207031 28.585938 103.355469 28.046875 L 105.363281 28.046875 C 105.210938 29.578125 103.984375 30.597656 102.097656 30.597656 C 100.363281 30.71875 98.863281 29.398438 98.746094 27.65625 C 98.714844 27.535156 98.714844 27.382812 98.714844 27.265625 Z M 98.714844 27.265625 "/>
<path style=" stroke:none;fill-rule:nonzero;fill:rgb(98.823529%,98.823529%,98.823529%);fill-opacity:1;" d="M 106.441406 28.015625 L 106.441406 24.109375 L 108.476562 24.109375 L 108.476562 27.5625 C 108.476562 28.4375 108.777344 28.917969 109.523438 28.917969 C 110.273438 28.917969 110.722656 28.375 110.722656 27.503906 L 110.722656 24.109375 L 112.699219 24.109375 L 112.699219 30.449219 L 110.722656 30.449219 L 110.722656 29.515625 C 110.332031 30.238281 109.582031 30.660156 108.777344 30.597656 C 107.25 30.597656 106.441406 29.667969 106.441406 28.015625 Z M 106.441406 28.015625 "/>
<path style=" stroke:none;fill-rule:nonzero;fill:rgb(98.823529%,98.823529%,98.823529%);fill-opacity:1;" d="M 114.375 21.253906 L 116.378906 21.253906 L 116.378906 30.449219 L 114.375 30.449219 Z M 114.375 21.253906 "/>
<path style=" stroke:none;fill-rule:nonzero;fill:rgb(98.823529%,98.823529%,98.823529%);fill-opacity:1;" d="M 122.007812 28.828125 L 122.007812 30.449219 C 121.558594 30.507812 121.109375 30.570312 120.660156 30.539062 C 119.734375 30.539062 118.417969 30.328125 118.417969 28.226562 L 118.417969 25.703125 L 117.398438 25.703125 L 117.398438 24.109375 L 118.386719 24.109375 L 118.386719 22.246094 L 120.390625 22.246094 L 120.390625 24.109375 L 121.828125 24.109375 L 121.828125 25.703125 L 120.390625 25.703125 L 120.390625 27.804688 C 120.390625 28.734375 120.78125 28.886719 121.261719 28.886719 C 121.53125 28.886719 121.769531 28.855469 122.007812 28.828125 Z M 122.007812 28.828125 "/>
<path style=" stroke:none;fill-rule:nonzero;fill:rgb(98.823529%,98.823529%,98.823529%);fill-opacity:1;" d="M 129.40625 24.109375 L 129.40625 30.238281 C 129.433594 31.078125 129.105469 31.921875 128.507812 32.523438 C 127.847656 33.0625 127.039062 33.304688 126.199219 33.242188 C 125.363281 33.304688 124.554688 33.0625 123.867188 32.582031 C 123.386719 32.160156 123.085938 31.5625 123.085938 30.929688 L 125.09375 30.929688 C 125.125 31.46875 125.421875 31.769531 126.199219 31.769531 C 126.980469 31.769531 127.398438 31.351562 127.398438 30.359375 L 127.398438 29.398438 C 127.007812 30.117188 126.199219 30.539062 125.394531 30.449219 C 123.777344 30.449219 123.058594 29.367188 123.058594 27.804688 L 123.058594 24.136719 L 125.0625 24.136719 L 125.0625 27.503906 C 125.0625 28.316406 125.332031 28.855469 126.171875 28.855469 C 127.007812 28.855469 127.367188 28.226562 127.367188 27.265625 L 127.367188 24.109375 Z M 129.40625 24.109375 "/>
<path style=" stroke:none;fill-rule:nonzero;fill:rgb(98.823529%,98.823529%,98.823529%);fill-opacity:1;" d="M 133.714844 27.265625 C 133.804688 25.339844 135.453125 23.839844 137.367188 23.929688 C 139.164062 24.019531 140.632812 25.460938 140.691406 27.265625 C 140.601562 29.1875 138.957031 30.6875 137.039062 30.597656 C 135.242188 30.539062 133.804688 29.066406 133.714844 27.265625 Z M 138.746094 27.265625 C 138.835938 26.421875 138.207031 25.703125 137.398438 25.609375 C 136.5625 25.519531 135.84375 26.152344 135.753906 26.964844 C 135.753906 27.054688 135.753906 27.171875 135.753906 27.265625 C 135.664062 28.105469 136.292969 28.828125 137.097656 28.917969 C 137.9375 29.007812 138.65625 28.375 138.746094 27.5625 C 138.746094 27.472656 138.746094 27.355469 138.746094 27.265625 Z M 138.746094 27.265625 "/>
<path style=" stroke:none;fill-rule:nonzero;fill:rgb(98.823529%,98.823529%,98.823529%);fill-opacity:1;" d="M 144.253906 23.476562 L 144.253906 24.109375 L 145.691406 24.109375 L 145.691406 25.703125 L 144.253906 25.703125 L 144.253906 30.449219 L 142.25 30.449219 L 142.25 25.703125 L 141.113281 25.703125 L 141.113281 24.109375 L 142.25 24.109375 L 142.25 23.476562 C 142.160156 22.277344 143.027344 21.222656 144.226562 21.132812 C 144.34375 21.132812 144.433594 21.132812 144.554688 21.132812 C 144.945312 21.132812 145.332031 21.164062 145.691406 21.285156 L 145.691406 22.726562 C 145.484375 22.726562 145.332031 22.695312 145.152344 22.695312 C 144.765625 22.667969 144.253906 22.757812 144.253906 23.476562 Z M 144.253906 23.476562 "/>
<path style=" stroke:none;fill-rule:nonzero;fill:rgb(98.823529%,98.823529%,98.823529%);fill-opacity:1;" d="M 100.273438 35.382812 C 99.492188 36.152344 100.042969 37.488281 101.140625 37.488281 C 101.851562 37.488281 102.371094 36.964844 102.371094 36.25 C 102.371094 35.886719 102.253906 35.613281 102.007812 35.378906 C 101.777344 35.132812 101.503906 35.015625 101.140625 35.015625 C 100.777344 35.019531 100.503906 35.136719 100.273438 35.382812 Z M 100.273438 35.382812 "/>
<path style=" stroke:none;fill-rule:nonzero;fill:rgb(98.823529%,98.823529%,98.823529%);fill-opacity:1;" d="M 83.714844 39.808594 L 83.714844 44.453125 L 85.882812 44.453125 L 85.882812 41.835938 L 87.242188 41.835938 C 88.441406 41.835938 88.6875 41.796875 89.367188 41.433594 C 90.800781 40.691406 91.421875 38.996094 90.886719 37.371094 C 90.59375 36.484375 89.644531 35.554688 88.832031 35.324219 C 88.515625 35.234375 87.242188 35.164062 85.996094 35.164062 L 83.714844 35.164062 Z M 88.15625 37.199219 C 88.835938 37.605469 89.050781 38.433594 88.691406 39.171875 C 88.34375 39.882812 87.910156 40.101562 86.796875 40.101562 L 85.886719 40.101562 L 85.886719 36.910156 L 86.796875 36.910156 C 87.429688 36.90625 87.824219 36.992188 88.15625 37.199219 Z M 88.15625 37.199219 "/>
<path style=" stroke:none;fill-rule:nonzero;fill:rgb(98.823529%,98.823529%,98.823529%);fill-opacity:1;" d="M 92.101562 39.808594 L 92.101562 44.453125 L 94.125 44.453125 L 94.125 42.421875 C 94.125 40.445312 94.140625 40.359375 94.488281 40.027344 C 94.980469 39.519531 95.730469 39.53125 96.136719 40.039062 C 96.414062 40.390625 96.441406 40.621094 96.441406 42.4375 L 96.441406 44.453125 L 98.464844 44.453125 L 98.464844 42.015625 C 98.464844 39.375 98.347656 38.882812 97.582031 38.3125 C 96.800781 37.746094 95.3125 37.820312 94.558594 38.441406 L 94.125 38.820312 L 94.125 35.160156 L 92.101562 35.160156 Z M 92.101562 39.808594 "/>
<path style=" stroke:none;fill-rule:nonzero;fill:rgb(98.823529%,98.823529%,98.823529%);fill-opacity:1;" d="M 103.8125 39.808594 L 103.8125 44.453125 L 105.839844 44.453125 L 105.839844 35.167969 L 103.8125 35.167969 Z M 103.8125 39.808594 "/>
<path style=" stroke:none;fill-rule:nonzero;fill:rgb(98.823529%,98.823529%,98.823529%);fill-opacity:1;" d="M 115.382812 39.808594 L 115.382812 44.453125 L 117.40625 44.453125 L 117.40625 35.167969 L 115.382812 35.167969 Z M 115.382812 39.808594 "/>
<path style=" stroke:none;fill-rule:nonzero;fill:rgb(98.823529%,98.823529%,98.823529%);fill-opacity:1;" d="M 109.28125 38.125 C 108.125 38.546875 107.429688 39.285156 107.140625 40.390625 C 106.738281 41.929688 107.429688 43.480469 108.878906 44.25 C 109.628906 44.65625 111.636719 44.628906 112.417969 44.207031 C 113.574219 43.597656 114.125 42.613281 114.125 41.1875 C 114.140625 39.882812 113.5625 38.910156 112.417969 38.316406 C 111.679688 37.9375 110.03125 37.835938 109.28125 38.125 Z M 111.636719 40.085938 C 111.984375 40.449219 112.058594 40.640625 112.058594 41.246094 C 112.058594 42.304688 111.609375 42.785156 110.640625 42.785156 C 109.800781 42.785156 109.382812 42.492188 109.179688 41.753906 C 108.746094 40.15625 110.507812 38.953125 111.636719 40.085938 Z M 111.636719 40.085938 "/>
<path style=" stroke:none;fill-rule:nonzero;fill:rgb(98.823529%,98.823529%,98.823529%);fill-opacity:1;" d="M 120.878906 38.097656 C 119.503906 38.488281 118.578125 39.753906 118.5625 41.230469 C 118.5625 43.203125 120.050781 44.597656 122.191406 44.597656 C 124.1875 44.597656 125.648438 43.191406 125.648438 41.273438 C 125.648438 40.257812 125.140625 39.109375 124.492188 38.648438 C 123.582031 37.996094 122.046875 37.761719 120.878906 38.097656 Z M 122.886719 39.867188 C 123.335938 40.113281 123.625 40.652344 123.625 41.261719 C 123.625 42.640625 122.160156 43.347656 121.164062 42.449219 C 120.601562 41.957031 120.457031 41.203125 120.789062 40.507812 C 121.167969 39.707031 122.046875 39.445312 122.886719 39.867188 Z M 122.886719 39.867188 "/>
<path style=" stroke:none;fill-rule:nonzero;fill:rgb(98.823529%,98.823529%,98.823529%);fill-opacity:1;" d="M 128.308594 38.199219 C 127.574219 38.53125 126.894531 39.359375 126.660156 40.1875 C 126.296875 41.480469 126.761719 43.179688 127.65625 43.828125 C 128.769531 44.65625 130.375 44.65625 131.257812 43.84375 L 131.574219 43.542969 L 131.574219 44.179688 C 131.574219 44.992188 131.285156 45.417969 130.605469 45.601562 C 129.925781 45.792969 129.042969 45.574219 128.828125 45.183594 C 128.699219 44.9375 128.523438 44.890625 127.671875 44.890625 C 126.789062 44.890625 126.660156 44.921875 126.660156 45.167969 C 126.660156 45.617188 127.296875 46.402344 127.960938 46.777344 C 128.539062 47.097656 128.785156 47.140625 130.058594 47.140625 C 131.777344 47.140625 132.484375 46.851562 133.125 45.878906 L 133.527344 45.285156 L 133.570312 41.667969 L 133.613281 38.070312 L 132.585938 38.070312 C 131.585938 38.070312 131.574219 38.070312 131.574219 38.460938 L 131.574219 38.839844 L 131.261719 38.53125 C 130.550781 37.878906 129.335938 37.734375 128.308594 38.199219 Z M 131.113281 40.027344 C 131.648438 40.476562 131.808594 41.199219 131.519531 41.882812 C 131.085938 42.929688 129.867188 43.203125 129.101562 42.4375 C 128.738281 42.070312 128.683594 41.898438 128.683594 41.261719 C 128.683594 40.621094 128.738281 40.449219 129.101562 40.085938 C 129.667969 39.53125 130.496094 39.507812 131.113281 40.027344 Z M 131.113281 40.027344 "/>
<path style=" stroke:none;fill-rule:nonzero;fill:rgb(98.823529%,98.823529%,98.823529%);fill-opacity:1;" d="M 100.054688 41.261719 L 100.054688 44.453125 L 102.222656 44.453125 L 102.222656 38.0625 L 100.054688 38.0625 Z M 100.054688 41.261719 "/>
<path style=" stroke:none;fill-rule:nonzero;fill:rgb(98.823529%,98.823529%,98.823529%);fill-opacity:1;" d="M 135.222656 40.433594 C 135.277344 42.988281 135.394531 43.4375 136.21875 44.050781 C 136.984375 44.628906 138.488281 44.570312 139.242188 43.933594 L 139.675781 43.554688 L 139.675781 44.21875 C 139.675781 45.148438 139.199219 45.6875 138.386719 45.671875 C 137.765625 45.65625 137.359375 45.425781 137.359375 45.09375 C 137.359375 44.933594 137.097656 44.886719 136.261719 44.886719 C 135.191406 44.886719 135.175781 44.902344 135.277344 45.207031 C 135.699219 46.601562 136.59375 47.195312 138.300781 47.207031 C 139.921875 47.207031 140.902344 46.683594 141.421875 45.539062 C 141.652344 45.03125 141.699219 44.539062 141.699219 41.503906 L 141.699219 38.0625 L 139.675781 38.0625 L 139.675781 39.804688 C 139.675781 41.679688 139.5 42.417969 138.980469 42.695312 C 138.53125 42.925781 138.171875 42.882812 137.738281 42.550781 C 137.359375 42.257812 137.359375 42.246094 137.359375 40.15625 L 137.359375 38.066406 L 135.164062 38.066406 Z M 135.222656 40.433594 "/>
</g>
</svg>
