<?xml version="1.0" encoding="utf-8"?>
<!-- Generator: Adobe Illustrator 21.1.0, SVG Export Plug-In . SVG Version: 6.00 Build 0)  -->
<svg version="1.1" id="Layer_1" xmlns="http://www.w3.org/2000/svg" xmlns:xlink="http://www.w3.org/1999/xlink" x="0px" y="0px" width="175.42mm" height="80.87mm"
	 viewBox="0 0 497.3 229.2" style="enable-background:new 0 0 497.3 229.2;" xml:space="preserve">
<style type="text/css">
	.st0{fill:#FCFCFC;}
</style>
<title>logo_flf</title>
<rect x="247.3" y="2" class="st0" width="2.4" height="225.5"/>
<path class="st0" d="M21.1,143.5l10.3-2.1l-0.5-2.1l-10.3,2.1c-1.9,0.5-3.7-0.7-4.2-2.6c-0.5-1.9,0.7-3.7,2.6-4.2h0.3l10.3-2.1
	l-0.5-2.1l-10.3,2.1c-2.9,0.5-4.8,3.2-4.4,6.1v0.5c0.5,2.9,3.2,4.8,6.1,4.4L21.1,143.5L21.1,143.5z"/>
<polygon class="st0" points="35.8,154.7 24.3,158.9 33.5,147.9 32.6,145.8 17.7,151.2 18.5,153 30,149.1 21.1,159.9 21.8,162 
	36.5,156.6 "/>
<rect x="24.4" y="164.5" transform="matrix(0.8935 -0.449 0.449 0.8935 -70.9054 32.1036)" class="st0" width="15.7" height="2.1"/>
<polygon class="st0" points="46.6,174.7 34,178 42.2,167.6 41,166 30.9,179.1 31.6,180.3 47.8,176.4 "/>
<polygon class="st0" points="44.6,186.2 49,191.1 50.4,189.9 46,185 49.7,181.5 54.2,186.7 55.6,185.5 49.7,178.7 38,189.1 
	43.8,195.8 45,194.7 40.5,189.5 "/>
<path class="st0" d="M62.9,192.1l-4.2-3.5l-10.1,12l1.7,1.4l3.2-3.7l2.6,2.1l-1,5.9l1.9,1.4l1-6.3c2.8,1,5.8-0.5,6.8-3.2l0,0l0,0
	C65.3,195.8,64.5,193.5,62.9,192.1z M61.9,198.4c-1.2,1.4-3.1,1.7-4.7,0.7H57l-2.6-2.4l4.4-5.4l2.6,2.4c1.4,0.9,1.9,2.7,1,4
	C62.3,198,62.1,198.2,61.9,198.4C62.2,198.2,62.2,198.4,61.9,198.4z"/>
<path class="st0" d="M74.1,199.9c-2-1.4-4.6-1-6.1,1c0,0.2-0.2,0.2-0.2,0.5c-1.7,2.6,0.2,4.4,2.1,6.6c1,1.2,2.1,2.4,1.2,4
	c-0.8,1.3-2.5,1.8-3.7,1l0,0l0,0c-0.1,0-0.2-0.1-0.2-0.2c-1.6-0.8-2.3-2.7-1.5-4.3l0,0v-0.2c0-0.1,0.1-0.2,0.2-0.2l-1.8-1.5
	c-1.6,2.3-1.1,5.3,1.2,6.9l0.2,0.1c0.2,0,0.2,0.2,0.5,0.2c2.1,1.6,5,1.2,6.6-1c0-0.2,0.2-0.2,0.2-0.5c1.7-2.6-0.2-4.9-2.1-6.8
	c-1.2-1.2-2.1-2.4-1.2-3.7c0.7-1.1,2.2-1.4,3.2-0.7l0,0l0,0c0.1,0,0.2,0.1,0.2,0.2c1.3,0.6,1.9,2.1,1.3,3.3v0.2
	c0,0.2-0.2,0.2-0.2,0.5l1.9,1c1.4-2.2,0.7-5.1-1.5-6.5l0,0L74.1,199.9C74.6,199.9,74.4,199.9,74.1,199.9z"/>
<rect x="72.6" y="211.1" transform="matrix(0.3938 -0.9192 0.9192 0.3938 -146.1971 202.5563)" class="st0" width="15.7" height="2.1"/>
<polygon class="st0" points="97.4,209.5 87.6,206.7 87.1,208.3 90.8,209.5 87.1,222.9 88.9,223.3 93,210.2 96.7,211.4 "/>
<path class="st0" d="M102.8,210.4l-7.5,14.8l2.1,0.2l1.2-2.4l6.3,1l0.5,2.6l2.1,0.2l-3.2-16.4L102.8,210.4L102.8,210.4z M99.5,221.4
	l3.7-7.8l1.4,8.5L99.5,221.4z"/>
<path class="st0" d="M117.4,217.7c-1.7-0.5-3-1-3-2.6c0-1.7,1.2-2.4,2.9-2.6c1.5-0.1,2.9,0.9,3,2.4v0.5h2.1c0-2.6-2.1-4.7-4.7-4.7
	h-0.5c-2.4-0.2-4.4,1.6-4.7,4v0.5c0,3,2.6,3.7,5.4,4.4c1.4,0.5,3,1,3,2.9c0,1.6-1.2,2.8-2.8,2.9H118h-0.2c-1.8,0.2-3.4-1.1-3.7-2.9
	V222H112c0,2.9,2.4,5.1,5.2,5.2h0.5c2.6,0.3,4.9-1.6,5.1-4.2l0,0v-0.6C122.8,219.1,119.9,218.4,117.4,217.7z"/>
<polygon class="st0" points="141.8,219.1 134,208.5 131.9,209.2 142.1,222.6 143.5,222.1 143.7,205.5 141.8,206.2 "/>
<rect x="149.7" y="202.7" transform="matrix(0.9024 -0.4308 0.4308 0.9024 -76.0076 85.4763)" class="st0" width="2.1" height="15.7"/>
<polygon class="st0" points="162,211.6 154.8,199.6 152.8,200.8 161.3,214.1 167.4,210.4 166.3,208.7 "/>
<polygon class="st0" points="168.8,189.1 176.8,198.2 163.4,193.8 161.8,195.2 171.9,207.2 173.6,205.7 165.5,196.5 178.9,201.1 
	180.5,199.6 170.5,187.6 "/>
<polygon class="st0" points="185.5,191.6 181.7,188.4 186,183.2 184.6,182 180.3,187.2 176.3,183.8 180.8,178.7 179.4,177.5 
	173.6,184.3 185.8,194.5 191.4,187.6 190,186.4 "/>
<polygon class="st0" points="186.6,166 197.3,172.3 183.1,172.1 182,174 195.4,182.3 196.3,180.3 186,174 200,174.5 201.2,172.3 
	187.8,164.2 "/>
<path class="st0" d="M204.3,155.2c-2.9-1.2-4.7,1-6.6,3c-1.2,1.2-2.1,2.4-3.5,1.7c-1.2-0.5-1.8-1.9-1.3-3v-0.2
	c0-0.1,0.1-0.2,0.2-0.2c0.5-1.4,2.1-2.3,3.5-1.9c0.2,0,0.2,0,0.5,0.2l0.7-1.9c-2.2-1.1-4.9-0.2-6,2.1l-0.1,0.3c0,0.2,0,0.2-0.2,0.5
	c-1.2,2-0.5,4.5,1.5,5.7l0,0l0.4,0.2c0.2,0,0.2,0.2,0.5,0.2c2.9,1.2,4.4-0.7,6.3-3c1-1.2,2.1-2.4,3.7-1.7c1.4,0.6,2.1,2.3,1.5,3.7
	l0,0c0,0.1-0.1,0.2-0.2,0.2c-0.6,1.7-2.5,2.7-4.2,2.1c-0.2,0-0.3-0.1-0.5-0.2l-0.7,1.9c2.6,1.2,5.6,0,6.8-2.6c0-0.2,0.2-0.2,0.2-0.5
	c1.3-2.2,0.5-5-1.7-6.3C204.8,155.2,204.6,155.2,204.3,155.2z"/>
<rect x="201.9" y="139.9" transform="matrix(0.2874 -0.9578 0.9578 0.2874 3.1374 299.6585)" class="st0" width="2.1" height="15.7"/>
<path class="st0" d="M210.2,132c-3-0.7-4.4,1.9-5.9,4.2c-0.7,1.4-1.7,2.6-3.2,2.4c-1.3-0.2-2.2-1.5-1.9-2.8l0,0v-0.3
	c0.2-1.5,1.6-2.6,3-2.4h0.5l0.5-2.1c-2.5-0.4-4.9,1.1-5.6,3.5v0.5c-0.7,2.3,0.7,4.7,3,5.4h0.6c3,0.5,4.2-1.7,5.6-4.2
	c0.7-1.4,1.7-2.9,3.2-2.4c1.6,0.3,2.6,1.8,2.4,3.2c0,0.2,0,0.2-0.2,0.5c-0.2,1.8-1.8,3-3.6,2.9H208l-0.5,2.1c2.7,0.7,5.4-1,6.1-3.6
	l0,0v-0.6c0.9-2.4-0.3-4.9-2.7-5.8l0,0h-0.1C210.7,132,210.4,132,210.2,132z"/>
<path class="st0" d="M96.7,157.1c0.5,0.2,0.7,0,1-0.2c0.2-0.2,0-0.7-0.2-1h-0.2c-0.5-0.2-0.7,0-1,0.2c-0.2,0.2,0,0.7,0.2,1H96.7z"/>
<path class="st0" d="M171.6,126.3V63.8L55.8,63.6c0,25.2-0.2,50.8-0.2,75.7h68.6c1-4.4,6.6-9.8,3.7-15.1l-3.2-4c1-0.3,2-0.7,2.9-1.2
	l3.7,3.5c0.3,1.3,0.7,2.6,1.2,3.7c-1.6,2.9-2.9,5.9-3.5,9.1c-1.2,0.2-1.7,1.2-1.2,3.5h3.7c0.2-2.9,1.9-4.4,2.9-7.1
	c1.2-3,1.4-6.3,0-8c-2.6-2.1-4.9-4.4-7.8-6.8c-0.2,0-0.7-0.5-1-0.2c-0.2,0.2,0.5,1.2,1,1.4c-5.4,2.4-10.5,1.7-16.2,1
	c-0.1-1.2,0.1-2.4,0.5-3.5c0.7,0.9,1.3,1.8,1.7,2.9c0.9-1,1.7-2.1,2.4-3.2l3.2,3.5c0.2-2.7,0.7-5.2,1.4-7.8c2.4,0.5,4.9,1,7.3,1.2
	c0.2,1.4-0.2,3.7,1,3.7s0.7-2.9,0.5-3.7c1.3,0.2,2.7,0.2,4,0c0.2,1.4,0,3.5,1.2,3.2c1.2-0.2,0.5-2.4,0.5-3.5c1.2,0,2.4-0.2,3.5-0.7
	c-2.1,4.1-1.5,9.1,1.7,12.7l-3.2,11.7c-1.2,0.5-1.4,1.4-0.7,3.5h36.4C171.6,135.9,171.6,130.8,171.6,126.3z M107.9,71.8l0.7-3.5
	l1,3.5l17.8-0.7l4.9,1.4l-4.9,1.2h-17.8l-0.5,3.7l-1-3.2h-0.7c0.3-0.8,0.2-1.7-0.2-2.4H107.9z M98.6,109.2c2.1-1,4.3-1.4,6.6-1.2
	c0.2,0.5,0.3,0.9,0.2,1.4c-2.6,0.1-5.1,0.6-7.5,1.4C97.8,110.2,98.1,109.6,98.6,109.2z M98.1,103.1c3-2.5,6.6-4.3,10.3-5.4
	c0.2,0,0.5,0.2,0.7,0.2c-4.3,1.8-8.1,4.8-10.8,8.7C98.1,105.4,98.1,104.2,98.1,103.1z M99.3,107.3c2.4-3.8,5.9-6.8,10.1-8.5
	c0,1.2,0.5,2.4,1.4,3l-3.2,3.2l-2.1,1.7C103.3,106.7,101.2,106.9,99.3,107.3z M114,85.2c1.8-2.3,2-5.5,0.5-8
	c1.7-0.4,3.3-0.3,4.9,0.2c0.5,2.3,0,4.5-1.4,6.3l1,1.4c-1.2,0.3-2.4,0.5-3.5,0.5c0,1.3,0,2.6,0.2,3.7c-1,0.2-2.1,0.5-3.2,0.7
	C112.5,88.3,113.1,86.6,114,85.2z M113.6,83.8c-1.2-1.4-1.7-3.1-1.4-4.9c0-0.7,0.5-1.3,1.2-1.4C114.8,78.4,115,83.1,113.6,83.8z
	 M116,90.4c0.3,1.6,0.7,3.1,1.2,4.7c-1,0.2-2.6,1-4,1.4c-0.5-1.7-0.7-3.4-0.7-5.2C113.6,91.2,114.8,90.8,116,90.4z M117.6,96.3
	c0.2,0.6,0.5,1.2,1,1.7c-2.5,1-4.8,2.2-7.1,3.5c-0.7-0.7-1.7-2.1-0.7-2.9L117.6,96.3z M107.5,106.6l3.2,2.4v0.5l-4.4-0.2
	c0-0.5-0.2-1.2-0.2-1.7C106.6,107.3,107.1,106.8,107.5,106.6z M108.4,105.8c2.8-3.2,6.3-5.6,10.3-7.1c0.7,1.1,1.5,2.2,2.4,3
	c-0.9,1-2,1.8-3.2,2.1c-2.4,1.2-5.4,4-6.3,4.4L108.4,105.8z M116.7,86.6l9.4-1.4c1.4,3.5,1.9,14.1-1.9,17.4
	C119.9,100.5,116.9,92.2,116.7,86.6z M105.2,71.8c0.9,0.2,1.5,1,1.4,1.9c-0.1,0.6-0.4,1.2-0.7,1.7c0,1.7,0.5,5.6,0.7,8.3l6.3,2.6
	c-0.5,1-0.9,2-1,3l-8.3-3.5c0-3.5,0-6.8,0.2-10.3c-0.7-0.7-0.9-1.7-0.5-2.6C103.8,72.1,104.5,71.7,105.2,71.8z M101,73
	c0.2-0.2,0.7-0.5,1-0.2c0.2,0.4,0.2,0.8,0,1.2c-0.3,0.2-0.7,0.2-1,0l0,0c-0.3-0.1-0.4-0.4-0.3-0.6C100.7,73.2,100.8,73.1,101,73z
	 M103.7,92.4c1.5,1.3,2.8,2.8,3.7,4.4c-0.6,0-1.2,0.2-1.7,0.5c-1.4-2.5-3.5-4.5-6.1-5.6l0.5,1c2,1.2,3.5,2.9,4.4,4.9
	c-2.6,1-5,2.4-7.1,4.2c0-1.4,0.1-2.7,0.2-4c1-2.4,1.4-4.9-1.4-6.6c-0.7-0.3-1.4-0.4-2.1-0.5c0-0.8,0-1.6-0.2-2.4
	C97.6,88.9,101,90.3,103.7,92.4z M96.7,99.7h-1.4l-0.7-7.3c1.3,0,2.4,0.8,2.9,1.9C97.9,95.5,96.4,98.3,96.7,99.7z M94.4,104
	c-1.3,0.1-2.5-0.8-2.6-2.1c0-0.1,0-0.2,0-0.3c1.5-0.5,3.1-0.7,4.7-0.5C96.7,102.8,96,104,94.4,104z M94.4,99.7
	c-1,0.1-1.9,0.2-2.9,0.5l-0.2-0.2l-1.7-6.8c1.1-0.7,2.3-1.1,3.5-1.2L94.4,99.7z M89.6,87.5c0.9,0.2,1.6,0.7,2.1,1.4h1.4
	c0.2,0.7,0.3,1.4,0.2,2.1c-1.4,0-2.7,0.4-3.7,1.2l-0.7-1.4c-1-1.4-0.5-1.2-1.2-1.9c0.8,0.2,1.7,0.5,2.4,1
	C89.8,89.1,89.6,88.3,89.6,87.5z M79.5,119.7c0.3-1.6,0.7-3.1,1.2-4.7c2.7-1.9,5.5-3.5,8.5-4.9c2.5-0.1,4.9,0.1,7.3,0.5
	c-0.2,0.7-0.2,1.7-0.5,2.4c-2.2-0.2-4.4-0.3-6.6-0.2c-2.5,0.8-4.8,2.1-6.8,3.7c-0.2,1.2,0,2.5,0.5,3.5
	C81.9,119.8,80.7,119.7,79.5,119.7z M85.2,121.6c-0.2,0.9-0.2,1.8,0,2.6c-0.9,0.2-1.7,0.3-2.6,0.2c-0.1-1.3,0.3-2.7,1-3.7
	c1.7-1.7,3.5-3.5,5.2-4.9c0.6-0.8,1.3-1.4,2.1-1.9l9.1-0.7V113c-0.8-0.3-1.6-0.4-2.4-0.2l0.2-1c2.5-1,5.1-1.6,7.8-1.7
	c0,2.4,0,4.9-0.2,7.3c-3.2,0.7-9.4-1.4-13.4-1.2L85.2,121.6z M109.1,118.1c-0.2,0.9-0.2,1.9,0,2.9c0,1-1.7,1.2-2.9,1.4
	c-1.8,0.5-3.3,1.2-4.9,2.1c0.3-1.4,1.1-2.6,2.4-3.2c0.7-0.3,1.4-0.7,1.9-1.2c0.7-3,1-6.2,1-9.4c1,0,3.2,0.2,4.2,0.2
	C111,113.4,109.6,115.8,109.1,118.1z M119.1,108.2c-1.4,2.6-2.1,5.3-2.1,8.3l-2.9-2.9c-0.5,1-1.2,2.1-1.7,3c-0.2-0.5-1-1.4-1.4-2.1
	c0.7-1.6,0.9-3.4,0.5-5.2c2-1.7,4.1-3.1,6.3-4.4c2.1-0.7,3.5-1.4,4-2.4c0.5,0.5,1,0.7,1.4,1.2c-1.7,2.2-4.1,3.5-6.8,4
	C117.3,108.1,118.2,108.3,119.1,108.2z M119.7,109.9c0.2-0.8,0.5-1.6,1-2.4c1.2-0.5,2.2-1.2,3-2.1c1.3,1.6,2.2,3.4,2.4,5.4
	C123.9,110.8,121.8,110.5,119.7,109.9z M127.7,111c-0.5-2.5-1.5-4.7-2.9-6.8c1.5-0.3,3,0.3,4,1.4c1.4,1.5,2.3,3.3,2.6,5.4H127.7z
	 M147.5,114.6c0.6,0.7,1,1.7,1.2,2.6c-0.8-0.7-1.8-1-2.9-1c0.4,0.9,0.5,1.9,0.2,2.9l0,0c-0.5-0.8-1-1.5-1.7-2.1
	c-1.7-1.7-1-4.4,0-7.1c0-1.2-0.5-2.1-1.7-2.1c-3,0.5-5.9,3-9,2.9c-1.2-2.4-1.7-5.9-4.7-7.1c3.3,0.3,6.4,2.1,8.3,4.9
	c2.9-2.4,5.9-5.2,9.8-4c1.3,0.6,2.2,1.7,2.4,3c0.2,2.4-1.2,5.4,1.4,7.5C149.6,115.8,148.4,114.3,147.5,114.6z"/>
<path class="st0" d="M167.7,141.8H55.6c0.4,13.5,5.4,26.6,14.1,36.9c23,27.3,68.1,26.8,90-2.1c7.8-9.9,12-22.1,12-34.7h-2.1
	c-0.2,7.6-1.9,15-4.9,21.8c-0.4,0.5-1,0.9-1.7,1c-2,0.7-4,1.3-6.1,1.7c-0.5,0.2-1.2,0.5-1.4,1c1.7,0,3.3-0.2,4.9-0.7
	c-0.6,0.4-1.3,0.8-1.9,1.2c-5.8,3.3-11.9,6.3-18.1,9c1-5.7,0.4-11.5-1.7-16.9c1.9-0.3,3.6-0.7,5.4-1.2c1.6,2.3,2.6,4.9,2.9,7.8
	c0.8-0.9,1.1-2.1,1-3.2c-0.5-1.8-1.2-3.5-2.1-5.2c1.7-0.9,3.3-1.7,5.2-2.4c1.7-0.4,3.3-1,4.9-1.7c-1.1-0.4-2.3-0.4-3.2,0
	c4.2-2.7,8.9-4.7,13.6-6.1c-0.2-0.7-2.6,0-3.2,0C165.1,146.3,166.7,144.2,167.7,141.8z M93.9,155.2V185c-0.3-0.4-0.7-0.8-1.2-1
	v-29.8c0-1,0.2-1.4,0.7-1.4c2.6-0.2,6.3-0.7,9.4-1.2s6.8-0.7,10.1-1.2c0.2-0.2,0.2-0.6,0-0.8h-0.2l-20,2.4c-0.5,0.2-1,0.7-1,1v30.9
	l-1.2-0.2c-0.2-9.4,0-20.2,0-30.3v-1.9c0.2-0.5,1.2-0.5,1.2-0.5c7.1-0.7,14.1-1.7,21.2-2.6c0.2,0,0.2-0.5,0-0.7
	c-6.8,0.7-15.1,1.4-21.6,2.1c-0.6,0-1.2,0.3-1.7,0.7c-0.2,0.5-0.3,1.1-0.2,1.7c0,10.3,0.5,21.2,0,31.5h-1c0-10.8-0.2-24.2-0.2-33.4
	c-0.2-1,0.5-1.7,1.4-1.9h0.2c8.7-0.7,13.9-1,21-1.9c2.1,0,3.7,0.2,4.7,1.7c0.6,0.9,0.3,2.2-0.6,2.8h-0.1c-0.2,0-0.2,0.2-0.5,0.2
	l-2.9,0.7L95,153.8C94.6,153.8,94.1,154.5,93.9,155.2z M111,153v4.4h-1c-1.9-0.4-3-2.2-2.9-4C108.2,153.3,109.8,153.3,111,153
	L111,153z M94.9,155.9c0-0.7,0-1.4,1-1.4s2.4-0.2,3.5-0.2c0,3-1.2,4.4-4.4,4.4C95,157.8,95,156.9,94.9,155.9L94.9,155.9z
	 M96.4,188.1c-0.6-0.1-1.1-0.4-1.4-1v-4c1.1-0.1,2.2,0.3,3,1c1,1,1.6,2.4,1.7,3.7C98.6,187.9,97.6,188.1,96.4,188.1L96.4,188.1z
	 M101,187.6c0-1.8-0.8-3.3-2.1-4.4c-1.1-0.8-2.5-1.1-3.7-1L95,159.8c2.7,0.4,5.1-1.4,5.6-4v-1.3l5.6-0.7c-0.1,2.8,2.1,5.1,4.9,5.2
	c0,0,0,0,0.1,0h0.3l0.7,22c-2.9,0.5-4.8,3-4.7,5.9v0.2L101,187.6z M108.2,186.7c-0.4-2.2,0.9-4.2,3-4.7h0.2c0,0,0.2,4.2,0.2,4.4
	C110.6,186.4,109.4,186.7,108.2,186.7L108.2,186.7z M112.2,152.8c1.4-0.1,2.7-0.7,3.5-1.7c0.4,0.9,0.1,1.9-0.7,2.4c0,0,0,0-0.1,0
	h-0.1c-0.8,0.6-1.7,0.9-2.6,1C112.2,154.2,112,153,112.2,152.8L112.2,152.8z M112.2,155.9c1.3,0,2.6-0.5,3.5-1.4v6.3
	c-0.5,1.4-1.9,1.7-3.5,2.1V155.9z M112.5,164.2c1.2-0.2,2.3-0.7,3.2-1.4c0.4,0.4,0.4,1.2,0,1.6l0,0l0,0c-1,0.8-2.3,1.2-3.5,1.2
	C112.2,165,112.3,164.6,112.5,164.2L112.5,164.2z M112.5,166.7c1.1-0.1,2.2-0.4,3-1v5.6l-3,1.7V166.7z M112.9,176.6
	c0.5,0,0.5,0,0.7,0.7s1,0.5,1.7,0.7c0.3,0.5,0.9,0.8,1.4,0.7v3.5c0,0.7-2.9,1.7-3.5,1.7L112.9,176.6z M116.2,185.3c-1,0.5-2,0.9-3,1
	V185c1.4-0.2,2.7-0.7,3.7-1.4C116.9,184.2,116.6,184.8,116.2,185.3z M139.4,176.6c-0.2,0.7-0.7,0.7-1,0.5c-1.2-2.1-1.9-4.4-2.1-6.8
	c1-0.9,2.1-1.7,3.2-2.1C139.8,171,139.8,173.8,139.4,176.6z M139.4,167.2c-5.6,2.4-9.1,8.7-15.7,9.6l3.5-2.1c0-0.3-0.2-0.5-0.5-0.5
	c-2,1.2-3.9,2.2-6.1,2.9l-3.7,0.7c-0.2,0-0.7,0-0.7-0.5c1-0.5,3.7-1.4,5.4-2.1c1.4-0.7,2.8-1.5,4-2.4c0-0.2,0-0.7-0.5-0.5
	c-1.2,0.7-2.6,1.4-3.7,2.1c-1.9,0.7-3.5,1.4-5.4,2.1c-0.5,0.2-1,0.1-1.4-0.2c-0.2-0.2,0-0.2,0.7-0.7c1.7-0.6,3.3-1.3,4.9-2.1
	c1.5-0.8,2.9-1.7,4.2-2.6c0-0.2,0-0.5-0.5-0.5c-3,1.9-6.1,3.2-9.4,4.2c-0.5,0.2-1.1,0.3-1.7,0.2v-1l4.9-2.6c1.4-0.7,2.8-1.6,4-2.6
	l3.7-3.2v-0.5c-2.7,0.7-5.5,0.7-8.3,0v0.1c1.4-0.4,2.8-0.7,4.2-1c2.4-0.7,4.4-1.7,7.1-2.4c3.1-0.5,6.4-0.7,9.6-0.7
	C139,162.9,139.4,165,139.4,167.2z"/>
<path class="st0" d="M97.4,185c-0.5-0.2-1,0-1.2,0.5s0,1,0.5,1.2s1,0,1.2-0.5C98.1,185.8,97.9,185.2,97.4,185L97.4,185z"/>
<path class="st0" d="M107.9,169.1c0-1.7-1.2-1.9-2.6-2.1c0-0.8-0.3-1.5-0.7-2.1c-1.7-1-4,0.2-3.2,2.4c-1,0.2-2.9,0.7-2.6,2.4
	c0.2,1.7,1.2,2.1,3,2.1c-0.1,1.4,0.9,2.7,2.4,2.9c1.4-0.2,1.7-1.7,1.7-3.2C106.8,171,108.2,170.5,107.9,169.1z M104.9,170.5
	c0,1.2,0.5,2.9-0.7,2.9c-1.7,0.2-1-1.9-1.4-2.6c-0.7-0.2-2.4,0.5-2.9-1c0.2-1.7,1.7-1.4,2.6-1.7c0-1.2-0.7-2.1,1-2.6
	c1.4,0.2,1,1.4,1,2.1c1,0,2.6-0.2,2.6,1.2C107.1,170.2,105.9,170,104.9,170.5z"/>
<path class="st0" d="M124.4,98.3c-0.3-0.9-0.4-1.9-0.5-2.9c1,0,1.4-0.2,2.1-0.2l-0.2-1.7c-0.7,0.2-1,0.2-1.9,0.5
	c-0.2-1-0.2-1.7-0.5-2.9l2.1-0.2v-1.4c-0.5,0.2-1.7,0.2-2.1,0.5c-0.2-1-0.2-2.1-0.5-3c-0.2,0-1.4,0.2-1.7,0.2c0.2,1,0.5,1.9,0.7,3
	c-0.7,0-1.2,0.2-2.1,0.2l0.2,1.4c0.8-0.3,1.6-0.4,2.4-0.5c0.2,1.2,0.2,1.9,0.5,2.9c-0.7,0.2-1.4,0.3-2.1,0.2l0.2,1.7
	c0.7-0.2,1.4-0.2,2.1-0.5v3C123.3,98.5,124,98.5,124.4,98.3z"/>
<path class="st0" d="M110.6,184.1c-0.4-0.3-0.9-0.2-1.2,0.2s-0.2,0.9,0.2,1.2l0,0l0,0c0.1,0,0.2,0.1,0.2,0.2
	C110.8,186,111.5,184.5,110.6,184.1z"/>
<path class="st0" d="M92.7,95.5c0.2-0.4,0.1-0.9-0.2-1.2c-0.5,0-0.5-0.2-1,0c-0.2,0.4-0.2,0.8,0,1.2C92.2,96,92.5,96,92.7,95.5z"/>
<path class="st0" d="M109.1,155.9c0.5,0,0.7,0,1-0.5c0.2-0.5,0-0.7-0.5-1C108.7,154,108.4,155.7,109.1,155.9z"/>
<polygon class="st0" points="29,94.8 14.5,86.8 14.3,89 25.8,95.1 12.8,97 12.3,99 28.8,96.5 "/>
<rect x="22.4" y="75" transform="matrix(0.2708 -0.9626 0.9626 0.2708 -62.698 82.9802)" class="st0" width="2.1" height="15.7"/>
<polygon class="st0" points="35.8,72.5 34.2,71.8 32.3,76.5 19.4,71.6 18.5,73.5 33.3,79.1 "/>
<polygon class="st0" points="38,67.8 27.4,61.9 41.5,61.7 42.4,59.6 28.5,52.1 27.7,54 38.5,59.6 24.3,60.1 23.1,62.1 37,69.7 "/>
<rect x="38.5" y="42.4" transform="matrix(0.5761 -0.8174 0.8174 0.5761 -24.2982 53.5851)" class="st0" width="2.1" height="15.7"/>
<path class="st0" d="M49.7,49.7l-1.2-2.4l4.2-4.7l2.4,1l1.4-1.7L41,35.6l-1,1.2l8.3,14.6L49.7,49.7z M42.9,38.4l7.8,3.5l-3.2,3.7
	L42.9,38.4z"/>
<path class="st0" d="M62.2,37.5c2.4-1.8,2.8-5.1,1.1-7.4l0,0L63.1,30l-6.9-8.4L54.5,23l6.8,8.3c1.3,1.5,1,3.7-0.5,4.9
	c-1.5,1.3-3.7,1-4.9-0.5l0,0l0,0l-6.8-8.3l-1.5,1.2l6.8,8.3c1.8,2.4,5.1,2.8,7.4,1.1l0,0c-0.1-0.1-0.1-0.3,0-0.3
	S62.1,37.4,62.2,37.5z"/>
<path class="st0" d="M69.9,23c1.4-0.5,3-0.7,4,1c0.7,1.3,0.3,3-1,3.7c-0.1,0-0.2,0.1-0.2,0.2l0,0l0,0c-1.5,1-3.5,0.7-4.7-0.7
	c0-0.2-0.2-0.2-0.2-0.5l-1.9,1.2c1.3,2.6,4.4,3.4,6.9,2.2l0,0h0.1c0.2,0,0.2-0.2,0.5-0.2c2.4-1,3.5-3.7,2.6-6.1
	c0-0.2-0.2-0.5-0.2-0.7c-1.7-2.6-4.4-2.1-7.1-1.4c-1.7,0.5-3,0.7-4-0.7c-0.7-1.1-0.3-2.6,0.8-3.2h0.1c0.1,0,0.2-0.1,0.2-0.2l0,0l0,0
	c1.3-0.9,3-0.5,3.7,0.7l0,0l0,0c0,0.2,0.2,0.2,0.2,0.5l1.9-1.2c-1.3-2.3-4-3.1-6.3-1.9c-0.2,0-0.2,0.2-0.5,0.2
	c-2.2,1.1-3,3.6-2.1,5.9c0,0.2,0.2,0.2,0.2,0.5C64.7,24.1,67.3,23.7,69.9,23z"/>
<path class="st0" d="M93,21c3-0.7,4.7-3.6,4-6.6v-0.2L94,3.9l-1.9,0.5L95,14.7c0.7,1.8-0.3,3.7-2.1,4.4c-1.8,0.7-3.7-0.3-4.4-2.1
	c-0.1-0.2-0.1-0.3-0.1-0.5L85.6,6.3l-1.9,0.5l2.9,10.3C87.3,19.9,90.1,21.7,93,21z"/>
<polygon class="st0" points="103.5,18.5 102.5,6.3 110.6,18 112.9,17.8 111.5,2 109.4,2.2 110.6,14.2 102.3,2.7 100.3,3 101.3,18.7 
	"/>
<rect x="110.7" y="9.2" transform="matrix(5.983058e-02 -0.9982 0.9982 5.983058e-02 101.208 127.9959)" class="st0" width="15.7" height="2.1"/>
<polygon class="st0" points="128.9,19.4 137.4,5.1 135.2,4.6 128.9,16.1 127.2,3.2 125.2,2.7 127.5,19.1 "/>
<polygon class="st0" points="144.6,24.4 145.3,22.7 139,20.3 140.6,15.4 147,17.8 147.7,16.1 141.3,13.7 143.3,8.8 149.6,11.2 
	150.2,9.5 141.8,6.5 136.4,21.3 "/>
<path class="st0" d="M149.8,26.9l2.6-4.4l2.9,1.7l0.2,5.9l2.1,1.2l-0.2-6.3c2.3,0.4,4.4-0.7,5.6-2.6c1.5-2.6,0.6-5.8-1.9-7.3
	c-0.1,0-0.2-0.1-0.2-0.2l-5.2-2.6l-7.8,13.6L149.8,26.9z M156.6,14.7l3,1.7c1.6,0.9,2.1,2.8,1.3,4.3l0,0v0.1V21
	c-0.7,1.6-2.7,2.3-4.2,1.6l-0.3-0.1c-0.1,0-0.2-0.1-0.2-0.2l-3-1.4L156.6,14.7z"/>
<path class="st0" d="M162.4,28.6c-1.9,2.2-1.7,5.4,0.5,7.3c0.2,0.2,0.2,0.2,0.5,0.2c1.8,1.8,4.6,1.9,6.4,0.2l0,0l0.2-0.2l0.5-0.5
	c1.9-2.4,0.5-4.7-1.2-7.1c-1-1.4-1.7-2.6-0.7-4c0.9-1,2.5-1.1,3.5-0.2l0.2,0.2c1.3,0.9,1.6,2.6,0.7,3.7l0,0l0,0
	c0,0.2-0.2,0.2-0.2,0.5l1.7,1.4c1.7-2,1.5-4.9-0.5-6.6l-0.2-0.2c-1.7-1.7-4.4-1.7-6.1,0l-0.2,0.2c-1.9,2.4-0.5,4.4,1.2,6.8
	c1,1.2,1.7,2.6,0.5,4c-1,1.2-2.8,1.4-4,0.5l-0.2-0.2c-1.5-1.1-1.9-3.1-1-4.7c0-0.2,0.2-0.2,0.2-0.5L162.4,28.6z"/>
<rect x="169.1" y="36.4" transform="matrix(0.7129 -0.7013 0.7013 0.7129 24.5271 134.8173)" class="st0" width="15.7" height="2.1"/>
<polygon class="st0" points="177,49.2 178.2,50.9 189.3,42.2 191.9,45.5 193.2,44.3 186.6,36.4 185.3,37.5 187.8,40.6 "/>
<polygon class="st0" points="187.1,64 188.8,63.1 185.3,57.2 189.5,54.7 193,60.6 194.6,59.6 191.2,53.7 195.4,51.1 198.8,56.7 
	200.5,55.8 196.1,48.3 182.4,56.5 "/>
<polygon class="st0" points="190.2,70.4 190.9,72.3 203.6,66.7 205.4,70.4 207.1,69.4 202.9,60.3 201.2,61 202.9,64.8 "/>
<path class="st0" d="M193.5,78.4h2.6l1.9,6.1l-2.1,1.7l0.7,2.1l13.4-9.8l-0.5-1.4l-16.7-0.5L193.5,78.4z M206.6,78.4l-7.1,4.9
	l-1.7-4.9H206.6z"/>
<path class="st0" d="M208.5,88.2c-2.9,0.7-3.2,3-3.5,6.1c-0.2,1.4-0.5,3-2.4,3.5c-1.6,0.3-3-0.8-3.2-2.4v-0.2
	c-0.5-1.8,0.6-3.5,2.4-4h0.5l-0.2-2.4c-2.8,0.5-4.7,3-4.4,5.9v0.5c0.2,2.6,2.4,4.5,4.9,4.4h0.5c3-0.5,3.5-3.2,3.7-6.1
	c0.2-1.7,0.5-3,2.1-3.2c1.3-0.3,2.6,0.6,2.8,1.9c0,0.1,0,0.2,0,0.3v0.2c0.5,1.4-0.3,2.9-1.7,3.2c0,0,0,0-0.1,0h-0.2h-0.5l0.5,2.1
	c2.6-0.5,4.3-2.9,4-5.4v-0.5c-0.2-2.4-2.3-4.1-4.7-4L208.5,88.2L208.5,88.2z"/>
<path class="st0" d="M96.9,52.1v-13h-1.7c0,1.7-0.5,2.1-2.9,2.1v1.4H95V52L96.9,52.1z"/>
<polygon class="st0" points="115.2,52.1 116.9,52.1 122.8,38.9 114.8,38.9 114.8,40.6 120.4,40.6 "/>
<path class="st0" d="M129.8,52.1l4-6.3c0.5-0.8,0.7-1.7,0.7-2.6c0-2.5-2-4.4-4.4-4.4c-2.5,0-4.4,2-4.4,4.4s2,4.4,4.4,4.4l0,0
	c0.3,0,0.5-0.1,0.7-0.2l-3,4.7L129.8,52.1z M130.1,46.2c-1.6,0.1-3-1.2-3-2.9c-0.1-1.6,1.2-3,2.9-3c1.6-0.1,3,1.2,3,2.9v0.2
	c0.1,1.6-1,3-2.6,3C130.3,46.3,130.2,46.2,130.1,46.2L130.1,46.2z"/>
<circle class="st0" cx="84.5" cy="45.7" r="2.1"/>
<circle class="st0" cx="142.5" cy="46" r="2.1"/>
<circle class="st0" cx="21.1" cy="115.1" r="2.1"/>
<ellipse transform="matrix(0.7507 -0.6607 0.6607 0.7507 -24.2646 165.7201)" class="st0" cx="207.4" cy="115" rx="2.1" ry="2.1"/>
<path class="st0" d="M107.5,43.1c-1.2,0-2.4,0.5-3,1.4v-4h6.3v-1.7H103v7.3h1.7c0.6-1.4,2.3-2.1,3.7-1.5l0,0c1,0.6,1.7,1.7,1.7,2.9
	c0.1,1.5-0.9,2.9-2.4,3h-0.5c-1.2,0.2-2.3-0.5-2.6-1.7H103c0.4,2,2.2,3.3,4.2,3.2c2.4,0,4.3-1.9,4.4-4.2v-0.5c0.1-2.2-1.6-4-3.7-4.2
	C107.8,43.2,107.6,43.1,107.5,43.1z"/>
<path class="st0" d="M479.2,103.5"/>
<path class="st0" d="M280.1,104.1"/>
<path class="st0" d="M280.7,70.7h18.7v5.9h-11.6v8.2h11.6v5.8h-11.6v10.6h-7.1V70.7z"/>
<path class="st0" d="M302.6,90.7c0-6.3,3.9-11.1,10-11.1c2.7-0.1,5.2,1.3,6.6,3.6v-3h6.6v21.1h-6.6v-3c-1.4,2.3-4,3.6-6.7,3.5
	C306.2,101.8,302.6,97,302.6,90.7z M319.5,90.7c0.3-2.8-1.8-5.2-4.5-5.5s-5.2,1.8-5.5,4.5c0,0.3,0,0.7,0,1c-0.3,2.8,1.7,5.2,4.5,5.5
	c0.2,0,0.3,0,0.5,0c2.7,0,5-2.1,5-4.9C319.5,91.2,319.5,90.9,319.5,90.7z"/>
<path class="st0" d="M329.7,90.7c-0.4-5.8,3.9-10.8,9.7-11.2c0.5,0,1,0,1.6,0c6.3,0,10.4,3.4,10.9,8.6h-6.7c-0.4-1.9-2.2-3.3-4.2-3
	c-2.9,0-4.6,2-4.6,5.5c0,3.5,1.7,5.5,4.6,5.5c2.4,0,3.7-1,4.2-2.8h6.7c-0.5,5.1-4.6,8.5-10.9,8.5c-5.8,0.4-10.8-4-11.2-9.8
	C329.7,91.6,329.7,91.1,329.7,90.7z"/>
<path class="st0" d="M355.5,93.2v-13h6.8v11.5c0,2.9,1,4.5,3.5,4.5s4-1.8,4-4.7V80.2h6.6v21.1h-6.6v-3.1c-1.3,2.4-3.8,3.8-6.5,3.6
	C358.2,101.8,355.5,98.7,355.5,93.2z"/>
<path class="st0" d="M382,70.7h6.7v30.6H382V70.7z"/>
<path class="st0" d="M407.5,95.9v5.4c-1.5,0.2-3,0.4-4.5,0.3c-3.1,0-7.5-0.7-7.5-7.7v-8.4h-3.4v-5.3h3.3V74h6.7v6.2h4.8v5.3h-4.8v7
	c0,3.1,1.3,3.6,2.9,3.6C405.9,96.1,406.7,96,407.5,95.9z"/>
<path class="st0" d="M432.2,80.2v20.4c0.1,2.8-1,5.6-3,7.6c-2.2,1.8-4.9,2.6-7.7,2.4c-2.8,0.2-5.5-0.6-7.8-2.2
	c-1.6-1.4-2.6-3.4-2.6-5.5h6.7c0.1,1.8,1.1,2.8,3.7,2.8s4-1.4,4-4.7v-3.2c-1.3,2.4-4,3.8-6.7,3.5c-5.4,0-7.8-3.6-7.8-8.8V80.3h6.7
	v11.2c0,2.7,0.9,4.5,3.7,4.5c2.8,0,4-2.1,4-5.3V80.2H432.2z"/>
<path class="st0" d="M446.6,90.7c0.3-6.4,5.8-11.4,12.2-11.1c6,0.3,10.9,5.1,11.1,11.1c-0.3,6.4-5.8,11.4-12.2,11.1
	C451.7,101.6,446.9,96.7,446.6,90.7z M463.4,90.7c0.3-2.8-1.8-5.2-4.5-5.5c-2.8-0.3-5.2,1.8-5.5,4.5c0,0.3,0,0.7,0,1
	c-0.3,2.8,1.8,5.2,4.5,5.5c2.8,0.3,5.2-1.8,5.5-4.5C463.4,91.4,463.4,91,463.4,90.7z"/>
<path class="st0" d="M481.8,78.1v2.1h4.8v5.3h-4.8v15.8h-6.7V85.5h-3.8v-5.3h3.8v-2.1c-0.3-4,2.6-7.5,6.6-7.8c0.4,0,0.7,0,1.1,0
	c1.3,0,2.6,0.1,3.8,0.5v4.8c-0.7,0-1.2-0.1-1.8-0.1C483.5,75.4,481.8,75.7,481.8,78.1z"/>
<g transform="translate(0.000000,106.000000) scale(0.100000,-0.100000)">
	<path class="st0" d="M3349-117.2c-26.1-25.6-7.7-70,29-70c23.7,0,41.1,17.4,41.1,41.1c0,12.1-3.9,21.3-12.1,29
		c-7.7,8.2-16.9,12.1-29,12.1C3365.9-105.1,3356.7-109,3349-117.2z"/>
	<path class="st0" d="M2796-264.5V-419h36.2h36.2v43.5v43.5h45.4c40.1,0,48.3,1.4,71,13.5c47.8,24.6,68.6,81.1,50.7,135.2
		c-9.7,29.5-41.5,60.4-68.6,68.1c-10.6,2.9-53.1,5.3-94.7,5.3H2796V-264.5z M2944.3-177.6c22.7-13.5,29.9-41.1,17.9-65.7
		c-11.6-23.7-26.1-30.9-63.3-30.9h-30.4v53.1v53.1h30.4C2920.1-167.9,2933.2-170.8,2944.3-177.6z"/>
	<path class="st0" d="M3076.1-264.5V-419h33.8h33.8v67.6c0,65.7,0.5,68.6,12.1,79.7c16.4,16.9,41.5,16.4,55.1-0.5
		c9.2-11.6,10.1-19.3,10.1-79.7V-419h33.8h33.8v81.1c0,87.9-3.9,104.3-29.5,123.2c-26.1,18.8-75.8,16.4-100.9-4.3l-14.5-12.6v60.9
		v60.9h-33.8h-33.8V-264.5z"/>
	<path class="st0" d="M3467.3-264.5V-419h33.8h33.8v154.5V-110h-33.8h-33.8V-264.5z"/>
	<path class="st0" d="M3853.7-264.5V-419h33.8h33.8v154.5V-110h-33.8h-33.8V-264.5z"/>
	<path class="st0" d="M3649.9-208.5c-38.6-14-61.8-38.6-71.5-75.3c-13.5-51.2,9.7-102.9,58-128.5c25.1-13.5,92.2-12.6,118.3,1.4
		c38.6,20.3,57,53.1,57,100.5c0.5,43.5-18.8,75.8-57,95.6C3730-202.2,3675-198.8,3649.9-208.5z M3728.6-273.7
		c11.6-12.1,14-18.4,14-38.6c0-35.3-15-51.2-47.3-51.2c-28,0-42,9.7-48.8,34.3C3632-276.1,3690.9-236,3728.6-273.7z"/>
	<path class="st0" d="M4037.2-207.5c-45.9-13-76.8-55.1-77.3-104.3c0-65.7,49.7-112,121.2-112c66.6,0,115.4,46.8,115.4,110.6
		c0,33.8-16.9,72-38.6,87.4C4127.5-204.1,4076.3-196.4,4037.2-207.5z M4104.3-266.4c15-8.2,24.6-26.1,24.6-46.4
		c0-45.9-48.8-69.5-82.1-39.6c-18.8,16.4-23.7,41.5-12.6,64.7C4046.9-261.1,4076.3-252.4,4104.3-266.4z"/>
	<path class="st0" d="M4285.4-210.9c-24.6-11.1-47.3-38.6-55.1-66.2c-12.1-43,3.4-99.5,33.3-121.2c37.2-27.5,90.8-27.5,120.3-0.5
		l10.6,10.1v-21.3c0-27-9.7-41.1-32.4-47.3c-22.7-6.3-52.2,1-59.4,14c-4.3,8.2-10.1,9.7-38.6,9.7c-29.5,0-33.8-1-33.8-9.2
		c0-15,21.3-41.1,43.5-53.6c19.3-10.6,27.5-12.1,70-12.1c57.5,0,81.1,9.7,102.4,42l13.5,19.8l1.4,120.3l1.4,119.8h-34.3
		c-33.3,0-33.8,0-33.8-13v-12.6L4384-222C4360.3-200.3,4319.7-195.4,4285.4-210.9z M4379.1-271.7c17.9-15,23.2-39.1,13.5-61.8
		c-14.5-34.8-55.1-43.9-80.7-18.4c-12.1,12.1-14,17.9-14,39.1c0,21.3,1.9,27,14,39.1C4330.8-255.3,4358.4-254.4,4379.1-271.7z"/>
	<path class="st0" d="M3341.7-312.8V-419h36.2h36.2v106.3v106.3H3378h-36.2V-312.8z"/>
	<path class="st0" d="M4516.3-285.3c1.9-85,5.8-100,33.3-120.3c25.6-19.3,75.8-17.4,100.9,3.9l14.5,12.6v-22.2
		c0-30.9-15.9-48.8-43-48.3c-20.8,0.5-34.3,8.2-34.3,19.3c0,5.3-8.7,6.8-36.7,6.8c-35.7,0-36.2-0.5-32.8-10.6
		c14-46.4,43.9-66.2,100.9-66.6c54.1,0,86.9,17.4,104.3,55.5c7.7,16.9,9.2,33.3,9.2,134.3v114.5h-33.8H4665v-58
		c0-62.3-5.8-86.9-23.2-96.1c-15-7.7-27-6.3-41.5,4.8c-12.6,9.7-12.6,10.1-12.6,79.7v69.5h-36.7h-36.7L4516.3-285.3z"/>
</g>
</svg>
